<svg width="18" height="18" viewBox="0 0 18 18" fill="none" xmlns="http://www.w3.org/2000/svg">
<path d="M5.20313 3.74977C5.20293 4.1476 5.0447 4.52905 4.76326 4.81021C4.48181 5.09138 4.1002 5.24922 3.70238 5.24902C3.30455 5.24882 2.9231 5.0906 2.64193 4.80915C2.36077 4.52771 2.20293 4.1461 2.20313 3.74827C2.20332 3.35045 2.36155 2.969 2.643 2.68783C2.92444 2.40667 3.30605 2.24882 3.70388 2.24902C4.1017 2.24922 4.48315 2.40745 4.76432 2.68889C5.04548 2.97034 5.20332 3.35195 5.20313 3.74977ZM5.24813 6.35977H2.24813V15.7498H5.24813V6.35977ZM9.98812 6.35977H7.00313V15.7498H9.95813V10.8223C9.95813 8.07727 13.5356 7.82227 13.5356 10.8223V15.7498H16.4981V9.80227C16.4981 5.17477 11.2031 5.34727 9.95813 7.61977L9.98812 6.35977Z" fill="white"/>
</svg>
