<svg version="1.2" xmlns="http://www.w3.org/2000/svg" viewBox="0 0 512 512" width="70" height="70">
	<style>
		.s0 { fill: #ffffff } 
	</style>
	<g>
		<path class="s0" d="m262.95 0c-140.35 0.02-214.95 89.94-214.95 187.99 0 45.46 25.41 102.19 66.09 120.17 11.61 5.23 10.07-1.15 20.05-39.34q0.35-1.16 0.38-2.36 0.03-1.21-0.26-2.38-0.29-1.17-0.87-2.23-0.58-1.06-1.42-1.92c-58.16-67.27-11.35-205.55 122.69-205.55 193.98 0 157.73 268.41 33.75 268.41-31.96 0-55.77-25.08-48.24-56.12 9.13-36.97 27.01-76.72 27.01-103.36 0-67.16-100.05-57.2-100.05 31.78 0 27.5 9.72 46.06 9.72 46.06 0 0-32.19 130.05-38.16 154.35-10.11 41.13 1.36 107.71 2.37 113.45 0.61 3.16 4.16 4.16 6.14 1.56 3.18-4.16 42.09-59.67 52.99-99.8 3.97-14.61 20.25-73.92 20.25-73.92 10.73 19.37 41.66 35.58 74.62 35.58 98.05 0 168.92-86.18 168.92-193.13-0.34-102.53-88.09-179.24-201.03-179.24z"/>
	</g>
</svg>