<svg version="1.2" xmlns="http://www.w3.org/2000/svg" viewBox="0 0 522 372" width="60" height="43">
	<style>
		.s0 { fill: #ffffff } 
	</style>
	<g>
		<path class="s0" d="m265.98 371.49h-0.14c-15.45-0.1-152.02-1.35-190.72-11.81-27.04-7.27-48.39-28.6-55.68-55.64-10.12-38.02-9.48-111.2-9.41-117.05-0.07-5.81-0.72-79.6 9.38-117.93q0.02-0.05 0.03-0.1c7.21-26.74 29.04-48.73 55.61-56.02q0.11-0.02 0.21-0.05c38.26-10.05 175.1-11.29 190.58-11.39h0.28c15.49 0.1 152.43 1.35 190.77 11.83 26.97 7.25 48.3 28.55 55.61 55.56 10.51 38.35 9.53 112.3 9.43 118.54 0.07 6.15 0.69 78.68-9.38 116.88q-0.01 0.06-0.03 0.11c-7.29 27.05-28.63 48.37-55.71 55.65q-0.05 0.02-0.11 0.03c-38.25 10.05-175.1 11.28-190.58 11.39 0 0-0.14 0-0.14 0zm-207.91-292.17c-8.89 33.83-8.05 106.68-8.04 107.41v0.53c-0.26 20.21 0.67 78.71 8.05 106.42 3.58 13.27 14.1 23.78 27.45 27.37 28.55 7.73 139.79 10.16 180.45 10.44 40.76-0.28 152.16-2.65 180.5-10.06 13.31-3.6 23.8-14.08 27.41-27.36 7.38-28.12 8.31-86.34 8.04-106.42q0-0.31 0-0.63c0.37-20.45-0.35-79.64-8.01-107.57q0-0.01 0-0.02-0.01-0.01-0.01-0.02 0-0.01 0-0.02-0.01-0.01-0.01-0.02c-3.59-13.33-14.12-23.84-27.47-27.43-28.28-7.73-139.7-10.15-180.45-10.44-40.73 0.29-152.03 2.65-180.45 10.05-13.1 3.63-23.87 14.52-27.46 27.77zm435.14 219.9h0.01zm-278.21-31.73v-161.99l140 81z"/>
	</g>
</svg>