<svg xmlns="http://www.w3.org/2000/svg" version="1.1" xmlns:xlink="http://www.w3.org/1999/xlink" width="512" height="512" x="0" y="0" viewBox="0 0 512 512" style="enable-background:new 0 0 512 512" xml:space="preserve" class=""><g><path d="M339.811 326.9h-16.968c-8.046-.318-14.26-6.771-14.26-14.817V295.91l19.199-19.119c12.188-12.348 20.314-20.553 20.474-40.629 3.186-.159 6.373-1.354 9.4-3.505 7.727-5.497 13.702-16.49 15.853-29.396 2.31-12.906.478-25.174-4.939-32.901-2.311-3.346-5.258-5.656-8.206-6.772v-.239c10.197-28.042 20.235-68.352 5.497-91.613-6.214-9.799-15.933-15.455-28.918-16.968-12.03-31.308-38.319-50.029-72.733-51.623-47.4-1.832-94.8 28.998-115.513 76.079-7.887 23.341-8.603 52.737-2.23 89.781-6.055 7.329-8.365 20.155-6.055 34.255 3.425 18.881 13.861 32.105 25.253 32.901.159 20.155 8.365 28.44 20.713 40.788l19.039 19.04v16.092c0 8.046-6.293 14.499-14.817 14.817h-16.49c-68.67 0-124.515 55.844-124.515 124.515v27.644c0 16.49 13.383 29.874 29.874 29.874h355.062c16.491 0 29.874-13.384 29.874-29.874v-27.644c0-68.669-55.924-124.513-124.594-124.513zm-144.988-58.314c-11.791-11.87-17.208-17.287-17.208-32.98v-6.772c0-4.461-4.78-7.409-8.843-5.258-7.409 4.063-14.897-12.985-16.57-22.306-1.354-7.966-.796-14.738.797-19.438 2.39 1.752 5.337 2.788 8.444 2.788h1.832c7.648 0 14.021-6.055 14.499-13.543l1.832-17.127c.478-7.966 6.772-14.42 14.499-15.136 38.318-3.425 77.513-8.922 104.28-25.97 3.664-2.31 8.125-2.948 12.507-1.752a17.187 17.187 0 0 1 10.754 9.081c7.648 15.614 9.321 28.122 6.293 47.161-.239 1.115-.239 2.071-.239 2.708 0 8.046 6.453 14.579 14.499 14.579 5.975 0 11.232-3.585 13.463-9.082.079-.239.159-.478.239-.637 1.036.319 1.992 1.036 2.948 2.39 3.505 4.939 4.621 14.339 2.868 23.978-1.992 11.631-7.169 18.881-10.993 21.589-1.036.797-2.629 1.593-3.983 1.354-.478-.079-.877-.239-1.593-.637-1.912-1.036-4.143-.956-5.895.159-1.833 1.036-2.948 3.027-2.948 5.099v6.772c0 15.534-5.338 20.951-17.048 32.742l-20.792 20.872c-.08 0-.08 0-.08.08l-10.835 10.754c-5.178 5.178-12.188 8.046-19.597 8.046h-21.987c-7.249 0-14.26-2.868-19.598-8.046l-10.754-10.675c0-.08 0-.08-.08-.08zm70.184 179.323c0 4.381-3.585 7.966-7.966 7.966a7.939 7.939 0 0 1-7.966-7.966v-11.87a7.939 7.939 0 0 1 7.966-7.966c4.381 0 7.966 3.585 7.966 7.966zm-8.047-62.855c-28.52 0-52.817-19.995-58.712-47.4 11.073-3.266 19.119-13.384 19.119-25.572v-4.143l.637.637c7.648 7.409 17.606 11.472 27.962 11.472h21.987c10.675 0 20.633-4.063 28.041-11.551l.637-.637v4.222c0 12.109 7.966 22.226 19.12 25.572-5.814 27.405-30.192 47.4-58.791 47.4z" fill="#0f3c78" opacity="1" data-original="#000000"></path></g></svg>