<svg xmlns="http://www.w3.org/2000/svg" width="42" height="42" viewBox="0 0 42 42" fill="none">
  <path fillRule="evenodd" clipRule="evenodd" d="M8.75 4.77983C8.75 2.06967 21 0 21 0C21 0 33.25 2.06967 33.25 4.77983C33.25 8.393 31.0217 9.91667 31.0217 9.91667H10.9783C10.9783 9.91667 8.75 8.393 8.75 4.77983ZM22.75 5.25C22.75 5.71413 22.5656 6.15925 22.2374 6.48744C21.9092 6.81563 21.4641 7 21 7C20.5359 7 20.0908 6.81563 19.7626 6.48744C19.4344 6.15925 19.25 5.71413 19.25 5.25C19.25 4.78587 19.4344 4.34075 19.7626 4.01256C20.0908 3.68437 20.5359 3.5 21 3.5C21.4641 3.5 21.9092 3.68437 22.2374 4.01256C22.5656 4.34075 22.75 4.78587 22.75 5.25ZM30.1163 14.3267C31.738 13.0608 31.486 11.6667 31.486 11.6667H10.514C10.514 11.6667 10.2608 13.0608 11.8837 14.3267C11.5849 15.6897 11.5956 17.1023 11.9149 18.4606C12.2342 19.819 12.854 21.0884 13.7287 22.1756C14.6034 23.2627 15.7107 24.14 16.9692 24.7427C18.2276 25.3454 19.6052 25.6582 21.0006 25.6582C22.3959 25.6582 23.7735 25.3454 25.032 24.7427C26.2905 24.14 27.3978 23.2627 28.2725 22.1756C29.1472 21.0884 29.767 19.819 30.0863 18.4606C30.4056 17.1023 30.4162 15.6897 30.1175 14.3267M21 16.3333C24.1745 16.3333 26.3947 15.967 27.944 15.4397C27.9806 15.7321 27.9992 16.03 28 16.3333C27.9986 17.2894 27.8014 18.2351 27.4205 19.1121C27.0396 19.9891 26.483 20.7787 25.7852 21.4323C25.0873 22.0859 24.263 22.5896 23.363 22.9124C22.463 23.2351 21.5065 23.3701 20.5523 23.3089C19.5981 23.2478 18.6666 22.9918 17.8152 22.5568C16.9638 22.1218 16.2105 21.517 15.6018 20.7796C14.9931 20.0423 14.5419 19.1881 14.2761 18.2697C14.0102 17.3513 13.9353 16.3881 14.056 15.4397C15.6065 15.967 17.8243 16.3333 21 16.3333ZM22.75 28C23.0594 28 23.3562 28.1229 23.575 28.3417C23.7938 28.5605 23.9167 28.8572 23.9167 29.1667V30.779C23.9165 30.9956 23.8561 31.2079 23.7422 31.3921C23.6282 31.5763 23.4653 31.7252 23.2715 31.822L22.75 32.0833L23.4232 35.4492L28.3698 28.0292C28.7089 28.0292 29.0216 28.0307 29.3078 28.0338C35.6137 29.4723 42 32.4053 42 36.8177V42H0V36.8177C0 32.4053 6.66633 29.4385 12.971 28C12.9488 28.0047 13.1857 28.0082 13.6185 28.0117L18.6165 35.5075L19.25 32.0833L18.7285 31.822C18.5347 31.7252 18.3718 31.5763 18.2578 31.3921C18.1439 31.2079 18.0834 30.9956 18.0833 30.779V29.1667C18.0833 28.8572 18.2062 28.5605 18.425 28.3417C18.6438 28.1229 18.9406 28 19.25 28H22.75ZM33.8333 34.2218C33.8333 34.2218 32.2782 33.4448 31.5 32.6667C30.7218 33.4448 29.1667 34.2218 29.1667 34.2218C29.1667 34.2218 29.981 37.3333 31.5 37.3333C33.019 37.3333 33.8333 34.2218 33.8333 34.2218Z" fill="#183E60"/>
</svg>