<svg xmlns="http://www.w3.org/2000/svg" version="1.1" xmlns:xlink="http://www.w3.org/1999/xlink" width="42" height="42" x="0" y="0" viewBox="0 0 512 512" style="enable-background:new 0 0 512 512" xml:space="preserve" class=""><g><path d="m490.512 150.839-52.271-31.274-11.777-48.75c-5.229-21.621-25.254-36.035-47.212-34.307l-59.81 4.629-34.262-30.336c-16.875-14.399-41.426-14.399-58.359-.015l-34.263 30.35-59.81-4.629c-21.709-1.523-41.997 12.7-46.67 32.534l-17.3 53.774-47.282 28.008c-18.94 11.631-26.528 34.98-18.047 55.518l20.405 49.453-20.39 49.439c-8.496 20.552-.894 43.887 18.032 55.503l52.218 31.055 11.821 48.97c5.2 21.606 25.137 35.947 47.212 34.307l59.165-4.57 34.907 30.692C235.272 508.396 245.629 512 256 512c10.356 0 20.728-3.604 29.18-10.811l34.907-30.692 59.165 4.57c22.354 1.772 42.012-12.686 47.212-34.307l11.777-48.75 52.271-31.274c18.911-11.616 26.499-34.951 18.032-55.503l-20.405-49.438 20.42-49.468c8.467-20.522.879-43.872-18.047-55.488zM256 421c-90.981 0-165-74.019-165-165S165.019 91 256 91s165 74.019 165 165-74.019 165-165 165z" fill="#183e60" opacity="1" data-original="#000000" class=""></path><path d="M256 121c-74.443 0-135 60.557-135 135s60.557 135 135 135 135-60.557 135-135-60.557-135-135-135zm85.605 100.605-90 90c-2.93 2.93-6.768 4.395-10.605 4.395s-7.676-1.465-10.605-4.395l-60-60c-5.859-5.859-5.859-15.352 0-21.211s15.352-5.859 21.211 0L241 279.789l79.395-79.395c5.859-5.859 15.352-5.859 21.211 0s5.859 15.352-.001 21.211z" fill="#183e60" opacity="1" data-original="#000000" class=""></path></g></svg>