<svg xmlns="http://www.w3.org/2000/svg" version="1.1" xmlns:xlink="http://www.w3.org/1999/xlink" width="512" height="512" x="0" y="0" viewBox="0 0 100 100" style="enable-background:new 0 0 512 512" xml:space="preserve" class=""><g><g fill="#000"><path d="M6.511 10C5.677 10 5 10.68 5 11.519V34.3c0 3.355 2.707 6.075 6.045 6.075v22.781c0 8.666-1.215 13.466-2.104 16.98-.513 2.028-.918 3.627-.918 5.295 0 3.076 2.48 5.569 5.541 5.569s5.542-2.493 5.542-5.569c0-1.668-.405-3.267-.919-5.296-.889-3.514-2.104-8.313-2.104-16.979V40.375c3.339 0 6.045-2.72 6.045-6.075V11.519c0-.839-.676-1.519-1.51-1.519s-1.512.68-1.512 1.519v15.693a2.02 2.02 0 0 1-2.015 2.025 2.02 2.02 0 0 1-2.015-2.025V11.52c0-.839-.677-1.519-1.512-1.519s-1.511.68-1.511 1.519v15.693a2.02 2.02 0 0 1-2.015 2.025 2.02 2.02 0 0 1-2.015-2.025V11.52C8.023 10.68 7.346 10 6.51 10zM95 84.925V10.997c0-.56-.464-1.001-.977-.784-3.046 1.287-7.39 8.676-10.106 29.15-.94 7.08.262 8.101 2.062 9.63.906.77 1.964 1.667 2.976 3.532 2.09 3.85.326 15.449-.962 23.911-.574 3.776-1.053 6.927-1.053 8.489 0 5.063 2.015 6.075 4.03 6.075S95 89.481 95 84.925zM73.252 50.5c0 11.598-9.356 21-20.897 21s-20.897-9.402-20.897-21 9.356-21 20.897-21 20.897 9.402 20.897 21z" fill="#0f3c78" opacity="1" data-original="#000000"></path><path fill-rule="evenodd" d="M52.355 78.85c15.58 0 28.212-12.693 28.212-28.35S67.935 22.15 52.354 22.15 24.143 34.843 24.143 50.5s12.631 28.35 28.212 28.35zM74.297 50.5c0 12.178-9.824 22.05-21.942 22.05S30.413 62.678 30.413 50.5s9.824-22.05 21.942-22.05 21.942 9.872 21.942 22.05z" clip-rule="evenodd" fill="#0f3c78" opacity="1" data-original="#000000"></path></g></g></svg>