<svg xmlns="http://www.w3.org/2000/svg" width="40" height="37" viewBox="0 0 40 37" fill="none">
  <path d="M13.8797 0C12.5262 0.331348 10.742 1.40977 9.22149 2.91533C7.53398 4.59668 6.1541 6.75 5.74277 8.5957L5.6918 20.4873L5.72432 34.3213L13.9852 30.7793L13.8797 0ZM25.1297 0L25.0242 30.7793L33.2859 34.3213L33.3211 20.54L33.2684 8.5957C32.8553 6.75 31.4842 4.59668 29.7879 2.91533C28.2674 1.40977 26.4832 0.331348 25.1297 0ZM2.03555 2.6956C1.29814 2.6956 0.717188 3.27832 0.717188 4.0166C0.717188 4.75488 1.29814 5.33496 2.03555 5.33496C2.77295 5.33496 3.35391 4.75488 3.35391 4.0166C3.35391 3.27832 2.77295 2.6956 2.03555 2.6956ZM36.9773 2.6956C36.2391 2.6956 35.659 3.27832 35.659 4.0166C35.659 4.75488 36.2391 5.33496 36.9773 5.33496C37.7156 5.33496 38.2957 4.75488 38.2957 4.0166C38.2957 3.27832 37.7156 2.6956 36.9773 2.6956ZM0.124805 6.91699L0 36.2725H4.04297L4.16777 6.91699H0.124805ZM34.8416 6.91699L34.9734 36.2725H39.0164L38.8846 6.91699H34.8416ZM10.9969 14.6777H12.5789V18.8965H10.9969V14.6777ZM26.4305 14.6777H28.0125V18.8965H26.4305V14.6777Z" fill="#183E60"/>
</svg>