<svg xmlns="http://www.w3.org/2000/svg" version="1.1" xmlns:xlink="http://www.w3.org/1999/xlink" width="512" height="512" x="0" y="0" viewBox="0 0 100 100" style="enable-background:new 0 0 512 512" xml:space="preserve" class=""><g><path d="M97.5 27.5V13.25a4.75 4.75 0 0 0-4.75-4.75H7.25a4.75 4.75 0 0 0-4.75 4.75V27.5a4.75 4.75 0 0 0 4.75 4.75V82a4.75 4.75 0 1 0 0 9.5H31a4.75 4.75 0 0 0 0-9.5V61.188c0-9.852 7.326-18.397 17.131-19.347C59.411 40.747 69 49.683 69 60.75V82a4.75 4.75 0 0 0 0 9.5h23.75a4.75 4.75 0 0 0 0-9.5V32.25a4.75 4.75 0 0 0 4.75-4.75z" fill="#0f3c78" opacity="1" data-original="#000000"></path></g></svg>