<svg xmlns="http://www.w3.org/2000/svg" version="1.1" xmlns:xlink="http://www.w3.org/1999/xlink" width="512" height="512" x="0" y="0" viewBox="0 0 100 100" style="enable-background:new 0 0 512 512" xml:space="preserve" class=""><g><path d="M98.43 43.19c0-.05-.01-.09-.02-.14V2.96c0-.83-.67-1.5-1.5-1.5H2.96c-.83 0-1.5.67-1.5 1.5v75.22c0 .2.04.39.11.57v18.29c0 .83.67 1.5 1.5 1.5h93.86c.83 0 1.5-.67 1.5-1.5v-19.3c0-.05-.01-.1-.02-.14V43.33a.59.59 0 0 0 .02-.14zM95.41 4.46v37.23h-3.08c-.33-2.1-.97-4.16-1.97-6.09a16.768 16.768 0 0 1-1.83-6.47L86.61 4.46zM58.05 51.48v24.76h-16.1V51.48zM85 76.24l6.87-26.29c.47-1.73.7-3.5.7-5.26h2.84v31.55zM16.4 4.46h4.19v4.32c0 .83.67 1.5 1.5 1.5s1.5-.67 1.5-1.5V4.46h15.73v4.32c0 .83.67 1.5 1.5 1.5s1.5-.67 1.5-1.5V4.46h15.73v4.32c0 .83.67 1.5 1.5 1.5.82 0 1.5-.67 1.5-1.5V4.46h15.72v4.32c0 .83.68 1.5 1.5 1.5.83 0 1.5-.67 1.5-1.5V4.46h3.83l.45 5.78c-2.49.12-3.85 1.36-4.95 2.38-1 .93-1.72 1.6-3.28 1.6-1.57 0-2.29-.67-3.29-1.6-1.15-1.07-2.58-2.4-5.32-2.4s-4.18 1.33-5.33 2.4c-1 .93-1.72 1.6-3.28 1.6-1.57 0-2.29-.67-3.29-1.6-1.15-1.07-2.58-2.4-5.32-2.4s-4.18 1.33-5.33 2.4c-1 .93-1.72 1.6-3.28 1.6s-2.28-.67-3.28-1.6c-1.15-1.07-2.58-2.4-5.33-2.4s-4.17 1.33-5.32 2.4c-1 .93-1.72 1.6-3.28 1.6s-2.28-.67-3.28-1.6c-1.1-1.02-2.46-2.26-4.94-2.38l.45-5.78zm-.68 8.77c1.45.04 2.16.69 3.13 1.59 1.15 1.07 2.58 2.4 5.32 2.4s4.17-1.33 5.32-2.4c1-.93 1.72-1.6 3.28-1.6 1.57 0 2.29.67 3.29 1.6 1.15 1.07 2.58 2.4 5.32 2.4s4.17-1.33 5.32-2.4c1-.93 1.72-1.6 3.29-1.6 1.56 0 2.28.67 3.28 1.6 1.15 1.07 2.59 2.4 5.33 2.4s4.17-1.33 5.32-2.4c1-.93 1.72-1.6 3.29-1.6 1.56 0 2.28.67 3.28 1.6 1.15 1.07 2.59 2.4 5.33 2.4s4.17-1.33 5.33-2.4c.96-.9 1.68-1.55 3.13-1.59l1.26 16.13c.2 2.68.93 5.24 2.16 7.62a16.79 16.79 0 0 1 1.27 12.19L81.9 76.24H61.05V49.98c0-.83-.68-1.5-1.5-1.5H51.5v-3.41c1.74-.63 3-2.27 3-4.23v-2.91c0-2.48-2.02-4.5-4.5-4.5s-4.5 2.02-4.5 4.5v2.91c0 1.96 1.26 3.6 3 4.23v3.41h-8.05c-.83 0-1.5.67-1.5 1.5v26.26H18.09l-7.07-27.09a16.75 16.75 0 0 1 1.28-12.17c1.23-2.38 1.96-4.94 2.16-7.61l1.26-16.14zM4.46 4.46h8.93l-1.92 24.68a16.61 16.61 0 0 1-1.84 6.46c-.99 1.93-1.64 3.99-1.96 6.09H4.46zm0 40.23h2.97c0 1.76.22 3.52.69 5.24l6.87 26.31H4.46z" fill="#0f3c78" opacity="1" data-original="#000000" class=""></path></g></svg>