<svg xmlns="http://www.w3.org/2000/svg" version="1.1" xmlns:xlink="http://www.w3.org/1999/xlink" width="512" height="512" x="0" y="0" viewBox="0 0 64 64" style="enable-background:new 0 0 512 512" xml:space="preserve" class=""><g><path d="M54.8 44.48c.24-.42.73-.63 1.19-.48l2.35.77a.999.999 0 0 0 1.26-.65l2-6.12H51.08C48.54 46.12 40.96 52 32 52s-16.54-5.88-19.08-14H2.4l2 6.12c.17.53.73.82 1.26.65L8.01 44c.46-.15.95.06 1.19.48a25.66 25.66 0 0 0 3.88 5.35 1 1 0 0 1 .09 1.28l-1.45 2a.996.996 0 0 0 .22 1.4l4.85 3.52c.45.33 1.08.23 1.4-.22l1.45-2c.29-.39.81-.51 1.25-.31 1.97.94 4.08 1.64 6.28 2.05.48.09.83.5.83.98V61c0 .55.45 1 1 1h6c.55 0 1-.45 1-1v-2.47c0-.48.35-.89.83-.98 2.2-.41 4.31-1.11 6.28-2.05.44-.2.96-.08 1.25.31l1.45 2c.32.45.95.55 1.4.22l4.85-3.52c.45-.33.55-.95.22-1.4l-1.45-2a1 1 0 0 1 .09-1.28c1.51-1.6 2.82-3.4 3.88-5.35zM1 34h62v2H1zM3 17h8v15H3zM27 13h10v19H27zM53 18h8v14h-8zM39 13v19h12V2H39zm7-7h2v2h-2zm0 5h2v2h-2zm0 5h2v2h-2zM42 6h2v2h-2zm0 5h2v2h-2zm0 5h2v2h-2zM13 32h12V8l-6-5-6 5zm3-22h6v2h-6zm0 5h6v2h-6z" fill="#0f3c78" opacity="1" data-original="#000000"></path></g></svg>