<svg xmlns="http://www.w3.org/2000/svg" version="1.1" xmlns:xlink="http://www.w3.org/1999/xlink" width="512" height="512" x="0" y="0" viewBox="0 0 512 512" style="enable-background:new 0 0 512 512" xml:space="preserve" class=""><g><path d="M0 0h512v307H0zM196 337h-60.667c-24.75 0-45 16.875-45 37.5v7.5h15.334c24.508 0 46.306 10.636 60 27.047 13.694-16.411 35.492-27.047 60-27.047H241v-7.5c0-20.625-20.25-37.5-45-37.5zM376.667 337H316c-24.75 0-45 16.875-45 37.5v7.5h15.333c24.508 0 46.306 10.636 60 27.047 13.694-16.411 35.492-27.047 60-27.047h15.334v-7.5c0-20.625-20.25-37.5-45-37.5zM467 412h-60.667c-24.75 0-45 16.875-45 37.5V512H512v-62.5c0-20.625-20.25-37.5-45-37.5zM105.667 412H45c-24.75 0-45 16.875-45 37.5V512h150.667v-62.5c0-20.625-20.25-37.5-45-37.5zM286.333 412h-60.667c-24.75 0-45 16.875-45 37.5V512h150.667v-62.5c0-20.625-20.25-37.5-45-37.5z" fill="#0f3c78" opacity="1" data-original="#000000" class=""></path></g></svg>