<svg xmlns="http://www.w3.org/2000/svg" version="1.1" xmlns:xlink="http://www.w3.org/1999/xlink" width="42" height="42" x="0" y="0" viewBox="0 0 609.619 609.619" style="enable-background:new 0 0 512 512" xml:space="preserve" class=""><g><g fill-rule="evenodd" clip-rule="evenodd"><path d="M283.037 306.073c-6.012 0-10.886 4.874-10.886 10.886v87.088h65.316v-87.088c0-6.012-4.874-10.886-10.886-10.886z" fill="#183e60" opacity="1" data-original="#000000" class=""></path><path d="M424.556 404.048c6.012 0 10.886-4.874 10.886-10.886V243.925L304.809 127.009 174.177 243.925v149.237c0 6.012 4.874 10.886 10.886 10.886h65.316V316.96c0-18.037 14.622-32.658 32.658-32.658h43.544c18.037 0 32.658 14.622 32.658 32.658v87.088z" fill="#183e60" opacity="1" data-original="#000000" class=""></path><path d="M483.765 352.524a10.888 10.888 0 0 0-7.403-2.907h-19.149v43.544c0 18.037-14.622 32.658-32.658 32.658H185.063c-18.037 0-32.658-14.622-32.658-32.658v-43.544h-17.537a10.885 10.885 0 0 0-7.359 2.863L0 469.364h609.619zM435.442 110.125c0-6.012-4.874-10.886-10.886-10.886H413.67c-6.012 0-10.886 4.874-10.886 10.886v15.839l32.658 29.229zM137.926 232.048a10.888 10.888 0 0 0 15.665 1.187l143.957-128.891a10.887 10.887 0 0 1 14.522 0l144.175 128.978a10.887 10.887 0 0 0 15.545-1.089l.261-.305c3.802-4.486 3.354-11.181-1.012-15.121L319.288 80.504c-8.272-7.42-20.805-7.42-29.077 0L138.536 216.307a10.887 10.887 0 0 0-1.143 15.034zM0 491.136v32.658c0 6.012 4.874 10.886 10.886 10.886h587.847c6.012 0 10.886-4.874 10.886-10.886v-32.658z" fill="#183e60" opacity="1" data-original="#000000" class=""></path></g></g></svg>