<svg xmlns="http://www.w3.org/2000/svg" width="37" height="36" viewBox="0 0 37 36" fill="none">
  <path d="M20.2528 0C14.8071 0 10.0364 3.87054 9.00125 9.00125C4.05056 9.00125 0 13.0518 0 18.0025C0 20.3878 0.900125 22.4581 2.38533 24.0333C3.55549 23.0432 5.08571 22.5031 6.75094 22.5031C7.65106 22.5031 8.50618 22.7282 9.27129 23.0882C10.0364 20.2078 12.6017 18.0025 15.7522 18.0025C18.8576 18.0025 21.468 20.2078 22.2331 23.0882C22.9982 22.7732 23.8533 22.5031 24.7534 22.5031C27.5888 22.5031 29.9292 24.2584 30.9643 26.7337C33.8447 25.9686 36.05 23.3582 36.05 20.2528C36.05 17.3274 34.1597 14.447 31.5494 13.5019V11.2516C31.5494 9.77399 31.2583 8.31088 30.6929 6.94578C30.1275 5.58067 29.2987 4.34031 28.2539 3.29551C27.2091 2.2507 25.9687 1.42192 24.6036 0.856474C23.2385 0.29103 21.7754 0 20.2978 0L20.2528 0ZM15.0321 22.5031C14.5663 22.6597 14.1646 22.9644 13.8883 23.3708C13.612 23.7771 13.4763 24.2627 13.5019 24.7534V33.7547C13.5019 34.3515 13.739 34.9239 14.161 35.3459C14.583 35.7679 15.1554 36.005 15.7522 36.005C16.349 36.005 16.9214 35.7679 17.3434 35.3459C17.7654 34.9239 18.0025 34.3515 18.0025 33.7547V24.7534C18.0079 24.4205 17.9394 24.0906 17.8019 23.7873C17.6644 23.4841 17.4614 23.2151 17.2074 22.9999C16.9534 22.7846 16.6547 22.6284 16.3331 22.5425C16.0114 22.4566 15.6746 22.4431 15.3471 22.5031H15.0771H15.0321ZM6.03084 27.0037C5.56506 27.1603 5.16334 27.4651 4.88703 27.8714C4.61072 28.2777 4.47501 28.7633 4.50062 29.2541V33.7547C4.50062 34.3515 4.73771 34.9239 5.15973 35.3459C5.58174 35.7679 6.15412 36.005 6.75094 36.005C7.34776 36.005 7.92013 35.7679 8.34215 35.3459C8.76416 34.9239 9.00125 34.3515 9.00125 33.7547V29.2541C9.00669 28.9212 8.9382 28.5912 8.8007 28.2879C8.6632 27.9847 8.46012 27.7158 8.20611 27.5005C7.9521 27.2852 7.65349 27.129 7.33181 27.0431C7.01013 26.9572 6.67339 26.9438 6.34588 27.0037H6.07584H6.03084ZM24.0333 27.0037C23.5676 27.1603 23.1658 27.4651 22.8895 27.8714C22.6132 28.2777 22.4775 28.7633 22.5031 29.2541V33.7547C22.5031 34.3515 22.7402 34.9239 23.1622 35.3459C23.5842 35.7679 24.1566 36.005 24.7534 36.005C25.3503 36.005 25.9226 35.7679 26.3446 35.3459C26.7667 34.9239 27.0037 34.3515 27.0037 33.7547V29.2541C27.0092 28.9212 26.9407 28.5912 26.8032 28.2879C26.6657 27.9847 26.4626 27.7158 26.2086 27.5005C25.9546 27.2852 25.656 27.129 25.3343 27.0431C25.0126 26.9572 24.6759 26.9438 24.3484 27.0037H24.0783H24.0333Z" fill="#183E60"/>
</svg>