<svg xmlns="http://www.w3.org/2000/svg" version="1.1" xmlns:xlink="http://www.w3.org/1999/xlink" width="512" height="512" x="0" y="0" viewBox="0 0 512 512" style="enable-background:new 0 0 512 512" xml:space="preserve"><g><path fill-rule="evenodd" d="M440.271 221.819v5.973l-28.026-5.055V216.3l-126.763-24.944-8-1.574v8.646l-28.026-5.055v-9.107l-7.376-1.452a125.666 125.666 0 0 0 9.832-45.244L459.1 184.686v40.839l-18.831-3.706zM356 363.435v124.742h60.175V369.329zm-16-1.567-69.152-6.768v133.077H340zM229.255 205.987a126.216 126.216 0 0 1-67.368 48.613v233.577h92.961v-134.76a19.994 19.994 0 0 1-15.969-19.59V316.38a20 20 0 0 1 22.148-19.88l167.608 18.1a19.991 19.991 0 0 1 17.852 19.883v15.757a20 20 0 0 1-14.315 19.185v118.752H496V254.1l-266.745-48.115zm138.3-20.3a7.987 7.987 0 0 0 6.156 9.469l44.089 9.354a7.986 7.986 0 0 0 3.313-15.625l-44.089-9.352a7.985 7.985 0 0 0-9.469 6.156zm-46.348-18L270.355 156.9a7.987 7.987 0 0 0-3.312 15.626l50.851 10.786a7.986 7.986 0 0 0 3.313-15.625zM69.758 459.136v-86.842l-11.4 2.562v80.686zm-17.793-99.242 65.27-14.672c3-.671 2.342-4.174 2.342-6.539v-13.439a2.991 2.991 0 0 0-3.81-2.889L50.5 340.657a2.966 2.966 0 0 0-2.191 2.888v13.422a2.99 2.99 0 0 0 3.658 2.927zm55.592 3.9-21.8 4.9v95.482l21.8 6.872V363.8zm-61.379-38.543a18.968 18.968 0 0 0-13.871 18.294v13.422a18.989 18.989 0 0 0 10.051 16.76V450.5L16 442.19V292.919l62.438-42.408a125.632 125.632 0 0 0 47.546 9.28 126.9 126.9 0 0 0 19.9-1.563v224.906l-22.33-7.039V359.97a18.977 18.977 0 0 0 12.02-17.673v-17.053a19 19 0 0 0-24.129-18.3l-65.27 18.3zm79.806-301.428A109.985 109.985 0 1 1 16 133.807 109.985 109.985 0 0 1 125.984 23.823zM180.416 181.4H97.59a2.164 2.164 0 0 1 0-4.328l80.877-.03a7.972 7.972 0 0 0 7.781-6.251l11.705-52.345a17.487 17.487 0 0 0-17.035-21.269H89.68l-4.627-20.685a7.971 7.971 0 0 0-7.781-6.251l-15.742-.03a8 8 0 1 0 0 16h9.37l17.324 77.478A18.158 18.158 0 0 0 97.59 197.4h82.826a8 8 0 0 0 0-16zm-76.449-20.328h68.123l10.3-46.063a1.494 1.494 0 0 0-1.472-1.832H93.257l10.71 47.9zM258.49 337.808a3.988 3.988 0 0 1-3.611-3.981V316.38a3.984 3.984 0 0 1 4.43-3.978l167.608 18.109a3.985 3.985 0 0 1 3.57 3.976v15.757a3.983 3.983 0 0 1-4.389 3.981z" fill="#0f3c78" opacity="1" data-original="#000000"></path></g></svg>