<svg xmlns="http://www.w3.org/2000/svg" width="25" height="35" viewBox="0 0 25 35" fill="none">
  <path d="M20.8333 22.3958V18.2292H24.1875C24.6875 19.7083 25 21.125 25 22.3958H20.8333ZM19.9583 9.89583C19 8.41667 18.0208 7 17.0833 5.72917H16.6667V9.89583H19.9583ZM20.8333 18.2292V14.0625H16.6667V18.2292H20.8333ZM20.8333 11.3125V14.0625H22.375C21.875 13.1458 21.375 12.2083 20.8333 11.3125ZM12.5 26.5625V22.3958H16.6667V18.2292H12.5V14.0625H16.6667V9.89583H12.5V5.72917H16.6667V5.16667C14.375 2.10417 12.5 0 12.5 0C12.5 0 0 14.0625 0 22.3958C0 29.2917 5.60417 34.8958 12.5 34.8958V30.7292H16.6667V26.5625H12.5ZM16.6667 34.1667C18.2292 33.625 19.625 32.8125 20.8333 31.6875V30.7292H16.6667V34.1667ZM16.6667 26.5625H20.8333V22.3958H16.6667V26.5625ZM20.8333 30.7292H21.7917C22.9167 29.5208 23.7292 28.125 24.2708 26.5625H20.8333V30.7292Z" fill="#183E60"/>
</svg>