<svg xmlns="http://www.w3.org/2000/svg" version="1.1" xmlns:xlink="http://www.w3.org/1999/xlink" width="512" height="512" x="0" y="0" viewBox="0 0 32 32" style="enable-background:new 0 0 512 512" xml:space="preserve" class=""><g><path d="M7.247 23.586h17.507a2.38 2.38 0 0 0 2.38-2.379V6.828a5.95 5.95 0 0 0-5.95-5.951H10.816a5.95 5.95 0 0 0-5.949 5.951v14.379a2.38 2.38 0 0 0 2.38 2.379zm15.199-3.272a1.588 1.588 0 1 1 .002-3.176 1.588 1.588 0 0 1-.002 3.176zm1.586-13.289v6.545H17.25V7.025zm-16.064 0h6.781v6.545H7.968zm1.587 10.116a1.587 1.587 0 1 1-.001 3.173 1.587 1.587 0 0 1 .001-3.173zM25.254 31.123h2.991l-4.395-5.752h-2.992l1.194 1.563H9.947l1.194-1.563H8.15l-4.395 5.752h2.99L8.291 29.1h15.418z" fill="#0f3c78" opacity="1" data-original="#000000"></path></g></svg>