<svg xmlns="http://www.w3.org/2000/svg" version="1.1" xmlns:xlink="http://www.w3.org/1999/xlink" width="512" height="512" x="0" y="0" viewBox="0 0 200 200" style="enable-background:new 0 0 512 512" xml:space="preserve" class=""><g><path d="M71.198 164.151s-11.49 17.509-11.49 23.854 5.144 11.49 11.49 11.49 11.49-5.144 11.49-11.49-11.49-23.853-11.49-23.853zM68.06 181.22c-1.751 3.882-2.12 5.833-2.12 6.787 0 1.586.388 3.16 1.121 4.554a1.699 1.699 0 1 1-3.007 1.582c-.99-1.879-1.513-4-1.513-6.136 0-1.9.792-4.576 2.42-8.186a1.7 1.7 0 1 1 3.098 1.399zM113.3 81.822l14.996-.093c2.991-.018 5.4-2.458 5.382-5.449s-2.448-5.465-5.45-5.382l-15.143.094c-2.159-4.764-6.945-8.084-12.515-8.084-5.63 0-10.465 3.391-12.589 8.24l-14.534.09a5.416 5.416 0 0 0 .033 10.831h.034L87.9 81.98a13.792 13.792 0 0 0 5.902 6.623v11.07h-5.302a4.062 4.062 0 0 0-4.062 4.061v2.238c-14.882.284-26.865 12.415-26.865 27.365v8.24h27.742a10.937 10.937 0 0 1 10.605-8.24h34.349v-27.391h-12.962v-2.212a4.062 4.062 0 0 0-4.061-4.061h-5.905v-11.07a13.785 13.785 0 0 0 5.96-6.78zM142.976 138.722h-4.957a3 3 0 0 1-3-3v-32.348a3 3 0 0 1 3-3h4.957a3 3 0 0 1 3 3v32.348a3 3 0 0 1-3 3zM90.372 148.937v4.956a3 3 0 0 1-3 3H55.024a3 3 0 0 1-3-3v-4.956a3 3 0 0 1 3-3h32.348a3 3 0 0 1 3 3z" fill="#183e60" opacity="1" data-original="#000000" class=""></path><path d="M192.569 99.766a6.975 6.975 0 0 1-4.811-1.915l-84.87-80.307a4.2 4.2 0 0 0-5.775 0L12.243 97.85a7 7 0 0 1-9.898-.274 7 7 0 0 1 .273-9.897l89.74-84.916c4.289-4.054 11.002-4.05 15.282 0l89.742 84.916a7 7 0 0 1-4.813 12.086zM138.048 22.114V10.704a1.4 1.4 0 0 1 1.4-1.4h25.206a1.4 1.4 0 0 1 1.4 1.4v36c0 1.222-1.456 1.858-2.352 1.027l-24.309-22.535a4.2 4.2 0 0 1-1.345-3.08z" fill="#183e60" opacity="1" data-original="#000000" class=""></path></g></svg>