<svg xmlns="http://www.w3.org/2000/svg" version="1.1" xmlns:xlink="http://www.w3.org/1999/xlink" width="512" height="512" x="0" y="0" viewBox="0 0 512 512" style="enable-background:new 0 0 512 512" xml:space="preserve" class=""><g><path d="M0 120.904v119.953c0 8.284 6.716 15 15 15s15-6.716 15-15l.866-168.948C12.623 80.68 0 99.344 0 120.904zM481.134 71.909 482 209.044v31.813c0 8.284 6.716 15 15 15s15-6.716 15-15V120.904c0-21.56-12.623-40.224-30.866-48.995zM406.134 20.375H105.866c-24.813 0-45 20.187-45 45v321.298c0 20.051 13.184 37.075 31.337 42.873v21.466c0 3.307.407 6.519 1.156 9.598 4.325 17.776 20.37 31.016 39.458 31.016 18.705 0 34.489-12.715 39.184-29.953.926-3.4 1.43-6.972 1.43-10.661v-19.339H338.57v19.339c0 3.689.504 7.261 1.43 10.661 4.696 17.238 20.479 29.953 39.185 29.953 19.087 0 35.132-13.24 39.457-31.016a40.558 40.558 0 0 0 1.156-9.598v-21.467h-.001c18.152-5.798 31.337-22.822 31.337-42.873V65.375c0-24.813-20.187-45-45-45zM156.356 353.816c0 8.284-6.716 15-15 15s-15-6.716-15-15V317.84c0-8.284 6.716-15 15-15s15 6.716 15 15v35.976zm229.288.001c0 8.284-6.716 15-15 15s-15-6.716-15-15v-35.976c0-8.284 6.716-15 15-15s15 6.716 15 15v35.976zm35.49-123.676H90.866v-111.04h330.268v111.04z" fill="#0f3c78" opacity="1" data-original="#000000" class=""></path></g></svg>