<svg width="28" height="28" viewBox="0 0 28 28" fill="none" xmlns="http://www.w3.org/2000/svg">
<path d="M16.3333 5.8335C16.6352 5.83349 16.9255 5.95059 17.1429 6.16016L17.2444 6.271L21.5599 11.6668H22.1666C23.0593 11.6668 23.9184 12.0079 24.5679 12.6203C25.2174 13.2328 25.6084 14.0703 25.6608 14.9615L25.6666 15.1668V19.8335C25.6666 20.1429 25.5437 20.4397 25.3249 20.6585C25.1061 20.8772 24.8093 21.0002 24.4999 21.0002H23.1338C22.8922 21.6825 22.4452 22.2732 21.8541 22.691C21.2631 23.1087 20.5571 23.3331 19.8333 23.3331C19.1095 23.3331 18.4034 23.1087 17.8124 22.691C17.2213 22.2732 16.7743 21.6825 16.5328 21.0002H11.4671C11.2256 21.6825 10.7785 22.2732 10.1875 22.691C9.5964 23.1087 8.89039 23.3331 8.16659 23.3331C7.44278 23.3331 6.73677 23.1087 6.14571 22.691C5.55466 22.2732 5.1076 21.6825 4.86609 21.0002H3.49992C3.1905 21.0002 2.89375 20.8772 2.67496 20.6585C2.45617 20.4397 2.33325 20.1429 2.33325 19.8335V12.8335L2.34142 12.697L2.35075 12.6317L2.37059 12.5407L2.38459 12.4987L2.40092 12.4403L4.75059 6.56733C4.83708 6.35084 4.98644 6.16523 5.17941 6.03443C5.37239 5.90363 5.60013 5.83364 5.83325 5.8335H16.3333ZM8.16659 18.6668C7.85717 18.6668 7.56042 18.7897 7.34163 19.0085C7.12284 19.2273 6.99992 19.5241 6.99992 19.8335C6.99992 20.1429 7.12284 20.4397 7.34163 20.6585C7.56042 20.8772 7.85717 21.0002 8.16659 21.0002C8.47601 21.0002 8.77275 20.8772 8.99154 20.6585C9.21034 20.4397 9.33325 20.1429 9.33325 19.8335C9.33325 19.5241 9.21034 19.2273 8.99154 19.0085C8.77275 18.7897 8.47601 18.6668 8.16659 18.6668ZM19.8333 18.6668C19.5238 18.6668 19.2271 18.7897 19.0083 19.0085C18.7895 19.2273 18.6666 19.5241 18.6666 19.8335C18.6666 20.1429 18.7895 20.4397 19.0083 20.6585C19.2271 20.8772 19.5238 21.0002 19.8333 21.0002C20.1427 21.0002 20.4394 20.8772 20.6582 20.6585C20.877 20.4397 20.9999 20.1429 20.9999 19.8335C20.9999 19.5241 20.877 19.2273 20.6582 19.0085C20.4394 18.7897 20.1427 18.6668 19.8333 18.6668ZM12.8333 8.16683H6.62192L5.22192 11.6668H12.8333V8.16683ZM15.7733 8.16683H15.1666V11.6668H18.5733L15.7733 8.16683Z" fill="#183E60"/>
</svg>
