<svg xmlns="http://www.w3.org/2000/svg" version="1.1" xmlns:xlink="http://www.w3.org/1999/xlink" width="512" height="512" x="0" y="0" viewBox="0 0 512 512" style="enable-background:new 0 0 512 512" xml:space="preserve" class=""><g><path fill-rule="evenodd" d="M482.81 27.93C290.18 48.9 159.98 101.24 84.88 187.83c-69.5 80.15-79.19 191.1-26.18 297.42h300.91c-32.81-28.72-58.44-64.77-74.61-105.14-17.17-42.87-21.66-86.33-12.64-122.38 19.12-76.4 95.74-146.92 210.45-193.87zm-110.3 270.21v8.13h-70.54v-8.13zm-16.8-12h-36.92v-63.87h36.92zm45.46-96.72h70.54v8.13h-70.54zm-45.46 20.85h-36.92v-18.26c10.4-13.39 22.76-26.35 36.92-38.77zm99.2-72.6v39.76h-36.93v-39.76zm0-48.3v36.3h-36.93v-16.73c11.67-6.82 24-13.35 36.93-19.57zM167.86 231.24c3.27-6.62 6.91-13.19 10.83-19.51a5.99 5.99 0 0 1 8.26-1.94 5.99 5.99 0 0 1 1.94 8.26c-3.71 5.99-7.17 12.22-10.27 18.5a5.99 5.99 0 0 1-8.03 2.73c-2.97-1.46-4.19-5.07-2.73-8.04zm-18.91 54.81c1.5-7.11 3.34-14.19 5.46-21.05a6 6 0 0 1 7.51-3.96c3.16.98 4.93 4.34 3.95 7.51a225.69 225.69 0 0 0-5.17 19.97 6.01 6.01 0 0 1-5.87 4.76c-.41 0-.82-.04-1.24-.13-3.24-.67-5.32-3.85-4.64-7.1zm1.5 30.78c3.31.19 5.84 3.03 5.64 6.34-.4 6.73-.52 13.64-.37 20.53a6 6 0 0 1-5.87 6.13h-.14c-3.25 0-5.92-2.6-5.99-5.87-.16-7.21-.02-14.44.39-21.49.2-3.31 3.02-5.82 6.34-5.64zm1.5 57.1a5.998 5.998 0 0 1 6.82 5.04c.95 6.4 2.14 12.93 3.54 19.4.7 3.24-1.36 6.43-4.6 7.13-.43.09-.85.13-1.27.13a6 6 0 0 1-5.86-4.73c-1.45-6.72-2.69-13.51-3.68-20.16-.49-3.27 1.77-6.32 5.05-6.81zm48.4-182.57a6.003 6.003 0 0 1-.72-8.45 277.418 277.418 0 0 1 15.42-16.78c2.33-2.35 6.13-2.35 8.48-.01s2.35 6.14.01 8.49c-4.36 4.37-8.57 8.9-12.52 13.46-.75.86-1.49 1.72-2.21 2.58a5.977 5.977 0 0 1-4.59 2.13 6.028 6.028 0 0 1-3.87-1.42zm-28.49 241.95c1.97 5.94 4.14 11.99 6.46 17.96a6.007 6.007 0 0 1-5.59 8.18 5.99 5.99 0 0 1-5.59-3.83c-2.4-6.17-4.64-12.4-6.67-18.54a6.002 6.002 0 0 1 3.81-7.58c3.15-1.04 6.54.66 7.58 3.81zm68.37-282.07a5.994 5.994 0 0 1 .95-8.43c5.73-4.56 11.78-9.07 17.99-13.39 2.72-1.89 6.46-1.23 8.35 1.49a5.989 5.989 0 0 1-1.49 8.35c-6 4.18-11.85 8.53-17.37 12.93a6.004 6.004 0 0 1-3.74 1.31c-1.76 0-3.51-.77-4.69-2.26zm52.04-29.61c-2.08 0-4.11-1.09-5.21-3.02a5.996 5.996 0 0 1 2.23-8.19c6.61-3.79 13.56-7.52 20.64-11.12 2.96-1.5 6.57-.32 8.07 2.63a6 6 0 0 1-2.64 8.07c-6.9 3.5-13.67 7.15-20.12 10.83-.93.55-1.95.8-2.97.8zm50.77-25.16c-2.33 0-4.54-1.36-5.52-3.63-1.31-3.04.1-6.58 3.14-7.89 6.48-2.79 13.19-5.53 19.93-8.16 3.09-1.2 6.57.32 7.77 3.41s-.33 6.57-3.41 7.77c-6.62 2.58-13.19 5.27-19.54 8.01-.78.33-1.58.49-2.37.49zm47.17-24.14a6.002 6.002 0 0 1 3.79-7.59c6.53-2.18 13.25-4.32 19.99-6.38 3.17-.97 6.52.82 7.49 3.99s-.82 6.52-3.99 7.49c-6.64 2.03-13.26 4.14-19.69 6.28a5.993 5.993 0 0 1-7.59-3.79z" clip-rule="evenodd" fill="#0f3c78" opacity="1" data-original="#000000" class=""></path></g></svg>