<svg width="28" height="28" viewBox="0 0 28 28" fill="none" xmlns="http://www.w3.org/2000/svg">
<path d="M24.5001 23.3335H26.8334V25.6668H1.16675V23.3335H3.50008V3.50016C3.50008 3.19074 3.623 2.894 3.84179 2.6752C4.06058 2.45641 4.35733 2.3335 4.66675 2.3335H23.3334C23.6428 2.3335 23.9396 2.45641 24.1584 2.6752C24.3772 2.894 24.5001 3.19074 24.5001 3.50016V23.3335ZM12.8334 9.3335H10.5001V11.6668H12.8334V14.0002H15.1667V11.6668H17.5001V9.3335H15.1667V7.00016H12.8334V9.3335ZM16.3334 23.3335H18.6667V16.3335H9.33341V23.3335H11.6667V18.6668H16.3334V23.3335Z" fill="#183E60"/>
</svg>
