<svg xmlns="http://www.w3.org/2000/svg" version="1.1" xmlns:xlink="http://www.w3.org/1999/xlink" width="512" height="512" x="0" y="0" viewBox="0 0 512.001 512.001" style="enable-background:new 0 0 512 512" xml:space="preserve" class=""><g><path d="M494.769 352.492c-14.978 0-29.67-6.452-42.488-18.661-9.655-9.194-24.775-9.19-34.427.003-12.81 12.205-27.498 18.656-42.473 18.656-14.975 0-29.663-6.45-42.48-18.653-9.647-9.184-24.764-9.185-34.415.001-12.815 12.202-27.503 18.65-42.478 18.65-14.977 0-29.67-6.452-42.486-18.658-9.654-9.197-24.775-9.194-34.428.001-12.81 12.205-27.498 18.656-42.475 18.656s-29.67-6.452-42.486-18.658c-9.655-9.198-24.779-9.197-34.428.001-12.812 12.21-27.499 18.661-42.475 18.661C7.715 352.492 0 360.206 0 369.722s7.715 17.231 17.231 17.231c21.338 0 41.813-7.701 59.69-22.365 17.881 14.664 38.36 22.365 59.698 22.365s41.815-7.702 59.69-22.365c17.881 14.664 38.36 22.365 59.698 22.365 21.334 0 41.811-7.699 59.688-22.356 17.877 14.659 38.353 22.356 59.687 22.356 21.337 0 41.814-7.702 59.689-22.365 17.88 14.664 38.36 22.365 59.699 22.365 9.516 0 17.231-7.715 17.231-17.231s-7.716-17.23-17.232-17.23zM494.769 251.547c-14.979 0-29.671-6.452-42.49-18.662-9.655-9.191-24.776-9.19-34.426.006-12.81 12.205-27.498 18.656-42.473 18.656-14.975 0-29.663-6.45-42.48-18.653-9.647-9.184-24.764-9.184-34.415.001-12.815 12.202-27.503 18.652-42.478 18.652-14.978 0-29.67-6.452-42.487-18.66-9.654-9.194-24.774-9.194-34.427.002-12.81 12.205-27.498 18.656-42.475 18.656-14.978 0-29.67-6.452-42.487-18.66-9.654-9.195-24.776-9.193-34.427.002-12.812 12.207-27.499 18.658-42.475 18.658C7.715 251.547 0 259.261 0 268.777s7.715 17.231 17.231 17.231c21.338 0 41.813-7.701 59.69-22.365 17.88 14.664 38.36 22.365 59.698 22.365s41.815-7.702 59.69-22.365c17.88 14.662 38.361 22.365 59.698 22.365 21.334 0 41.811-7.699 59.688-22.356 17.877 14.659 38.353 22.356 59.687 22.356 21.337 0 41.814-7.702 59.689-22.365 17.878 14.663 38.361 22.365 59.699 22.365 9.516 0 17.231-7.715 17.231-17.231s-7.716-17.23-17.232-17.23zM494.771 150.603c-14.978 0-29.67-6.452-42.489-18.663-9.654-9.19-24.772-9.188-34.427.006-12.809 12.205-27.497 18.657-42.472 18.657-14.975 0-29.663-6.45-42.481-18.654-9.647-9.182-24.763-9.183-34.414.002-12.815 12.202-27.503 18.652-42.478 18.652-14.977 0-29.67-6.453-42.487-18.66-9.654-9.194-24.773-9.192-34.428.002-12.809 12.205-27.498 18.657-42.473 18.657-14.977 0-29.67-6.453-42.487-18.66-9.655-9.195-24.778-9.192-34.427.002-12.813 12.206-27.5 18.657-42.476 18.657C7.715 150.603 0 158.318 0 167.834s7.715 17.231 17.231 17.231c21.338 0 41.814-7.701 59.69-22.365 17.881 14.664 38.36 22.365 59.698 22.365s41.816-7.703 59.69-22.365c17.88 14.663 38.362 22.365 59.698 22.365 21.335 0 41.812-7.7 59.688-22.356 17.876 14.656 38.354 22.356 59.687 22.356 21.338 0 41.815-7.703 59.689-22.366 17.88 14.663 38.361 22.366 59.699 22.366 9.516 0 17.231-7.715 17.231-17.231s-7.715-17.231-17.23-17.231z" fill="#0f3c78" opacity="1" data-original="#000000"></path></g></svg>