<svg xmlns="http://www.w3.org/2000/svg" version="1.1" xmlns:xlink="http://www.w3.org/1999/xlink" width="512" height="512" x="0" y="0" viewBox="0 0 32 32" style="enable-background:new 0 0 512 512" xml:space="preserve" class=""><g><path d="M28.246 14.356A4.242 4.242 0 0 1 26 15a4.24 4.24 0 0 1-3.094-1.334c-.949.867-2.18 1.362-3.444 1.362a4.94 4.94 0 0 1-.582-.035c-1.305-.158-2.258-.811-2.879-1.416-.622.604-1.574 1.257-2.879 1.416-1.467.176-2.932-.327-4.026-1.327A4.24 4.24 0 0 1 6.002 15a4.244 4.244 0 0 1-2.209-.621c-1.351-.822-1.778-2.612-.969-4.017L5.79 3.769A3.005 3.005 0 0 1 8.526 2h15.152c1.205 0 2.289.716 2.76 1.825l2.803 6.583c.748 1.377.31 3.137-.995 3.949zM14 30h4v-7h-4zm14-13.352V27c0 1.654-1.346 3-3 3h-5v-7c0-1.103-.897-2-2-2h-4c-1.103 0-2 .897-2 2v7H7c-1.654 0-3-1.346-3-3V16.648c1.696.558 3.617.391 5.149-.499a6.988 6.988 0 0 0 4.212.829A6.787 6.787 0 0 0 16 16.08a6.787 6.787 0 0 0 3.461.948 7.027 7.027 0 0 0 3.391-.878c1.532.89 3.452 1.056 5.148.499zM11 20a1 1 0 0 0-1-1H7a1 1 0 0 0 0 2h3a1 1 0 0 0 1-1z" fill="#0f3c78" opacity="1" data-original="#000000" class=""></path></g></svg>