<svg xmlns="http://www.w3.org/2000/svg" version="1.1" xmlns:xlink="http://www.w3.org/1999/xlink" width="512" height="512" x="0" y="0" viewBox="0 0 512 512" style="enable-background:new 0 0 512 512" xml:space="preserve" class=""><g><path d="M462.015 307.855c-21.25-16.996-38.813-51.773-38.988-52.125a5.623 5.623 0 0 0-5.027-3.105h-15.914c-11.887-10.559-28.918-32.797-45.406-54.328-13.918-18.172-27.098-35.379-36.73-44.941a5.592 5.592 0 0 0-4.52-4.129c-3.898-3.199-6.977-4.602-9.93-4.602-9.598 0-15.953 7.227-18.352 11.754-6.684 9.875-21.305 22.594-27.406 27.703l-5.726-2.863a5.613 5.613 0 0 0-7.547 2.516c-2.789 5.582-26.664 35.184-43.922 56.051-13.422-18.949-27.07-23.16-36.547-23.16-11.133 0-22.734 20.574-27.371 29.789-35.023 52.395-87.973 92.438-88.504 92.836a5.623 5.623 0 0 0-2.191 5.301 5.627 5.627 0 0 0 3.59 4.469c7.324 2.742 14.531 4.137 21.414 4.137 20.43 0 32.801-11.938 37.313-17.281h12.664c23.441 26.547 54.449 31.254 55.789 31.441.266.043.531.059.797.059 10.801 0 16.883-2.633 19.84-4.5H229a5.625 5.625 0 0 0 5.336-7.406c-5.277-15.836-23.781-17.215-27.289-17.336-11.18-2.016-19.871-10.586-25.883-18.953 8.785 3.133 15.848 3.195 16.336 3.195a5.621 5.621 0 0 0 5.195-3.473 5.622 5.622 0 0 0-1.219-6.129c-32.055-32.055-38.207-60.535-38.848-63.973.051-2.559.508-4.652 1.152-6.344 25.129 64.102 121.582 108.941 125.871 110.91a5.73 5.73 0 0 0 2.348.508h67.5a5.621 5.621 0 0 0 5.582-4.938 5.619 5.619 0 0 0-4.219-6.145c-13.695-3.426-38.715-23.043-47.203-30.316a5.627 5.627 0 0 0-7.637.297c-8.555 8.555-14.164 10.352-17.355 10.352-4.746 0-7.523-4.297-8.684-6.656 4.086-13.852 4.141-30.484 4.141-31.219a5.63 5.63 0 0 0-4.332-5.477 8.323 8.323 0 0 0-.336-.066c7.305-9.07 13.211-17.906 17.059-24.031 14.773 18.426 46.715 25.719 48.262 26.066 2.656.566 5.336-.789 6.398-3.285a5.63 5.63 0 0 0-2.055-6.887c-19.566-13.043-36.039-67.785-41.809-92.004a36.12 36.12 0 0 0 7.242-8.059c16.406 35.883 60.457 90.82 80.629 115.082a90.648 90.648 0 0 0 9.84 11.637 5.597 5.597 0 0 0 3.977 1.648h.086a5.622 5.622 0 0 0 5.625-5.625 5.6 5.6 0 0 0-1.977-4.285c-1.148-1.344-4.156-4.863-8.41-9.98 16.566 14.852 46.992 34.363 51.156 37.012 2.52 1.598 5.859.961 7.594-1.477a5.627 5.627 0 0 0-1.058-7.665z" fill="#0f3c78" opacity="1" data-original="#000000"></path></g></svg>