<svg xmlns="http://www.w3.org/2000/svg" version="1.1" xmlns:xlink="http://www.w3.org/1999/xlink" width="512" height="512" x="0" y="0" viewBox="0 0 500 500" style="enable-background:new 0 0 512 512" xml:space="preserve" class=""><g><path fill-rule="evenodd" d="M313.806 221.374c10.009 16.359-5.862 31.67-20.235 40.723-18.367 11.57-71.259 27.994-95.869 38.778-41.092 18.007-75.06 32.301-106.895 62.3-24.847 23.415-37.266 49.189-48.062 79.364a302.21 302.21 0 0 0-2.094 6.053.847.847 0 0 0 .12.787.85.85 0 0 0 .708.363h306.962c.279 0 .519-.118.69-.338s.225-.482.156-.752c-1.157-4.5-2.2-8.991-3.13-13.474-7.551-36.409-9.147-53.37 7.592-87.469 19.264-39.244 41.337-46.654 72.886-76.799 19.262-18.406 34.738-38.315 32.554-55.964-4.623-37.35-50.894-39.151-84.235-50.321-23.504-7.874-44.714-17.371-48.546-27.788-6.403-17.403 15.224-33.772 28.188-44.4 17.313-14.193 36.303-26.623 53.8-40.623a.863.863 0 0 0 .247-1.048.865.865 0 0 0-.958-.491c-30.645 5.914-60.465 13.634-89.268 23.576-37.199 12.84-94.596 32.173-103.324 70.779-9.069 40.119 32.528 45.869 65.484 57.413l.043.014c14.236 4.164 27.497 10.017 33.186 19.317zm-11.216-44.692a6.522 6.522 0 0 1 6.037-11.563c8.563 4.469 21.3 10.052 30.774 13.584a6.525 6.525 0 0 1-4.554 12.228c-9.928-3.703-23.146-9.495-32.257-14.249zm-16.798-27.91a6.545 6.545 0 0 1-5.832 11.716c-10.475-5.219-15.652-10.985-16.279-17.49-.649-6.73 3.567-12.819 11.847-18.686a6.53 6.53 0 1 1 7.572 10.642c-4.295 3.044-6.566 5.336-6.423 6.817.164 1.706 3.056 3.983 9.115 7.001zm78.385 53.737a6.529 6.529 0 0 1 4.144-12.382c17.263 5.773 30.508 12.006 36.36 20.456 6.998 10.104 4.565 21.477-11.637 35.507a6.529 6.529 0 1 1-8.544-9.874c9.862-8.54 12.2-14.224 9.437-18.214-3.908-5.642-14.957-10.542-29.76-15.493zm1.972 54.099a6.542 6.542 0 0 1 7.163 10.949l-81.373 53.291a6.542 6.542 0 0 1-7.163-10.949zM256.858 331.41a6.535 6.535 0 0 1 7.726 10.54l-35.557 26.225c-16.078 11.859-30.187 29.733-39.772 46.498a6.543 6.543 0 0 1-11.358-6.498c10.436-18.253 25.818-37.568 43.404-50.54zm57.033-231.662a6.535 6.535 0 0 1-2.661 8.851c-5.203 2.806-8.41 3.791-13.289 8.186a6.54 6.54 0 0 1-8.749-9.721c6.544-5.894 9.898-6.769 15.847-9.977a6.537 6.537 0 0 1 8.852 2.661z" clip-rule="evenodd" fill="#0f3c78" opacity="1" data-original="#000000" class=""></path></g></svg>