<svg xmlns="http://www.w3.org/2000/svg" version="1.1" xmlns:xlink="http://www.w3.org/1999/xlink" width="512" height="512" x="0" y="0" viewBox="0 0 1000 1000" style="enable-background:new 0 0 512 512" xml:space="preserve" class=""><g><path d="M614.63 306.13c-35.31-5.75-74.53-8.75-115-8.75a733.24 733.24 0 0 0-108.88 7.8q2.86-6 5.89-11.8a274.43 274.43 0 0 1 14.59-24.71 746.93 746.93 0 0 1 183 .78 276.47 276.47 0 0 1 14.34 24.45q3.12 5.97 6.06 12.23zM638.43 371.57c-40.84-8.53-89.2-13.15-138.76-13.15-47.74 0-93.15 4.1-132.79 11.93 3.42-12.33 7.25-24.24 11.49-35.65 36.55-6.7 78.3-10.23 121.3-10.23 45.56 0 89.41 3.93 127.36 11.4q6.32 17.13 11.4 35.7zM651.63 435.57c-43.43-10.44-96.49-16.11-152-16.11-52.78 0-103.8 5.19-146.12 14.75q2.59-17.7 6.21-34.66c40.28-9.08 89.56-14 139.91-14 53.05 0 104.44 5.45 145.84 15.41q3.6 16.89 6.16 34.61zM657.33 498c-44.41-11.35-99.55-17.52-157.66-17.52-55.39 0-108.53 5.68-152 16.11q.72-17.07 2.35-33.71c42-10.57 94.71-16.35 149.61-16.35 57.73 0 112.47 6.32 155.4 17.85q1.62 16.62 2.3 33.62zM658 538.72H347c.09-4.74.14-9.43.14-14 42.5-11 96.17-17.09 152.54-17.09 59.2 0 114.87 6.57 158.19 18.59-.01 4.09.02 8.29.13 12.5zM734.2 653.32v244.95H581.94v-97.83a81.94 81.94 0 1 0-163.88 0v97.83H265.8v-309.4a23.1 23.1 0 0 1 23.07-23.07h422.26a23.1 23.1 0 0 1 23.07 23.07z" fill="#0f3c78" opacity="1" data-original="#000000" class=""></path><path d="M554.86 800.44v97.83H445.14v-97.83a54.86 54.86 0 1 1 109.72 0zM570.27 239.51c-22.74-2.1-46.37-3.16-70.6-3.16-22 0-43.54.88-64.41 2.62 20.16-20.2 42.19-31.22 64.74-32h2.48c23.63.03 46.74 11.26 67.79 32.54zM614.63 123.08l-71.09 22.74v-45.49zM513.54 89.54v90.94a99.45 99.45 0 0 0-11.06-.61 101 101 0 0 0-16 1.27V91.27a13.85 13.85 0 0 1 .64-3.62 13.55 13.55 0 0 1 17-8.77l6.3 2a13.53 13.53 0 0 1 3.12 8.66zM856.79 694.48v204.43h-95.51V667.22h68.25a27.29 27.29 0 0 1 27.26 27.26zM238.72 667.22v231.69h-95.51V694.48a27.29 27.29 0 0 1 27.26-27.26z" fill="#0f3c78" opacity="1" data-original="#000000" class=""></path></g></svg>