<svg width="30" height="30" viewBox="0 0 30 30" fill="none" xmlns="http://www.w3.org/2000/svg">
<path d="M5 19.375V7.50001C5 6.39584 5.28667 5.51543 5.86 4.85876C6.43333 4.20209 7.18833 3.70209 8.125 3.35876C9.06167 3.01543 10.1296 2.78626 11.3287 2.67126C12.5279 2.55626 13.7517 2.49918 15 2.50001C16.375 2.50001 17.6721 2.55751 18.8912 2.67251C20.1104 2.78751 21.1729 3.01668 22.0787 3.36001C22.9846 3.70334 23.6979 4.20334 24.2187 4.86001C24.7396 5.51668 25 6.39668 25 7.50001V19.375C25 20.6042 24.5783 21.6409 23.735 22.485C22.8917 23.3292 21.855 23.7508 20.625 23.75L22.5 25.625V26.25H20L17.5 23.75H12.5L10 26.25H7.5V25.625L9.375 23.75C8.14583 23.75 7.10917 23.3284 6.265 22.485C5.42083 21.6417 4.99917 20.605 5 19.375ZM7.5 12.5H13.75V8.75001H7.5V12.5ZM16.25 12.5H22.5V8.75001H16.25V12.5ZM11.9687 19.4688C12.3229 19.1146 12.5 18.6667 12.5 18.125C12.5 17.5833 12.3229 17.1354 11.9687 16.7813C11.6146 16.4271 11.1667 16.25 10.625 16.25C10.0833 16.25 9.63542 16.4271 9.28125 16.7813C8.92708 17.1354 8.75 17.5833 8.75 18.125C8.75 18.6667 8.92708 19.1146 9.28125 19.4688C9.63542 19.8229 10.0833 20 10.625 20C11.1667 20 11.6146 19.8229 11.9687 19.4688ZM20.7187 19.4688C21.0729 19.1146 21.25 18.6667 21.25 18.125C21.25 17.5833 21.0729 17.1354 20.7187 16.7813C20.3646 16.4271 19.9167 16.25 19.375 16.25C18.8333 16.25 18.3854 16.4271 18.0312 16.7813C17.6771 17.1354 17.5 17.5833 17.5 18.125C17.5 18.6667 17.6771 19.1146 18.0312 19.4688C18.3854 19.8229 18.8333 20 19.375 20C19.9167 20 20.3646 19.8229 20.7187 19.4688Z" fill="#183E60"/>
</svg>
