<svg width="11" height="11" viewBox="0 0 11 11" fill="none" xmlns="http://www.w3.org/2000/svg">
<path d="M10.4127 1.03527C10.4063 0.818611 10.314 0.608295 10.1563 0.450567C9.99859 0.292838 9.78827 0.200614 9.57162 0.194175L3.03498 0.000876011C2.92645 -0.00421729 2.81927 0.0123332 2.71969 0.0495616C2.62011 0.08679 2.53014 0.143951 2.455 0.217709C2.37987 0.291467 2.3211 0.380345 2.2821 0.479157C2.24311 0.577969 2.22468 0.684736 2.22788 0.793229C2.23109 0.901721 2.25588 1.00977 2.30079 1.11106C2.3457 1.21235 2.40984 1.30487 2.48947 1.3832C2.5691 1.46153 2.66262 1.52412 2.76457 1.56731C2.86653 1.6105 2.97488 1.63342 3.0833 1.63474L7.6475 1.76972L0.222651 9.19457C0.0739546 9.34326 -0.00598247 9.54854 0.000425535 9.76524C0.00683354 9.98193 0.0990633 10.1923 0.256823 10.3501C0.414582 10.5078 0.624948 10.6 0.841645 10.6065C1.05834 10.6129 1.26362 10.5329 1.41232 10.3842L8.83717 2.95938L8.97214 7.52358C8.9822 7.7379 9.07594 7.94467 9.23318 8.09935C9.39042 8.25404 9.59858 8.34426 9.81281 8.3506C10.0271 8.35694 10.2302 8.27887 10.3786 8.13322C10.5269 7.98758 10.6086 7.786 10.606 7.5719L10.4127 1.03527Z" fill="white"/>
</svg>
