<svg width="132" height="34" viewBox="0 0 132 34" fill="none" xmlns="http://www.w3.org/2000/svg">
<path d="M18.504 12.4412H10.5705C7.6856 12.4412 7.56539 8.11383 10.5705 8.11383H27.1888V0H10.5705C-3.55354 0 -3.49344 20.555 10.5705 20.555H18.504C21.5091 20.555 21.3889 24.8824 18.504 24.8824H1.25465V32.9962H18.504C32.568 32.9962 32.6281 12.4412 18.504 12.4412Z" fill="black"/>
<path d="M48.1954 0C39.0598 0 31.6372 7.4527 31.6372 16.5582C31.6372 25.6637 39.0899 33.1164 48.1954 33.1164C57.3009 33.1164 64.7536 25.6637 64.7536 16.5582C64.7536 7.4527 57.3009 0 48.1954 0ZM48.1954 25.0026C43.5074 25.0026 39.751 21.2462 39.751 16.5582C39.751 11.8702 43.5074 8.11383 48.1954 8.11383C52.8834 8.11383 56.6398 11.8702 56.6398 16.5582C56.6398 21.2462 52.8834 25.0026 48.1954 25.0026Z" fill="black"/>
<path d="M92.2501 16.5582V33.1164H100.364V16.5582H92.2501ZM83.8057 0C80.7405 0 77.8556 0.841438 75.3614 2.31395C70.4931 5.19886 67.2476 10.5179 67.2476 16.5582V33.1164H75.3614V16.5582C75.3614 11.8702 79.1178 8.11383 83.8057 8.11383C88.4937 8.11383 92.2501 11.8702 92.2501 16.5582H100.364C100.364 7.42265 92.9112 0 83.8057 0Z" fill="black"/>
<path d="M121.429 12.4412H113.496C110.611 12.4412 110.491 8.11383 113.496 8.11383H130.114V0H113.496C99.3718 0 99.4319 20.555 113.496 20.555H121.429C124.434 20.555 124.314 24.8824 121.429 24.8824H104.18V32.9962H121.429C135.493 32.9962 135.553 12.4412 121.429 12.4412Z" fill="black"/>
<path d="M75.3614 0H67.2476V33.1164H75.3614V0Z" fill="black"/>
</svg>
