<svg xmlns="http://www.w3.org/2000/svg" width="11" height="11" viewBox="0 0 11 11" fill="none">
  <path d="M10.4125 1.03533C10.406 0.818672 10.3138 0.608356 10.1561 0.450628C9.99834 0.292899 9.78803 0.200675 9.57137 0.194236L3.03474 0.000937046C2.92621 -0.00415625 2.81903 0.0123942 2.71945 0.0496226C2.61987 0.0868511 2.52989 0.144012 2.45476 0.21777C2.37963 0.291528 2.32085 0.380406 2.28186 0.479218C2.24286 0.57803 2.22443 0.684797 2.22764 0.79329C2.23085 0.901782 2.25563 1.00983 2.30054 1.11112C2.34546 1.21241 2.4096 1.30493 2.48923 1.38326C2.56885 1.4616 2.66237 1.52418 2.76433 1.56737C2.86629 1.61056 2.97464 1.63348 3.08306 1.63481L7.64726 1.76978L0.222407 9.19463C0.0737104 9.34332 -0.00622661 9.5486 0.000181394 9.7653C0.0065894 9.982 0.0988192 10.1924 0.256579 10.3501C0.414338 10.5079 0.624704 10.6001 0.841401 10.6065C1.0581 10.6129 1.26337 10.533 1.41207 10.3843L8.83692 2.95944L8.97189 7.52364C8.98195 7.73796 9.0757 7.94473 9.23294 8.09941C9.39018 8.2541 9.59833 8.34433 9.81257 8.35066C10.0268 8.357 10.23 8.27893 10.3783 8.13328C10.5267 7.98764 10.6084 7.78606 10.6058 7.57196L10.4125 1.03533Z" fill="white"/>
</svg>