<svg width="20" height="20" viewBox="0 0 20 20" fill="none" xmlns="http://www.w3.org/2000/svg">
<g clip-path="url(#clip0_10333_1427)">
<path d="M4.33899 6.92773C4.74706 6.92773 5.07788 6.59692 5.07788 6.18884C5.07788 5.78076 4.74706 5.44995 4.33899 5.44995C3.93091 5.44995 3.6001 5.78076 3.6001 6.18884C3.6001 6.59692 3.93091 6.92773 4.33899 6.92773Z" fill="#183E60"/>
<path d="M15.4331 10.6501L13.3331 8.55561H12.3498C12.117 8.55569 11.886 8.51624 11.6664 8.43894L14.6276 11.3778L9.56644 16.4945L2.04977 8.97228V3.88894H7.10533L10.4387 7.18894C10.2678 6.70165 10.2876 6.16775 10.4942 5.6945L7.88866 3.10005C7.78961 2.99841 7.67128 2.91756 7.54058 2.86223C7.40989 2.8069 7.26947 2.77821 7.12755 2.77783H2.00533C1.72096 2.77783 1.44823 2.8908 1.24715 3.09188C1.04607 3.29296 0.933105 3.56568 0.933105 3.85005V8.97228C0.93349 9.11287 0.961666 9.252 1.01601 9.38167C1.07036 9.51133 1.1498 9.62898 1.24977 9.72783L8.79977 17.2778C8.89934 17.3774 9.01756 17.4565 9.14768 17.5104C9.2778 17.5643 9.41726 17.592 9.55811 17.592C9.69895 17.592 9.83841 17.5643 9.96853 17.5104C10.0986 17.4565 10.2169 17.3774 10.3164 17.2778L15.4331 12.1612C15.6326 11.9603 15.7445 11.6887 15.7445 11.4056C15.7445 11.1225 15.6326 10.8509 15.4331 10.6501Z" fill="#183E60"/>
<path d="M11.5722 3.7778L10.8778 3.08335C10.7774 2.98472 10.6584 2.90694 10.5278 2.8545C10.3971 2.80206 10.2574 2.77599 10.1167 2.7778H8.95557L10.9945 4.7778L11.5722 3.7778Z" fill="#183E60"/>
<path d="M18.4224 10.6278L16.3502 8.55554H14.8057L17.6391 11.3333L11.7891 17.2611C11.8886 17.3607 12.0069 17.4397 12.137 17.4936C12.2671 17.5476 12.4066 17.5753 12.5474 17.5753C12.6882 17.5753 12.8277 17.5476 12.9578 17.4936C13.0879 17.4397 13.2062 17.3607 13.3057 17.2611L18.4224 12.1444C18.522 12.0449 18.601 11.9266 18.6549 11.7965C18.7089 11.6664 18.7366 11.5269 18.7366 11.3861C18.7366 11.2453 18.7089 11.1058 18.6549 10.9757C18.601 10.8456 18.522 10.7273 18.4224 10.6278Z" fill="#183E60"/>
<path d="M14.9164 0.633325L11.7387 6.1111C11.6647 6.21962 11.6223 6.34649 11.616 6.47764C11.6098 6.6088 11.64 6.73913 11.7033 6.85419C11.7665 6.96924 11.8604 7.06453 11.9746 7.12949C12.0887 7.19444 12.2185 7.22654 12.3498 7.22221H18.7109C18.8421 7.22654 18.972 7.19444 19.0861 7.12949C19.2002 7.06453 19.2941 6.96924 19.3574 6.85419C19.4207 6.73913 19.4509 6.6088 19.4446 6.47764C19.4384 6.34649 19.3959 6.21962 19.322 6.1111L16.1442 0.633325C16.0815 0.526133 15.9919 0.43722 15.8842 0.37543C15.7765 0.31364 15.6545 0.281128 15.5303 0.281128C15.4062 0.281128 15.2842 0.31364 15.1765 0.37543C15.0688 0.43722 14.9791 0.526133 14.9164 0.633325Z" fill="#183E60"/>
</g>
<defs>
<clipPath id="clip0_10333_1427">
<rect width="20" height="20" fill="white"/>
</clipPath>
</defs>
</svg>
