<svg xmlns="http://www.w3.org/2000/svg" version="1.1" xmlns:xlink="http://www.w3.org/1999/xlink" width="512" height="512" x="0" y="0" viewBox="0 0 64 64" style="enable-background:new 0 0 512 512" xml:space="preserve" class=""><g><path d="M30.498 40.003c-.846 0-1.696-.134-2.676-.423-3.125-.919-6.185-3.538-6.466-7.345a3.276 3.276 0 0 1-1.145.909c-1.998 1.055-3.484 1.114-4.405.266-.609-.561-.814-1.257-.578-1.96.292-.866 1.174-1.504 2.007-1.736.125-2.603 2.83-7.319 5.73-7.941a5.555 5.555 0 0 1 1.151-.127c1.954 0 3.241 1.209 3.977 2.415.686-2.195 2.312-3 3.72-2.695-.464-1.238-.531-2.627-.185-4.016.447-1.791 1.524-3.337 2.782-4.018 1.295-4.344 6.532-7.972 11.575-7.972.671 0 1.336.064 1.975.192a10.874 10.874 0 0 1 6.981 4.699 11.015 11.015 0 0 1 1.613 8.371c-.712 3.447-3.261 6.471-6.718 8.02.224.457.248.935.055 1.37-.32.727-1.171 1.195-2.169 1.195-.811 0-1.612-.313-2.272-.882-.654-.104-1.786 1.609-2.769 3.089-1.03 1.55-2.197 3.308-3.596 4.506-3.252 2.786-5.98 4.083-8.587 4.083zm-8.702-11.104.956.294c-.048.167-.096.326-.145.479-.069.253-.13.526-.173.788-.7 4.255 2.448 7.213 5.669 8.161.898.265 1.636.382 2.394.382 2.355 0 4.877-1.221 7.937-3.842 1.294-1.108 2.42-2.804 3.414-4.3 1.313-1.977 2.35-3.537 3.561-3.537.151 0 .3.024.444.074l.177.105c.492.454 1.093.704 1.692.704.583 0 1.099-.246 1.254-.599.138-.313-.069-.637-.268-.854l-.492-.538.68-.265c3.384-1.317 6.005-4.273 6.678-7.532a10.02 10.02 0 0 0-1.468-7.616 9.885 9.885 0 0 0-6.343-4.271 9.157 9.157 0 0 0-1.779-.173c-4.63 0-9.616 3.48-10.67 7.449l-.061.229-.215.098c-1.064.484-2.045 1.873-2.44 3.456-.253 1.015-.479 2.977.849 4.706.115.104.269.283.413.481l-.766.641a6.135 6.135 0 0 1-.44-.513c-.388-.371-.912-.605-1.429-.605-1.087 0-2.262 1.079-2.436 3.49l-.216 3.004-.767-2.914c-.035-.132-.884-3.236-3.69-3.236a4.49 4.49 0 0 0-.941.105c-2.519.539-5.119 5.243-4.937 7.331l.043.494-.494.047c-.674.063-1.427.599-1.611 1.146-.108.32-.007.616.307.905.588.542 1.754.382 3.206-.385.531-.278 1.246-.652 1.967-2.921.038-.142.088-.305.14-.468z" fill="#0f3c78" opacity="1" data-original="#000000"></path><path d="M49.75 14.439c-.667 0-1.335-.23-1.877-.7a3.432 3.432 0 0 1-1.183-2.367 3.438 3.438 0 0 1 .838-2.512 4.17 4.17 0 0 1 2.874-1.436A4.134 4.134 0 0 1 53.45 8.44l-.655.756a3.156 3.156 0 0 0-2.322-.774 3.178 3.178 0 0 0-2.189 1.094 2.44 2.44 0 0 0-.596 1.785 2.44 2.44 0 0 0 .841 1.683 1.868 1.868 0 0 0 2.635-.187c.502-.58.44-1.462-.14-1.965l.656-.756a2.398 2.398 0 0 1 .239 3.376 2.866 2.866 0 0 1-2.169.987zM43.868 23.48c-2.183-.261-2.667-2.506-2.686-2.601l.979-.203c.014.067.366 1.636 1.826 1.812zM37.916 23.186c-.48 0-.974-.266-1.322-.711-.357-.459-.498-1.022-.376-1.508l.97.242c-.046.185.03.439.195.65.155.198.364.326.533.326zM38.364 18.441c-2.184-.616-2.32-2.984-2.325-3.085l.999-.049c.004.071.113 1.752 1.597 2.171zM33.915 32.83c-2.225 0-3.974-.98-4.9-2.79-1.074-2.096-1.419-4.799-.838-6.574.288-.88.799-1.525 1.479-1.866.999-.5 1.899-.599 2.676-.292.792.312 1.396 1.016 1.793 2.092.367.993.479 2.122.422 3.023.497-.17 1.14-.307 1.764-.192l-.181.984c-.879-.171-1.948.459-1.958.465l-1.063.628.327-1.19c.206-.75.189-2.187-.248-3.371-.295-.797-.707-1.305-1.223-1.509-.501-.195-1.126-.112-1.86.257-.441.221-.77.653-.977 1.283-.497 1.517-.169 3.959.777 5.807.978 1.909 2.814 2.27 4.18 2.242 1.985-.045 3.695-.94 3.855-1.291l.979.194c-.156.917-2.017 1.737-3.726 2-.442.067-.868.1-1.278.1z" fill="#0f3c78" opacity="1" data-original="#000000"></path><path d="m27.637 33.563-.856-.517c.018-.03 1.804-3.053 1.179-6.54l.984-.176c.694 3.868-1.225 7.098-1.307 7.233zM56.135 25.027c-1.42 0-3.103.818-3.564 3.116-.395 1.962-.563 5.655-.569 5.812-.004.208-.049.729-.212 1.153a3.983 3.983 0 0 0-1.758-.413c-1.42-.001-2.904.764-4.411 2.271l-3.451 3.451c-1.31.325-2.785 1.284-4.292 2.792C35 46.086 35 49.933 35 52v7h1v-7c0-2.349.102-5.602 2.584-8.083 1.623-1.623 3.051-2.407 4.082-2.583l3.661-3.66c1.487-1.488 2.714-1.979 3.704-1.979 1.578 0 2.557 1.249 3.037 1.694l-7.854 7.854.693.691 8.576-8.577-1.845-1.696C52.99 34.916 53 34 53 34s.167-3.75.551-5.659c.352-1.749 1.529-2.313 2.584-2.313.986-.001 1.865.492 1.865.972v8a6.89 6.89 0 0 1-.336 1.942l-2.73 7.663c-.186.521-.672 1.238-1.087 1.604l-7.097 7.13c-.414.365-.75 1.108-.75 1.661v4h1v-4c0-.267.211-.734.412-.911l.023-.021.023-.023 7.076-7.108c.531-.479 1.104-1.329 1.34-1.994l2.73-7.663A7.838 7.838 0 0 0 59 35v-8c0-1.219-1.487-1.973-2.865-1.973zM16.564 54.067l.023.021c.202.178.413.645.413.912v4h1v-4c0-.553-.336-1.296-.75-1.661l-7.097-7.13c-.415-.365-.901-1.083-1.087-1.604l-2.73-7.663A6.89 6.89 0 0 1 6 35v-8c0-.48.879-.973 1.865-.973 1.055 0 2.232.564 2.584 2.313C10.833 30.25 11 34 11 34s.01.916.36 1.662l-1.845 1.696 8.576 8.577.693-.691-7.854-7.854c.48-.445 1.459-1.694 3.037-1.694.99 0 2.217.49 3.704 1.979l3.661 3.66c1.031.176 2.459.96 4.082 2.583C27.898 46.398 28 49.651 28 52v7h1v-7c0-2.067 0-5.914-2.877-8.79-1.507-1.508-2.982-2.467-4.292-2.792l-3.451-3.451c-1.507-1.508-2.991-2.272-4.411-2.271-.672 0-1.258.17-1.758.413-.163-.424-.208-.945-.212-1.153-.007-.156-.175-3.85-.569-5.812-.462-2.298-2.145-3.116-3.564-3.116C6.487 25.027 5 25.781 5 27v8c0 .669.17 1.648.395 2.278l2.73 7.663c.236.665.809 1.515 1.34 1.994l7.076 7.108z" fill="#0f3c78" opacity="1" data-original="#000000"></path></g></svg>