<svg xmlns="http://www.w3.org/2000/svg" version="1.1" xmlns:xlink="http://www.w3.org/1999/xlink" width="512" height="512" x="0" y="0" viewBox="0 0 64 64" style="enable-background:new 0 0 512 512" xml:space="preserve" class=""><g><path d="M58.295 5.045C52.571-.878 42.227-.207 35.239 6.542c-3.525 3.41-5.704 7.947-5.978 12.447-.427 6.989-2.916 13.067-7.199 17.578a52.543 52.543 0 0 1-1.594 1.608l-6.057 5.846-.074-.076a.983.983 0 0 0-1.384-.021L2.29 54.224a.981.981 0 0 0-.023 1.388L5.838 59.3a.984.984 0 0 0 1.387.024l10.663-10.3a.982.982 0 0 0 .025-1.386l-.077-.079 6.054-5.852a54.442 54.442 0 0 1 1.655-1.532c4.657-4.128 10.816-6.406 17.808-6.589 4.515-.119 9.127-2.143 12.653-5.554 3.362-3.248 5.463-7.411 5.915-11.719.458-4.373-.829-8.374-3.625-11.268zM6.565 57.232l-2.206-2.279 9.254-8.939 2.206 2.279zm53.404-41.124c-.403 3.852-2.295 7.586-5.327 10.514-3.178 3.074-7.311 4.897-11.342 5.002-7.46.195-14.05 2.645-19.058 7.083a53.559 53.559 0 0 0-1.716 1.588l-6.054 5.851-.695-.717 6.052-5.842a53.141 53.141 0 0 0 1.654-1.67c4.605-4.849 7.28-11.353 7.735-18.81.245-4.017 2.207-8.083 5.384-11.155 6.21-5.999 15.309-6.69 20.282-1.544 2.386 2.469 3.481 5.913 3.085 9.699z" fill="#0f3c78" opacity="1" data-original="#000000" class=""></path><path d="M41.996 4.833a.738.738 0 0 0-.042.017l-.013.005c-1.845.789-3.549 1.931-5.063 3.393a17.084 17.084 0 0 0-2.799 3.528c-.042.029-.09.045-.128.082a.975.975 0 0 0-.294.664c-2.818 5.295-2.316 11.302 1.314 15.064 2.206 2.279 5.222 3.397 8.408 3.397 3.778 0 7.794-1.572 10.978-4.649 5.869-5.67 6.73-14.344 1.916-19.338-3.449-3.564-9.049-4.407-14.278-2.164zm14.697 14.374-1.242-1.285 1.931-1.866a12.833 12.833 0 0 1-.689 3.151zm-2.604-2.695-3.018-3.124 4.43-4.281c.966 1.255 1.557 2.728 1.799 4.302zM37.105 26.884l5.172-4.998 3.019 3.124-3.954 3.821c-1.564-.296-3.017-.938-4.236-1.947zm-3.167-5.708 3.958-3.824 3.019 3.124-5.171 4.997c-.953-1.241-1.557-2.712-1.805-4.297zm1.024-6.86 1.571 1.626-2.684 2.594c.116-1.397.489-2.825 1.113-4.22zm7.156-7.368 1.798 1.86-2.28 2.203-2.261-2.34a14.7 14.7 0 0 1 2.744-1.724zm12.023.747-4.433 4.283-3.018-3.124 3.215-3.107c1.58.302 3.031.955 4.236 1.947zm-8.814-.251-1.248-1.292a12.636 12.636 0 0 1 3.172-.566l-1.923 1.858zm-.049 2.774 3.018 3.124-2.28 2.203-3.018-3.124zm-.673 6.691-2.28 2.203-3.019-3.124 2.28-2.203zm2.053 9.511 1.565 1.619a13.078 13.078 0 0 1-4.239.965zm3.149.434-1.737-1.798 2.28-2.203 2.05 2.122a.985.985 0 0 0 .305.208 15.296 15.296 0 0 1-2.694 1.991.98.98 0 0 0-.204-.319zm-3.1-3.208-3.019-3.124 2.28-2.203 3.019 3.124zm.673-6.691 2.28-2.203 3.018 3.124-2.28 2.203-3.019-3.124zm-9.456-6.966s.004.009.008.013l2.293 2.373-2.28 2.203-2.008-2.078c.559-.89 1.225-1.73 1.987-2.51zm16.057 13.885a.941.941 0 0 0-.169-.264l-2.05-2.121 2.28-2.203 1.801 1.864a14.988 14.988 0 0 1-1.861 2.725zM53.259 45.719l-1.671 1.578a19.279 19.279 0 0 0-3.703-3.662l.582-.868a.98.98 0 1 0-1.63-1.092l-.58.865a19.232 19.232 0 0 0-4.757-2.047l.862-2.241a.98.98 0 1 0-1.83-.705l-5.588 14.53-.01.01-2.026 3.022a5.077 5.077 0 0 0 4.202 7.898c.33 0 .662-.033.993-.098a5.039 5.039 0 0 0 3.231-2.152l1.965-2.932 11.307-10.681a.98.98 0 1 0-1.347-1.425zm-3.104 2.932-1.152 1.088a17.153 17.153 0 0 0-3.147-3.076l.937-1.397a17.341 17.341 0 0 1 3.363 3.385zm-3.532 3.336a15.13 15.13 0 0 0-2.614-2.57l.754-1.125a15.242 15.242 0 0 1 2.807 2.799l-.947.895zm-9.652.283 1.361-3.54c1.039.291 2.03.7 2.955 1.224l-2.409 3.594-1.908-1.279zm2.069-5.379.46-1.195c1.282.348 2.501.853 3.633 1.506l-.752 1.122a15.12 15.12 0 0 0-3.341-1.433zm6.126-2.722-.941 1.403a17.173 17.173 0 0 0-4.018-1.715l.587-1.525a17.29 17.29 0 0 1 4.372 1.837zm-5.461 15.495a3.118 3.118 0 0 1-4.315.853 3.114 3.114 0 0 1-.852-4.316l1.48-2.207 2.583 1.731h.002l2.581 1.73-1.48 2.208zm.804-5.023 2.409-3.594a13.198 13.198 0 0 1 2.274 2.293l-2.75 2.598-1.933-1.296z" fill="#0f3c78" opacity="1" data-original="#000000" class=""></path></g></svg>