<svg xmlns="http://www.w3.org/2000/svg" version="1.1" xmlns:xlink="http://www.w3.org/1999/xlink" width="512" height="512" x="0" y="0" viewBox="0 0 60 60" style="enable-background:new 0 0 512 512" xml:space="preserve" class=""><g><path d="M58 8h-2.184A3 3 0 0 0 53 6h-4a3 3 0 0 0-3 3v10a3 3 0 0 0 2 2.816V43a1 1 0 0 1-2 0v-8a4 4 0 0 0-4-4h-4V4a4 4 0 0 0-4-4H8a4 4 0 0 0-4 4v48H3a3 3 0 0 0-3 3v2a3 3 0 0 0 3 3h36a3 3 0 0 0 3-3v-2a3 3 0 0 0-3-3h-1V37h2v6a7 7 0 0 0 14 0V21.816A3 3 0 0 0 56 19v-5h2a2 2 0 0 0 2-2v-2a2 2 0 0 0-2-2ZM8 2h26a2 2 0 0 1 2 2v23H6V4a2 2 0 0 1 2-2Zm32 53v2a1 1 0 0 1-1 1H3a1 1 0 0 1-1-1v-2a1 1 0 0 1 1-1h36a1 1 0 0 1 1 1ZM6 52V29h30v23Zm41-4a5.006 5.006 0 0 1-5-5v-6a2 2 0 0 0-2-2h-2v-2h4a2 2 0 0 1 2 2v8a3 3 0 0 0 6 0V22h2v21a5.006 5.006 0 0 1-5 5Zm7-29a1 1 0 0 1-1 1h-4a1 1 0 0 1-1-1V9a1 1 0 0 1 1-1h4a1 1 0 0 1 1 1Zm4-7h-2v-2h2Z" fill="#0f3c78" opacity="1" data-original="#000000" class=""></path><path d="M31 37a3 3 0 1 0-3-3 3 3 0 0 0 3 3Zm0-4a1 1 0 1 1-1 1 1 1 0 0 1 1-1ZM31 39a3 3 0 1 0 3 3 3 3 0 0 0-3-3Zm0 4a1 1 0 1 1 1-1 1 1 0 0 1-1 1ZM21.857 10.515a1 1 0 0 0-1.714-1.03l-3 5A1 1 0 0 0 18 16h4.233l-2.09 3.485a1 1 0 1 0 1.714 1.03l3-5A1 1 0 0 0 24 14h-4.233Z" fill="#0f3c78" opacity="1" data-original="#000000" class=""></path><path d="M21 25a10.011 10.011 0 0 0 10-10 9.9 9.9 0 0 0-1.04-4.445 1 1 0 1 0-1.791.89A7.913 7.913 0 0 1 29 15a8 8 0 1 1-8-8 1 1 0 0 0 0-2 10 10 0 0 0 0 20Z" fill="#0f3c78" opacity="1" data-original="#000000" class=""></path></g></svg>