<svg xmlns="http://www.w3.org/2000/svg" version="1.1" xmlns:xlink="http://www.w3.org/1999/xlink" width="512" height="512" x="0" y="0" viewBox="0 0 60 60" style="enable-background:new 0 0 512 512" xml:space="preserve" class=""><g><path d="M2 37.806V57a3 3 0 0 0 3 3h50a3 3 0 0 0 3-3V37.806a2.972 2.972 0 0 0 1.509-1.164 3 3 0 0 0 .232-2.859l-2.228-5A3 3 0 0 0 54.778 27H34.18l-1.055-.985 1.353-4.977a11 11 0 1 0-8.956 0l1.353 4.977L25.82 27H5.222a3 3 0 0 0-2.734 1.783l-2.231 5a3 3 0 0 0 .234 2.854A2.972 2.972 0 0 0 2 37.806ZM4 57V38h10.505a2.041 2.041 0 0 0-.066.457 1.986 1.986 0 0 0 .585 1.449l1.306 1.306a2.007 2.007 0 0 0 .67.443V58H5a1 1 0 0 1-1-1Zm39.562-18.508-1.3 1.3-11.579-10.806a1 1 0 0 0-1.366 0L17.743 39.8l-1.3-1.3 13.251-12.379a.45.45 0 0 1 .612 0ZM34 58h-3V48h2a1 1 0 0 1 1 1Zm-5 0h-3v-9a1 1 0 0 1 1-1h2Zm7 0v-9a3 3 0 0 0-3-3h-6a3 3 0 0 0-3 3v9h-5V41.341c.036-.029.074-.051.108-.083L30 31.085l10.891 10.173c.034.032.073.055.109.084V58Zm19 0H43V41.653a2 2 0 0 0 .671-.442l1.3-1.3a1.985 1.985 0 0 0 .584-1.448A2.041 2.041 0 0 0 45.5 38H56v19a1 1 0 0 1-1 1Zm-.222-29a1 1 0 0 1 .908.6l2.227 5A1 1 0 0 1 57 36H43.823l-7.5-7ZM21 11a9 9 0 1 1 9 9 9.01 9.01 0 0 1-9-9Zm9 11a11.035 11.035 0 0 0 2.2-.222l-.74 2.722a2.445 2.445 0 0 0-2.928 0l-.74-2.722A11.035 11.035 0 0 0 30 22ZM2.085 34.6l2.23-5a1 1 0 0 1 .907-.6h18.455l-7.5 7H3a1 1 0 0 1-.917-1.4Z" fill="#0f3c78" opacity="1" data-original="#000000" class=""></path><path d="M32 37h-4a2 2 0 0 0-2 2v3a2 2 0 0 0 2 2h4a2 2 0 0 0 2-2v-3a2 2 0 0 0-2-2Zm-4 5v-3h4v3ZM12 40H9a2 2 0 0 0-2 2v3a2 2 0 0 0 2 2h3a2 2 0 0 0 2-2v-3a2 2 0 0 0-2-2Zm-3 5v-3h3v3ZM12 49H9a2 2 0 0 0-2 2v3a2 2 0 0 0 2 2h3a2 2 0 0 0 2-2v-3a2 2 0 0 0-2-2Zm-3 5v-3h3v3ZM51 40h-3a2 2 0 0 0-2 2v3a2 2 0 0 0 2 2h3a2 2 0 0 0 2-2v-3a2 2 0 0 0-2-2Zm-3 5v-3h3v3ZM51 49h-3a2 2 0 0 0-2 2v3a2 2 0 0 0 2 2h3a2 2 0 0 0 2-2v-3a2 2 0 0 0-2-2Zm-3 5v-3h3v3ZM24.054 10H24a.977.977 0 0 0-.974 1 1.023 1.023 0 0 0 1.028 1 1 1 0 1 0 0-2ZM27.56 9.675l-.048.017a.979.979 0 0 0-.571 1.275 1.03 1.03 0 0 0 1.308.585 1 1 0 0 0-.689-1.877ZM30.236 14.063l.046.021a.971.971 0 0 0 .411.093.994.994 0 0 0 .9-.585 1.022 1.022 0 0 0-.5-1.34 1 1 0 0 0-.848 1.811ZM25.088 14.5l-.037.037a.991.991 0 0 0 .716 1.68 1.04 1.04 0 0 0 .735-.3 1 1 0 1 0-1.414-1.417ZM31 16.946a1 1 0 1 0-2 0V17a.977.977 0 0 0 1 .974 1.023 1.023 0 0 0 1-1.028Z" fill="#0f3c78" opacity="1" data-original="#000000" class=""></path></g></svg>