<svg xmlns="http://www.w3.org/2000/svg" version="1.1" xmlns:xlink="http://www.w3.org/1999/xlink" width="512" height="512" x="0" y="0" viewBox="0 0 64 64" style="enable-background:new 0 0 512 512" xml:space="preserve" class=""><g><path d="m59.74 55.672-5.463-12.489a3.08 3.08 0 0 0-2.824-1.847H12.547a3.08 3.08 0 0 0-2.823 1.847L4.26 55.672a3.081 3.081 0 0 0 2.823 4.316h49.834a3.081 3.081 0 0 0 2.823-4.316zm-1.918 1.827a1.063 1.063 0 0 1-.905.489H7.083a1.081 1.081 0 0 1-.991-1.515l5.464-12.488a1.08 1.08 0 0 1 .99-.649h38.907a1.081 1.081 0 0 1 .991.649l5.464 12.488a1.064 1.064 0 0 1-.086 1.026z" fill="#0f3c78" opacity="1" data-original="#000000"></path><path d="M17.719 45.662H15.78a1.998 1.998 0 0 0-1.94 1.515l-1.5 6.001a2 2 0 0 0 1.94 2.485h1.939a1.997 1.997 0 0 0 1.94-1.514l1.5-6.002a2 2 0 0 0-1.94-2.485zm-1.5 8.001H14.28l1.5-6.001h1.939zM27.867 45.662h-1.984a2.003 2.003 0 0 0-1.985 1.752l-.75 6.001a2 2 0 0 0 1.985 2.248h1.984a2.003 2.003 0 0 0 1.984-1.752l.75-6.001a2 2 0 0 0-1.984-2.248zm-.75 9.001v-1h.001zm0-1h-1.984l.75-6.001h1.984zM50.16 47.177a1.998 1.998 0 0 0-1.94-1.515H46.28a2 2 0 0 0-1.94 2.485l1.5 6.002a1.997 1.997 0 0 0 1.94 1.514h1.939a2 2 0 0 0 1.94-2.485zm-2.379 6.486-1.5-6.001h1.939l1.5 6.001zM40.102 47.414a2.003 2.003 0 0 0-1.985-1.752h-1.984a2 2 0 0 0-1.984 2.248l.75 6.001a2.003 2.003 0 0 0 1.984 1.752h1.984a2 2 0 0 0 1.985-2.248zm-3.209 6.25h-.01l-.75-6.002h1.984l.75 6.001zM32 35.987a5.006 5.006 0 0 0 5-5c0-2.4-3.48-7.559-4.177-8.569a1.037 1.037 0 0 0-1.646 0C30.48 23.428 27 28.588 27 30.987a5.006 5.006 0 0 0 5 5zm0-11.192c1.44 2.25 3 5.1 3 6.192a3 3 0 0 1-6 0c0-1.092 1.56-3.943 3-6.192zM32 17.987a5.006 5.006 0 0 0 5-5c0-2.4-3.48-7.56-4.177-8.57a1.037 1.037 0 0 0-1.646 0C30.48 5.428 27 10.588 27 12.988a5.006 5.006 0 0 0 5 5zm0-11.193c1.44 2.25 3 5.1 3 6.192a3 3 0 0 1-6 0c0-1.092 1.56-3.942 3-6.192zM45 26.987a5.006 5.006 0 0 0 5-5c0-2.4-3.479-7.56-4.177-8.569a1.037 1.037 0 0 0-1.645 0C43.48 14.428 40 19.588 40 21.987a5.006 5.006 0 0 0 5 5zm0-11.192c1.44 2.25 3 5.1 3 6.192a3 3 0 1 1-6 0c0-1.093 1.561-3.943 3-6.192zM19 26.987a5.006 5.006 0 0 0 5-5c0-2.4-3.48-7.56-4.178-8.569a1.037 1.037 0 0 0-1.645 0c-.698 1.01-4.178 6.17-4.178 8.569a5.006 5.006 0 0 0 5 5zm0-11.192c1.439 2.25 3 5.1 3 6.192a3 3 0 0 1-6 0c0-1.093 1.56-3.943 3-6.192z" fill="#0f3c78" opacity="1" data-original="#000000"></path></g></svg>