<svg xmlns="http://www.w3.org/2000/svg" version="1.1" xmlns:xlink="http://www.w3.org/1999/xlink" width="512" height="512" x="0" y="0" viewBox="0 0 64 64" style="enable-background:new 0 0 512 512" xml:space="preserve" class=""><g><g data-name="Electric Plug"><path d="M44.85 27.47A1 1 0 0 0 44 27H33V12a1 1 0 0 0-1.89-.45l-12 24A1 1 0 0 0 20 37h11v15a1 1 0 0 0 .77.97.908.908 0 0 0 .23.03 1 1 0 0 0 .89-.55l12-24a1.007 1.007 0 0 0-.04-.98ZM33 47.76V36a1 1 0 0 0-1-1H21.62L31 16.24V28a1 1 0 0 0 1 1h10.38Z" fill="#0f3c78" opacity="1" data-original="#000000" class=""></path><path d="M56.41 14.58a4.988 4.988 0 0 0-.37-6.62l-2.83-2.83a1.024 1.024 0 0 0-1.41 0l-.71.71-2.83-2.83-1.41 1.41 2.83 2.83-1.42 1.42-2.83-2.83-1.41 1.41 2.83 2.83-.71.71a1 1 0 0 0 0 1.41l2.83 2.83a4.936 4.936 0 0 0 5.9.84A27.678 27.678 0 0 1 60 32a28.025 28.025 0 0 1-38.62 25.92l-.76 1.85A30.025 30.025 0 0 0 62 32a29.669 29.669 0 0 0-5.59-17.42Zm-1.78-.96a3.03 3.03 0 0 1-4.25 0l-2.12-2.13 4.25-4.24 2.12 2.12a3.012 3.012 0 0 1 0 4.25ZM32 2A30.037 30.037 0 0 0 2 32a29.669 29.669 0 0 0 5.59 17.42 4.988 4.988 0 0 0 .37 6.62l2.83 2.83a.967.967 0 0 0 .7.29.99.99 0 0 0 .71-.29l.71-.71 2.83 2.83 1.41-1.41-2.83-2.83 1.42-1.42 2.83 2.83 1.41-1.41-2.83-2.83.71-.71a1 1 0 0 0 0-1.41l-2.83-2.83a4.987 4.987 0 0 0-5.9-.84A27.678 27.678 0 0 1 4 32 28.031 28.031 0 0 1 32 4a27.733 27.733 0 0 1 10.62 2.09l.76-1.86A29.93 29.93 0 0 0 32 2ZM9.37 50.38a3.03 3.03 0 0 1 4.25 0l2.12 2.13-4.25 4.24-2.12-2.12a3.012 3.012 0 0 1 0-4.25Z" fill="#0f3c78" opacity="1" data-original="#000000" class=""></path></g></g></svg>