<svg xmlns="http://www.w3.org/2000/svg" version="1.1" xmlns:xlink="http://www.w3.org/1999/xlink" width="512" height="512" x="0" y="0" viewBox="0 0 512 512" style="enable-background:new 0 0 512 512" xml:space="preserve"><g><path d="M496 456.06h-28.364V326.302c20.224-5.17 35.236-23.491 35.357-45.275l.002-.071c0-.065.005-.129.005-.194h-.01c0-.745-.109-1.494-.352-2.218L467.635 173.81V72.121a7 7 0 0 0-7-7H359.271C337.279 31.365 299.205 9 256 9s-81.279 22.365-103.271 56.121H51.364a7 7 0 0 0-7 7v101.691L9.361 278.543a6.983 6.983 0 0 0-.352 2.218H9c0 .065.005.129.005.194l.002.071c.122 21.784 15.134 40.105 35.357 45.275V456.06H16a7 7 0 0 0-7 7V496a7 7 0 0 0 7 7h480a7 7 0 0 0 7-7v-32.94a7 7 0 0 0-7-7zm-40-142.298c-15.794 0-29.025-11.156-32.246-26h64.491c-3.22 14.844-16.451 26-32.245 26zM143.349 181.949c7.182 16.19 17.753 30.551 30.811 42.184l-4.546 49.629H104.55l18.491-91.812h20.308zm225.302 0h20.309l18.49 91.812h-65.062l-4.546-49.63c13.056-11.631 23.627-25.992 30.809-42.182zm-43.933 52.393 3.611 39.42H263v-18.625c22.761-1.281 43.892-8.766 61.718-20.795zM249 273.762h-65.329l3.611-39.419c17.827 12.028 38.957 19.513 61.717 20.795v18.624zm-80.753 14c-3.22 14.844-16.452 26-32.247 26-15.794 0-29.025-11.156-32.246-26zm79.999 0c-3.22 14.844-16.451 26-32.245 26s-29.025-11.156-32.246-26zm80 0c-3.22 14.844-16.452 26-32.246 26s-29.025-11.156-32.246-26zm80 0c-3.22 14.844-16.452 26-32.246 26s-29.025-11.156-32.246-26zm13.485-14-18.49-91.812h52.355l30.685 91.812zm31.905-194.641v88.829h-79.772a122.75 122.75 0 0 0 5.306-35.779c0-18.983-4.32-36.975-12.023-53.049h86.489zM256 23c60.196 0 109.17 48.973 109.17 109.17S316.196 241.341 256 241.341s-109.17-48.974-109.17-109.17S195.804 23 256 23zM144.853 79.121c-7.703 16.074-12.023 34.066-12.023 53.049a122.75 122.75 0 0 0 5.306 35.779H58.364V79.121zM56.405 181.949h52.355l-18.491 91.812H25.72zM23.754 287.762h64.491c-3.22 14.844-16.452 26-32.246 26s-29.024-11.156-32.245-26zm34.61 39.922c15.893-.793 29.737-9.497 37.636-22.267 8.289 13.4 23.119 22.345 40 22.345s31.712-8.945 40.001-22.345c8.289 13.4 23.119 22.345 40 22.345 16.88 0 31.71-8.945 39.999-22.344 8.289 13.399 23.119 22.344 40 22.344s31.711-8.945 40-22.345c8.289 13.4 23.119 22.345 40 22.345s31.711-8.945 40-22.345c7.899 12.769 21.743 21.474 37.636 22.267V456.06h-40.534v-37.07c0-21.824-8.746-42.082-24.626-57.041-16.095-15.161-38.287-23.511-62.49-23.511s-46.396 8.35-62.489 23.511c-15.881 14.96-24.627 35.217-24.627 57.041v37.07h-34.358v-64.816c0-29.117-23.689-52.806-52.807-52.806s-52.806 23.689-52.806 52.806v64.816H58.364zm274.621 25.04c31.941 2.519 56.738 22.186 63.964 49.526h-63.964zm-14 49.525h-63.964c7.226-27.339 32.023-47.007 63.964-49.526zm-66.116 16.741c0-.921.034-1.831.071-2.74h66.045v39.811h-66.116zm80.116-2.741h66.045c.037.909.071 1.82.071 2.74v37.07h-66.116zM190.511 456.06h-77.612v-64.816c0-21.398 17.408-38.806 38.806-38.806s38.807 17.408 38.807 38.806v64.816zM489 489H23v-18.94h466zM295.731 147.097l-.001 53.777a7 7 0 1 0 14 0l.001-137.408a6.997 6.997 0 0 0-7-7c-19.118 0-32.471 20.215-32.471 49.159v6.018c.001 15.19 8.565 27.102 25.471 35.454zm-11.47-41.472c0-15.583 4.544-27.897 11.471-32.827v58.206c-7.782-5.247-11.471-11.543-11.471-19.362zm-81.992-15.26v-28.37a7 7 0 1 1 14 0v28.37a8.548 8.548 0 0 0 2.646 6.187V61.995a7 7 0 1 1 14 0v34.556a8.543 8.543 0 0 0 2.646-6.186v-28.37a7 7 0 1 1 14 0v28.37c0 10.395-7.065 19.171-16.646 21.779v90.201a7 7 0 1 1-14 0v-90.201c-9.58-2.608-16.646-11.384-16.646-21.779z" fill="#0f3c78" opacity="1" data-original="#000000"></path></g></svg>