<svg xmlns="http://www.w3.org/2000/svg" version="1.1" xmlns:xlink="http://www.w3.org/1999/xlink" width="512" height="512" x="0" y="0" viewBox="0 0 512 512" style="enable-background:new 0 0 512 512" xml:space="preserve" class=""><g><path d="M506.552 317.933c-9.739-14.312-29.351-18.1-43.707-8.452l-65.34 43.728-.19-136.11 22.7 21.265a25.843 25.843 0 0 0 17.729 7.009h.039a26.04 26.04 0 0 0 18.898-8.205c4.737-5.057 7.222-11.655 6.996-18.581-.226-6.926-3.136-13.349-8.193-18.086l-43.035-40.314a7.31 7.31 0 0 0-9.993 10.667l43.035 40.314a11.25 11.25 0 0 1 3.577 7.895 11.248 11.248 0 0 1-3.055 8.111 11.215 11.215 0 0 1-8.252 3.582h-.017c-2.883 0-5.63-1.086-7.737-3.06l-.001-.001L259.124 67.616a7.308 7.308 0 0 0-10.007.014L78.679 228.188a11.275 11.275 0 0 1-8.103 3.076 11.245 11.245 0 0 1-7.905-3.556 11.245 11.245 0 0 1-3.076-8.102 11.25 11.25 0 0 1 3.554-7.905L246.326 39.143c4.342-4.091 11.154-4.101 15.507-.021L369 139.514a7.308 7.308 0 0 0 9.993-10.667L271.827 28.455c-9.973-9.344-25.576-9.323-35.523.049l-58.639 55.24-.016-9.853a11.546 11.546 0 0 0-3.417-8.216 11.548 11.548 0 0 0-8.209-3.394h-.017l-41.947.059a11.548 11.548 0 0 0-8.216 3.417 11.55 11.55 0 0 0-3.393 8.227l.116 71.087-59.439 55.993c-5.044 4.751-7.935 11.182-8.142 18.108-.207 6.926 2.296 13.518 7.047 18.56 4.75 5.044 11.181 7.936 18.108 8.143.265.008.53.012.795.012 6.635 0 12.918-2.49 17.767-7.06l22.649-21.336.09 64.291a154 154 0 0 0-22.19-1.627H76.746v-4.382c0-14.711-11.969-26.68-26.68-26.68H26.68C11.969 249.092 0 261.06 0 275.772V390.29a7.308 7.308 0 0 0 14.616 0V275.772c0-6.652 5.412-12.064 12.064-12.064h23.385c6.652 0 12.064 5.412 12.064 12.064V448.833c0 6.652-5.412 12.064-12.064 12.064H26.68c-6.652 0-12.064-5.412-12.064-12.064v-12.788a7.308 7.308 0 0 0-14.616 0v12.788c0 14.711 11.969 26.68 26.68 26.68h23.385c14.711 0 26.68-11.968 26.68-26.68v-.993l107.024 40.528c.198.075.399.141.603.198 4.653 1.314 9.304 1.973 13.896 1.973 2.484 0 4.951-.193 7.393-.579l157.281-22.672.11-.017a76.996 76.996 0 0 0 36.48-16.346c.091-.074.181-.151.268-.23l101.611-91.388c11.833-10.505 14.042-28.292 5.141-41.374zM163.037 76.902l.034 20.59-35.912 33.83-.089-54.371 35.967-.049zm91.104 6.074 128.538 120.412.223 159.593-20.691 13.848L340.3 375.6l-.579-5.82a46.279 46.279 0 0 0-37.18-40.922l-.132-94.945c-.01-7.286-5.942-13.207-13.227-13.207h-.018l-69.654.098a13.137 13.137 0 0 0-9.347 3.887 13.137 13.137 0 0 0-3.861 9.357l.116 82.781a138.887 138.887 0 0 1-39.288-15.568 153.941 153.941 0 0 0-4.654-2.611c-.61-.329-1.23-.638-1.845-.959-.952-.497-1.902-.997-2.864-1.474-.766-.38-1.541-.74-2.313-1.107-.819-.389-1.637-.782-2.462-1.157-.84-.381-1.687-.744-2.533-1.11-.773-.334-1.546-.67-2.324-.991-.87-.359-1.745-.704-2.621-1.047-.777-.304-1.555-.606-2.336-.898-.867-.324-1.738-.637-2.611-.944a152.085 152.085 0 0 0-7.679-2.483c-.775-.228-1.549-.456-2.328-.672a153.144 153.144 0 0 0-3.062-.81c-.479-.123-.955-.262-1.437-.381l-.113-80.878L254.141 82.976zm33.782 244.053-61.125-7.037-5.759-.663-.118-83.911 66.874-.094.128 91.705zm203.75 21.381-101.511 91.298a62.364 62.364 0 0 1-29.361 13.122l-157.213 22.662-.098.015-.109.017c-4.763.754-9.723.436-14.744-.942L76.746 432.21V294.77h12.505a139.552 139.552 0 0 1 32.661 3.888c1.265.305 2.527.619 3.783.959l.329.092c1.259.344 2.513.707 3.763 1.086.224.068.449.135.672.204 1.33.411 2.654.84 3.971 1.29l.407.142a139.368 139.368 0 0 1 8.579 3.282 139.403 139.403 0 0 1 4.092 1.797c1.276.586 2.543 1.194 3.802 1.819.148.073.297.145.445.219 1.23.615 2.45 1.252 3.663 1.904.229.123.457.249.686.373 1.224.667 2.441 1.347 3.646 2.052 17.391 10.173 36.323 16.762 56.271 19.585.063.009.125.017.188.024l81.881 9.427a31.695 31.695 0 0 1 26.101 22.994c.472 1.718.804 3.496.986 5.319l.325 3.27-153.46-13.445a7.307 7.307 0 1 0-1.276 14.56l162.242 14.215c.039.003.077.002.115.005.038.003.075.009.114.012l30.597 1.717c.137.008.273.011.409.011.145 0 .288-.023.432-.032.163-.01.326-.016.488-.036.218-.028.431-.075.645-.122.153-.034.307-.059.457-.103.234-.067.459-.158.686-.249.122-.049.248-.086.368-.142.341-.158.673-.34.989-.552l25.972-17.381.003-.003 76.702-51.332c7.717-5.187 18.251-3.152 23.482 4.536 4.782 7.026 3.595 16.581-2.794 22.255z" fill="#0f3c78" opacity="1" data-original="#000000"></path></g></svg>