<svg xmlns="http://www.w3.org/2000/svg" version="1.1" xmlns:xlink="http://www.w3.org/1999/xlink" width="512" height="512" x="0" y="0" viewBox="0 0 468 468" style="enable-background:new 0 0 512 512" xml:space="preserve" class=""><g><path d="M239.174 105.51c-7.425-4.34-17.241-2.919-27.518 3.789-5.448-10.406-13.08-16.783-21.656-16.783s-16.208 6.377-21.656 16.782c-10.276-6.708-20.093-8.131-27.518-3.789-14.633 8.558-13.843 36.756 1.8 64.196 11.9 20.877 28.471 34.692 42.374 36.067v30.551a5 5 0 1 0 10 0v-30.552c13.902-1.377 30.475-15.191 42.375-36.067 15.642-27.439 16.432-55.637 1.799-64.194zm-87.861 59.244c-13.553-23.775-13.744-45.755-5.438-50.611 4.254-2.492 11.041-.775 18.517 4.554-6.866 20.539-6.586 45.723 1.895 65.757-5.171-5.015-10.367-11.619-14.974-19.7zM190 195.608c-9.556 0-20.203-19.116-20.203-46.545 0-27.43 10.647-46.546 20.203-46.546s20.203 19.116 20.203 46.546c0 27.429-10.647 46.545-20.203 46.545zm38.688-30.854c-4.604 8.078-9.796 14.659-14.963 19.672 8.468-20.029 8.747-45.198 1.883-65.729 7.475-5.329 14.261-7.046 18.517-4.554 8.305 4.856 8.114 26.836-5.437 50.611z" fill="#0f3c78" opacity="1" data-original="#000000"></path><path d="M463 458H52.626c1.202-35.37-12.125-70.284-35.345-96.821 49.474 5.168 60.617 51.471 62.916 66.44.941 6.126 10.749 5.004 9.899-1.416-4.595-34.672 5.277-60.008 12.553-73.262 7.145 40.051 24.953 72.522 25.787 74.027 2.213 3.992 8.393 3.023 9.278-1.455 9.196-46.55 2.676-96.736-17.56-139.646 48.772 15.24 62.094 91.708 65.009 114.55.212 2.207.455 4.431.73 6.674.748 6.073 10.431 5.388 9.948-.986-.027-.362-.245-3.131-.818-7.643-3.943-42.892 3.619-87.155 22.623-125.894-2.475 45.674 6.951 95.99 27.971 136.904 2.711 5.27 10.954 1.927 9.229-3.742-8.021-26.379.676-53.466 18.088-74.035-1.362 42.943 13.357 77.44 14.049 79.035 1.916 4.41 8.581 3.681 9.496-1.041 11.915-61.576 1.704-109.261-8.96-138.42-5.763-15.76-12.206-27.89-17.313-36.203 46.063 22.854 52.982 91.659 55.397 115.675.271 2.708.487 4.846.704 6.39 1.03 7.348 9.274 9.069 11.184.842 15.148-65.387 44.015-98.187 65.563-114.189 10.259-7.619 19.882-12.261 27.448-15.072-45.114 52.404-66.692 130.046-66.788 198.404-.009 5.891 9.245 6.671 9.965.596 4.836-40.758 30.576-71.441 72.906-74.986-11.891 11.46-21.154 30.791-27.64 57.752a5 5 0 0 0 9.722 2.339c8.012-33.309 20.521-54.191 36.172-60.392 4.687-1.856 3.808-8.95-1.19-9.606-33.063-4.353-68.812 11.105-86 39.921 8.488-57.633 28.97-118.3 71.854-159.6 3.314-3.193.706-8.982-3.891-8.583-.907.077-22.505 2.097-47.929 20.76-18.729 13.749-42.567 39.137-59.414 84.873v-84.417c13.902-1.377 30.475-15.192 42.374-36.067 15.643-27.44 16.433-55.639 1.8-64.196-7.427-4.341-17.242-2.918-27.518 3.789-5.448-10.406-13.08-16.782-21.656-16.782s-16.208 6.377-21.656 16.783c-10.277-6.709-20.093-8.13-27.518-3.789-14.633 8.557-13.843 36.755 1.799 64.196 11.901 20.877 28.472 34.692 42.375 36.067v68.9c-8.555-34.241-27.163-74.002-69.981-84.532-4.616-1.132-8.075 4.486-4.997 8.102.139.163 14.021 16.669 25.007 46.927 8.941 24.63 17.528 63.105 11.54 112.456-4.435-16.395-9.063-41.592-5.967-68.633.5-4.382-4.749-7.231-8.15-4.425-17.58 14.508-30.386 37.432-33.33 59.969-9.631-28.978-20.27-75.354-12.314-124.249.824-5.075-5.948-7.9-8.977-3.748-21.755 29.891-32.603 70.143-35.997 106.38-11.083-35.191-33.354-73.994-73.614-79.132-4.057-.516-7.017 4.002-4.93 7.517.347.583 32.204 55.273 23.797 126.68-6.793-15.345-16.629-41.42-19.675-69.35-.464-4.254-5.945-5.969-8.748-2.733-.942 1.086-18.439 21.735-22.294 58.12-3.646-7.132-8.499-14.463-14.912-21.023v-77.226c13.902-1.376 30.476-15.191 42.375-36.067 15.642-27.44 16.432-55.639 1.8-64.196-7.427-4.342-17.242-2.92-27.519 3.789-5.448-10.406-13.08-16.782-21.656-16.782S43.52 188.895 38.072 199.3c-10.277-6.709-20.094-8.131-27.519-3.789-14.632 8.557-13.842 36.755 1.8 64.196 11.9 20.877 28.471 34.692 42.374 36.067v68.682c-12.132-8.584-28.31-14.313-49.873-13.7-4.478.13-6.511 5.883-3.106 8.796.443.378 43.118 37.661 40.874 98.448H5a5 5 0 1 0 0 10h458a5 5 0 1 0 0-10zM358.879 148.697c7.476-5.329 14.259-7.044 18.517-4.554 8.306 4.856 8.114 26.836-5.438 50.611-4.605 8.079-9.801 14.679-14.971 19.693 8.478-20.033 8.758-45.213 1.892-65.75zm-64.295 46.057c-13.552-23.775-13.742-45.755-5.438-50.611 4.255-2.492 11.041-.775 18.517 4.555-6.864 20.533-6.585 45.705 1.886 65.735-5.167-5.013-10.361-11.603-14.965-19.679zm18.484-15.691c0-27.43 10.647-46.546 20.203-46.546s20.203 19.116 20.203 46.546-10.647 46.545-20.203 46.545-20.203-19.116-20.203-46.545zM85.336 208.697c7.477-5.329 14.26-7.044 18.518-4.555 8.305 4.857 8.113 26.837-5.438 50.612-4.607 8.082-9.803 14.682-14.973 19.695 8.479-20.033 8.759-45.215 1.893-65.752zm-64.294 46.057c-13.552-23.775-13.743-45.755-5.438-50.611 4.255-2.491 11.042-.774 18.518 4.554-6.864 20.533-6.585 45.707 1.887 65.738-5.169-5.013-10.363-11.604-14.967-19.681zm18.484-15.691c0-27.43 10.646-46.546 20.202-46.546s20.203 19.116 20.203 46.546-10.647 46.545-20.203 46.545-20.202-19.116-20.202-46.545zM406 90.75c-15.853 0-28.75-12.897-28.75-28.75S390.147 33.25 406 33.25 434.75 46.147 434.75 62 421.853 90.75 406 90.75zm0-47.5c-10.339 0-18.75 8.411-18.75 18.75s8.411 18.75 18.75 18.75 18.75-8.411 18.75-18.75-8.411-18.75-18.75-18.75zM406 21.06a5 5 0 0 1-5-5V5a5 5 0 1 1 10 0v11.06a5 5 0 0 1-5 5zM373.516 34.515a4.983 4.983 0 0 1-3.535-1.464l-7.82-7.82a5 5 0 1 1 7.07-7.071l7.82 7.82c2.969 2.968.662 8.535-3.535 8.535zM360.06 67H349a5 5 0 1 1 0-10h11.06a5 5 0 1 1 0 10zM365.695 107.305c-4.198 0-6.504-5.568-3.535-8.536l7.82-7.82a5 5 0 0 1 7.07 7.071l-7.82 7.82a4.978 4.978 0 0 1-3.535 1.465zM406 124a5 5 0 0 1-5-5v-11.06a5 5 0 1 1 10 0V119a5 5 0 0 1-5 5zM446.305 107.305a4.983 4.983 0 0 1-3.535-1.464l-7.82-7.82a5 5 0 1 1 7.07-7.071l7.82 7.82c2.969 2.968.662 8.535-3.535 8.535zM463 67h-11.06a5 5 0 1 1 0-10H463a5 5 0 1 1 0 10zM438.484 34.515c-4.198 0-6.504-5.568-3.535-8.536l7.82-7.82a5 5 0 0 1 7.07 7.071l-7.82 7.82a4.978 4.978 0 0 1-3.535 1.465zM135.345 34.357c-16.228 0-23.291 11.277-25.703 21.108-6.751-10.091-3.126-24.579 7.707-30.101a5.001 5.001 0 0 0 2.184-6.725 4.994 4.994 0 0 0-6.719-2.186c-13.291 6.775-19.788 22.845-15.148 37.011-3.181-.063-6.505.45-9.515 1.507.687-8.75.396-15.843-.901-21.115-3.568-14.491-16.023-37.55-34.554-32.755-20.765 5.375-19.299 37.293-12.773 52.36-11.592-4.8-31.722-6.996-38.118 7.114C-7.53 81.157 21.594 97.19 37.669 99.421c-11.916 13.705-24.074 39.154-10.132 55.422 12.988 15.157 36.911 7.771 51.375-.979 15.852-9.589 27.45-25.487 31.409-43.639 7.175-1.049 14.238-4.613 17.844-11.168 6.144-11.167.321-26.791-9.539-36.374.248-4.232 2.165-18.325 16.719-18.325 2.76 0 4.996-2.239 4.996-5s-2.236-5.001-4.996-5.001zM55.198 10.782c12.036-3.115 20.258 16.972 22.35 25.466 1.383 5.62 1.303 14.605-.22 26.037-3.835 4.407-6.096 10.232-6.366 16.063-.655.179-1.305.369-1.953.568-9.023-10.999-19.158-22.741-22.248-37.029-1.771-8.186-2.86-28.18 8.437-31.105zM27.639 86.621C14.681 80.532 8.42 70.185 10.903 64.708c3.818-8.417 18.956-4.635 25.044-2.016 9.513 4.092 16.691 12.291 23.037 20.221a68.138 68.138 0 0 0-11.729 7.395c-11.056-.654-16.761-2.345-19.616-3.687zm19.729 66.949c-4.687.285-9.152-1.627-12.245-5.237-8.45-9.859-1.073-26.112 4.825-35.351 7.454-11.676 19.059-20.628 32.344-24.609 3.892 12.38 15.186 20.268 27.751 21.906-6.223 23.954-27.556 41.813-52.675 43.291zm72.044-59.336c-5.183 9.419-21.084 7.14-28.588 2.594-9-5.453-12.537-16.767-7.886-25.222 4.844-8.804 16.071-9.895 24.209-5.296 9.134 5.534 16.74 19.791 12.265 27.924z" fill="#0f3c78" opacity="1" data-original="#000000"></path><path d="M102.709 74.966c3.21 2.458 4.445 6.585 2.76 9.218s-5.654 2.774-8.864.316-4.445-6.585-2.76-9.218c1.685-2.632 5.654-2.774 8.864-.316z" fill="#0f3c78" opacity="1" data-original="#000000"></path><ellipse cx="417.312" cy="437.507" rx="6.5" ry="6.507" fill="#0f3c78" opacity="1" data-original="#000000"></ellipse><ellipse cx="189.685" cy="264" rx="6.5" ry="6.507" fill="#0f3c78" opacity="1" data-original="#000000"></ellipse></g></svg>