<svg xmlns="http://www.w3.org/2000/svg" version="1.1" xmlns:xlink="http://www.w3.org/1999/xlink" width="512" height="512" x="0" y="0" viewBox="0 0 64 64" style="enable-background:new 0 0 512 512" xml:space="preserve" class=""><g><path d="M61 52.487h-4.271v-4.71l.001-.01-.001-.01V31.35h.36a1 1 0 0 0 .913-.59l3.91-8.72A1.002 1.002 0 0 0 61 20.63h-4.306l2.97-6.631a1.002 1.002 0 0 0-.914-1.41H43.63v-2.08a1 1 0 0 0-1-1H21.37a1 1 0 0 0-1 1v2.08H5.25A1 1 0 0 0 4.337 14l2.969 6.63H3a1.001 1.001 0 0 0-.912 1.41l3.91 8.72a1 1 0 0 0 .912.591h.361v16.411l-.001.009.001.099v4.618H3a1 1 0 1 0 0 2H61a1 1 0 1 0 0-2zm-6.271-5.713-6.265.022V31.35h6.265zm-37.193 1.065c0-.007.004-.012.004-.02s-.004-.012-.004-.019V31.35h9.332v21.137h-9.332zM28.868 31.35h6.264v15.47h-6.264zm8.264 0h9.332v16.434c0 .007-.004.013-.004.02 0 .006.004.012.004.019v4.664h-9.332zm20.075-16.76-2.704 6.04H43.63v-6.04zM22.37 11.51h19.26V20.63H22.37v-7.04zM6.793 14.59H20.37v6.04H9.497zm-2.25 8.04h54.913l-3.014 6.72h-.699c-.005 0-.01-.003-.014-.003h-8.265l-.015.003H36.146c-.005 0-.009-.003-.014-.003h-8.264c-.005 0-.01.003-.014.003H16.55l-.015-.003H8.271c-.005 0-.009.003-.014.003h-.7zm10.993 8.72v15.47a686.85 686.85 0 0 1-6.265-.024V31.35zM9.271 52.487v-3.694c.362.007.78.01 1.283.013 1.251.008 2.96.012 4.982.014v3.667zm19.597 0V48.82h6.264v3.667zm19.596 0v-3.69l6.265-.023v3.713z" fill="#0f3c78" opacity="1" data-original="#000000"></path><path d="M31.532 15.21h7.404a1 1 0 1 0 0-2h-7.404a1 1 0 1 0 0 2zM25.064 15.21h2.355a1 1 0 1 0 0-2h-2.355a1 1 0 1 0 0 2zM25.064 18.61h13.872a1 1 0 1 0 0-2H25.064a1 1 0 1 0 0 2z" fill="#0f3c78" opacity="1" data-original="#000000"></path></g></svg>