<svg xmlns="http://www.w3.org/2000/svg" version="1.1" xmlns:xlink="http://www.w3.org/1999/xlink" width="512" height="512" x="0" y="0" viewBox="0 0 64 64" style="enable-background:new 0 0 512 512" xml:space="preserve"><g><path d="M60.12 19.875a3.972 3.972 0 0 0-1.173-2.828l-3.356-3.357 2.6-2.6a3.499 3.499 0 0 0 0-4.943 3.563 3.563 0 0 0-5.28-.338l-2.6 2.6-3.358-3.357a4 4 0 0 0-5.656 0l-2.991 2.991c-4.906-4.6-12.41 3.087-7.67 7.884l6.079 6.078-14.71 14.71-6.078-6.078c-4.79-4.736-12.473 2.75-7.884 7.668l-2.99 2.991a4 4 0 0 0 0 5.657l3.356 3.357-2.6 2.6c-3.259 3.316 1.944 8.553 5.28 5.282l2.6-2.601 3.358 3.357a4 4 0 0 0 5.656 0l2.991-2.991c4.906 4.6 12.41-3.088 7.67-7.884l-6.079-6.078 14.71-14.71 6.078 6.078a5.229 5.229 0 0 0 7.787-.558 5.108 5.108 0 0 0 .097-7.11l2.99-2.991a3.973 3.973 0 0 0 1.172-2.829zM54.323 7.223c1.42-1.442 3.895 1.03 2.453 2.452l-2.6 2.6-2.452-2.452zM9.676 56.777c-1.42 1.442-3.895-1.03-2.453-2.452l2.6-2.6 2.452 2.452zm11.613.757a2.049 2.049 0 0 1-2.828 0L6.467 45.539a2.01 2.01 0 0 1 0-2.829l2.98-2.98L24.27 54.553zm10.66-3.646a3.363 3.363 0 0 1-5.558-.042L9.554 37.01a3.265 3.265 0 0 1 .558-4.958 3.115 3.115 0 0 1 4.4 0L31.95 49.487a3.116 3.116 0 0 1 0 4.4zm8.632-28.016L25.871 40.58l-2.452-2.453 14.71-14.71zm13.865 5.519a3.265 3.265 0 0 1-4.959.558L32.051 14.513a3.115 3.115 0 0 1 0-4.4 3.643 3.643 0 0 1 2.759-1.47 3.703 3.703 0 0 1 2.8 1.51l16.237 16.238.6.6a3.115 3.115 0 0 1 0 4.4zm3.087-10.101-2.98 2.98L39.73 9.447l2.98-2.98a2.049 2.049 0 0 1 2.83 0L57.532 18.46a2.01 2.01 0 0 1 0 2.829z" fill="#0f3c78" opacity="1" data-original="#000000"></path></g></svg>