<svg xmlns="http://www.w3.org/2000/svg" version="1.1" xmlns:xlink="http://www.w3.org/1999/xlink" width="512" height="512" x="0" y="0" viewBox="0 0 512 512" style="enable-background:new 0 0 512 512" xml:space="preserve" class=""><g><path d="M440.2 193.9c-2.7 0-4.8-2.2-4.8-4.8v-19.6L256 66.4l-179.2 103V189c0 2.7-2.2 4.8-4.8 4.8-2.7 0-4.8-2.2-4.8-4.8v-22.4c0-1.8.9-3.4 2.4-4.3l184-105.8c1.5-.8 3.4-.8 4.8 0l184.1 105.8c1.5.8 2.4 2.5 2.4 4.3V189c.1 2.8-2 4.9-4.7 4.9z" fill="#0f3c78" opacity="1" data-original="#000000" class=""></path><path d="M446.5 219.5H65.6c-4.4 0-7.9-3.5-7.9-7.9V192c0-4.4 3.5-7.9 7.9-7.9h380.9c4.4 0 7.9 3.5 7.9 7.9v19.6c0 4.4-3.5 7.9-7.9 7.9zm-379.1-9.8h377.2v-15.9H67.4zM449.6 430.4c-2.7 0-4.8-2.1-4.8-4.8v-20.8H67.4v20.8c0 2.7-2.2 4.8-4.8 4.8s-4.8-2.1-4.8-4.8v-22.7c0-4.3 3.5-7.8 7.8-7.8h381.1c4.3 0 7.8 3.5 7.8 7.8v22.7c-.1 2.6-2.2 4.8-4.9 4.8z" fill="#0f3c78" opacity="1" data-original="#000000" class=""></path><path d="M463.2 456.1H48.9c-4.4 0-7.9-3.5-7.9-7.9v-19.6c0-4.4 3.5-7.9 7.9-7.9h414.2c4.4 0 7.9 3.5 7.9 7.9v19.6c.1 4.4-3.5 7.9-7.8 7.9zm-412.4-9.7h410.4v-15.9H50.8zM147.5 248.2H89.2c-4.7 0-8.5-3.8-8.5-8.5v-25c0-2.7 2.2-4.8 4.8-4.8 2.7 0 4.8 2.2 4.8 4.8v23.7h55.8v-23.7c0-2.7 2.2-4.8 4.8-4.8s4.8 2.2 4.8 4.8v25c.3 4.7-3.5 8.5-8.2 8.5zM151.2 404.8c-2.7 0-4.8-2.1-4.8-4.8v-23.7H90.5V400c0 2.7-2.2 4.8-4.8 4.8-2.7 0-4.8-2.1-4.8-4.8v-25c0-4.7 3.8-8.5 8.5-8.5h58.4c4.7 0 8.5 3.8 8.5 8.5v25c-.2 2.6-2.4 4.8-5.1 4.8z" fill="#0f3c78" opacity="1" data-original="#000000" class=""></path><path d="M137.4 376.1c-2.7 0-4.8-2.1-4.8-4.8V243.4c0-2.7 2.2-4.8 4.8-4.8s4.8 2.2 4.8 4.8v127.8c.1 2.7-2.1 4.9-4.8 4.9zM99.3 376.1c-2.7 0-4.8-2.1-4.8-4.8V243.4c0-2.7 2.2-4.8 4.8-4.8 2.7 0 4.8 2.2 4.8 4.8v127.8c.1 2.7-2.1 4.9-4.8 4.9zM422.9 248.2h-58.4c-4.7 0-8.5-3.8-8.5-8.5v-25c0-2.7 2.1-4.8 4.8-4.8s4.8 2.2 4.8 4.8v23.7h55.8v-23.7c0-2.7 2.1-4.8 4.8-4.8s4.8 2.2 4.8 4.8v25c.3 4.7-3.5 8.5-8.1 8.5zM426.6 404.8c-2.7 0-4.8-2.1-4.8-4.8v-23.7h-55.9V400c0 2.7-2.1 4.8-4.8 4.8s-4.8-2.1-4.8-4.8v-25c0-4.7 3.8-8.5 8.5-8.5h58.4c4.7 0 8.5 3.8 8.5 8.5v25c-.3 2.6-2.4 4.8-5.1 4.8z" fill="#0f3c78" opacity="1" data-original="#000000" class=""></path><path d="M412.8 376.1c-2.7 0-4.8-2.1-4.8-4.8V243.4c0-2.7 2.1-4.8 4.8-4.8s4.8 2.2 4.8 4.8v127.8c.1 2.7-2.1 4.9-4.8 4.9zM374.6 376.1c-2.7 0-4.8-2.1-4.8-4.8V243.4c0-2.7 2.1-4.8 4.8-4.8s4.8 2.2 4.8 4.8v127.8c.2 2.7-2.1 4.9-4.8 4.9zM256 169.8c-.9 0-1.9-.3-2.7-.8-25-16.8-34.1-31.7-37.2-41.3-3.5-10.5.2-22.4 9-28.9 5.7-4.2 17-8.7 31.1 5.2 14.2-14 25.3-9.5 31-5.2 8.9 6.5 12.6 18.1 8.9 28.9-4.7 14-17.2 27.8-37.3 41.3-1 .5-1.9.8-2.8.8zm-19.1-65.4c-3.1 0-5.1 1.5-6.1 2.2-5.4 4-7.6 11.3-5.5 17.9 2.6 7.7 10.1 19.9 30.7 34.4 20.7-14.4 28.1-26.6 30.7-34.4 2.2-6.6 0-14-5.5-17.9l-.1-.1c-6-4.6-13.1-2-21.4 7.7-.9 1.1-2.3 1.8-3.7 1.8s-2.8-.7-3.7-1.8c-6.7-7.7-11.8-9.8-15.4-9.8zM317.8 404.8c-2.7 0-4.8-2.1-4.8-4.8v-74.8c0-31.4-25.5-56.9-56.9-56.9s-56.9 25.5-56.9 56.9V400c0 2.7-2.2 4.8-4.8 4.8-2.7 0-4.8-2.1-4.8-4.8v-74.8c0-36.8 29.9-66.7 66.7-66.7s66.7 29.9 66.7 66.7V400c-.3 2.6-2.5 4.8-5.2 4.8z" fill="#0f3c78" opacity="1" data-original="#000000" class=""></path><path d="M296.6 404.8c-2.7 0-4.8-2.1-4.8-4.8v-74.8c0-19.6-16-35.7-35.7-35.7-19.6 0-35.7 16-35.7 35.7V400c0 2.7-2.2 4.8-4.8 4.8s-4.8-2.1-4.8-4.8v-74.8c0-25 20.4-45.4 45.4-45.4s45.4 20.4 45.4 45.4V400c-.1 2.6-2.3 4.8-5 4.8z" fill="#0f3c78" opacity="1" data-original="#000000" class=""></path><path d="M296.7 344.7c-12.4-.3-22.4-4.6-30.1-12.8-4.8-5.2-8.2-11.4-10.4-17.6-2.3 6.1-5.6 12.4-10.5 17.6-7.6 8.2-17.8 12.5-30.1 12.8-2.7.1-4.9-2-5-4.7s2-4.9 4.7-5c9.5-.2 17.3-3.4 23.1-9.6 11-11.6 12.6-30.9 12.8-38v-3.1c.1-2.6 2.2-4.7 4.8-4.7 2.6 0 4.7 2 4.8 4.7 0 .2.1 1.3 0 3.1.2 7.1 1.8 26.3 12.7 37.9 5.8 6.1 13.6 9.4 23.1 9.6 2.7.1 4.8 2.3 4.7 5 .3 2.8-2 4.8-4.6 4.8z" fill="#0f3c78" opacity="1" data-original="#000000" class=""></path></g></svg>