<svg xmlns="http://www.w3.org/2000/svg" version="1.1" xmlns:xlink="http://www.w3.org/1999/xlink" width="512" height="512" x="0" y="0" viewBox="0 0 96 96" style="enable-background:new 0 0 512 512" xml:space="preserve" class=""><g><path d="M45.273 73.47c.085-.211.183-.415.256-.632.302-.88.825-1.714 1.249-2.344 2.037-3.036 2.083-6.937.118-9.933-.687-1.049-2.737-3.216-3.256-3.737-4.431-4.432-9.416-6.872-14.034-6.872-3.731 0-7.136 1.516-10.124 4.504-6.72 6.719-5.813 15.977 2.369 24.161.517.516 2.681 2.562 3.734 3.251a8.788 8.788 0 0 0 4.841 1.439c1.839 0 3.62-.55 5.148-1.592.886-.603 1.585-.978 2.446-1.282.16-.056.31-.132.467-.195l5.893 6.187c2.163 2.035 4.119.761 4.725.154l3.025-2.763c.631-.63.977-1.371.948-2.26-.027-.892-.428-1.676-1.099-2.269zm-8.769 3.233c-1.323.465-2.456 1.186-3.194 1.689-1.649 1.123-3.896 1.182-5.521.112-.565-.369-2.303-1.942-3.097-2.733-3.133-3.134-9.635-11.206-2.368-18.473 2.207-2.207 4.656-3.326 7.281-3.326 3.544 0 7.518 2.022 11.19 5.694.794.795 2.369 2.535 2.737 3.098 1.078 1.643 1.041 3.797-.092 5.488-.561.833-1.26 1.958-1.725 3.312-.817 2.388-2.651 4.236-5.211 5.139zm10.347 6.967-4.875-5.554c.415-.362.803-.751 1.166-1.167l5.555 4.875zM75.776 8.644c-3.875 0-8.042 2.034-11.736 5.726-.302.302-2.088 2.164-2.708 3.112-1.69 2.576-1.652 5.924.098 8.531.333.497 1.061 2.033 1.096 2.125l-5.286 4.64a3.022 3.022 0 0 0-1.025 2.168 3.032 3.032 0 0 0 .882 2.229l2.478 2.212c1.217 1.114 2.225 1.01 2.259 1.01.829 0 1.588-.532 2.136-1.154 0 0 5.469-4.463 6.167-3.99C71.447 36.145 74 36.66 74 36.66v-.004c2 0 3.478-.43 4.712-1.239.954-.626 3.086-2.408 3.388-2.711 2.069-2.068 4.841-5.379 5.637-9.396.791-3.994-.372-7.754-3.493-10.876-2.515-2.515-5.318-3.79-8.468-3.79zm-14.12 27.403-.956-.956 3.979-3.492c.152.161.31.315.473.466zM83.93 22.528c-.468 2.362-2.03 4.966-4.397 7.334-.621.622-2.035 1.903-2.474 2.191a3.557 3.557 0 0 1-1.953.577 3.875 3.875 0 0 1-2.154-.668c-.619-.422-1.573-1.029-2.843-1.477a6.3 6.3 0 0 1-3.897-3.947c-.383-1.121-.973-2.068-1.443-2.769-.846-1.261-.875-2.863-.073-4.086.285-.436 1.565-1.85 2.187-2.472 2.934-2.932 6.092-4.547 8.893-4.547 2.045 0 3.96.878 5.694 2.611 2.187 2.191 2.992 4.563 2.46 7.253zM45.121 35.21c3.477 0 6.307-2.829 6.307-6.307s-2.83-6.307-6.307-6.307-6.307 2.829-6.307 6.307 2.83 6.307 6.307 6.307zm0-8.592c1.26 0 2.285 1.025 2.285 2.286s-1.025 2.286-2.285 2.286-2.286-1.025-2.286-2.286 1.026-2.286 2.286-2.286z" fill="#0f3c78" opacity="1" data-original="#000000"></path><path d="M83.399 40.704a292.815 292.815 0 0 1-72.592 0 2.496 2.496 0 0 0-1.957.597A2.487 2.487 0 0 0 8 43.159v11.119c0 1.111.89 2.011 2 2.011s2-.899 2-2.011v-9.372c23 2.771 46 2.771 70 0v9.372a2 2 0 1 0 4 0V43.159c0-.711-.215-1.386-.748-1.857-.532-.468-1.151-.688-1.853-.598z" fill="#0f3c78" opacity="1" data-original="#000000"></path></g></svg>