<svg xmlns="http://www.w3.org/2000/svg" version="1.1" xmlns:xlink="http://www.w3.org/1999/xlink" width="512" height="512" x="0" y="0" viewBox="0 0 500 500" style="enable-background:new 0 0 512 512" xml:space="preserve" class=""><g><path fill-rule="evenodd" d="M419.292 281.652a4.083 4.083 0 0 1-4.094 4.094h-24.669c-.155 0-.311 0-.415.01-9.559.79-25.542 6.276-24.772 38.034l2.954 60.93c-38.246.244-67.476-7.001-91.056-22.647l28.711-72.528c.052-.192.104-.389.207-.586 2.332-8.178 2.384-17.429.104-28.275-.052-.093-.052-.197-.104-.285l-18.242-71.082c-.57-2.135.726-4.359 2.85-4.955l1.14-.316c1.969-.56 3.939.363 4.82 2.249l23.01 50.809c3.887 8.582 9.588 15.76 16.532 21.222a37.145 37.145 0 0 0 11.971 7.115c4.716 2.032 9.795 3.452 15.081 4.188l52.446 7.224a4.077 4.077 0 0 1 3.524 4.053v.746zm-45.71 162.947c1.042 3.765-2.954 7.082-6.426 5.146-1.036-.575-1.814-1.513-2.125-2.643l-14.666-49.907c3.058.181 6.219.306 9.38.373zm-73.072-16.734a4.317 4.317 0 0 0-.155-3.405l-12.023-25.431a6.325 6.325 0 0 1-.311-4.763l3.265-9.992c-2.747-1.192-5.493-2.456-8.136-3.819l-5.494 16.864 14.615 30.95c1.698 3.536 6.85 3.381 8.239-.404zm60.064-220.679c-13.06 0-23.736 10.65-23.736 23.736 0 7.116 3.161 13.505 8.136 17.859a41.79 41.79 0 0 0 7.825 4.566 23.8 23.8 0 0 0 7.774 1.306c13.112 0 23.736-10.645 23.736-23.73.001-13.088-10.623-23.737-23.735-23.737zm56.956 56.867-33.893-4.669c8.292-6.727 13.63-16.978 13.63-28.462 0-20.212-16.48-36.656-36.692-36.656-16.117 0-29.851 10.484-34.722 24.979l-17.361-38.293c-3.524-7.711-11.972-11.635-20.108-9.344l-1.14.316c-8.81 2.493-14.148 11.733-11.868 20.61l18.242 70.932c1.762 8.427 1.814 15.708.156 21.631l-30.421 76.986c-1.088 2.747-.155 5.872 2.228 7.608a148.209 148.209 0 0 0 6.115 4.182l-7.152 21.865a6.347 6.347 0 0 0 .311 4.773l15.755 33.287c6.578 13.924 26.819 12.996 32.079-1.586 1.555-4.384 1.296-9.095-.674-13.283l-10.935-23.093 2.28-6.996c10.261 3.322 21.248 5.696 33.167 7.131l16.066 54.768c4.39 14.722 24.477 17.082 31.924 3.436 2.228-4.084 2.747-8.779 1.451-13.225l-12.749-43.393c2.47-.038 4.55.069 6.582-2.099a6.348 6.348 0 0 0 1.71-4.706l-3.213-67.491c-.466-23.285 9.018-24.368 12.438-24.596h24.461c9.38 0 16.998-7.628 16.998-17.014v-.746c.001-8.591-6.166-15.681-14.665-16.852zM249.618 148.012c-7.307 2.146-14.822 2.529-21.974 1.233 22.734-12.257 40.324-36.624 46.02-62.557a41.534 41.534 0 0 0 11.453-2.85c7.609 26.897-8.179 56.201-35.499 64.174zm-24.979-55.98c-9.225 15.946-12.904 33.836-10.313 49.155 22.192-8.314 40.149-31.045 46.227-55.292a41.529 41.529 0 0 1-21.507-12.422c-5.494 5.343-10.417 11.655-14.407 18.559zm-23.995 41.62c-.764-25.817 11.597-53.168 31.147-71.119a40.315 40.315 0 0 1-3.213-11.319c-12.956 3.244-24.824 11.749-32.183 24.524-10.663 18.512-9.32 41.945 4.249 57.914zm41.926-83.868c11.105.67 20.043 4.312 28.504 11.552 3.39 2.901 6.513 6.839 8.862 10.655-7.981 3.156-16.998 2.56-24.617-1.85-7.618-4.405-12.645-11.904-13.889-20.383.362.01.777.01 1.14.026zm48.56 80.634c-17.298 29.881-54.942 41.793-84.785 24.57-29.807-17.203-38.384-55.819-21.145-85.707 10.709-18.566 29.533-30.177 48.819-32.152 9.299-.952 16.016.029 24.513 2.508 8.452 2.466 17.442 8.223 23.684 14.418v.036a59.2 59.2 0 0 1 12.334 17.988c.104.223.207.446.259.679 7.67 17.765 6.945 39.2-3.679 57.66zm-72.918 73.803-30.265 69.44a4.807 4.807 0 0 0-.415 1.451l-10.261 58.24a6.435 6.435 0 0 0 3.835 7.064l30.214 12.971c2.54 1.482 8.81 5.924 2.488 25.27l-10.572 34.365c-1.078 3.587-6.498 2.635-6.374-1.078l1.295-38.604a6.383 6.383 0 0 0-3.835-6.131l-23.736-10.432c-3.109-1.363-6.685-.104-8.292 2.876l-47.419 88.952c-1.773 3.341-7.563 1.217-6.633-2.482l21.611-85.806c.104-.451.207-.912.207-1.378l.881-29.483v-.42c-.415-12.225-6.789-23.917-19.434-35.717l-29.799-29.151c-2.664-2.593.572-6.962 3.835-5.151l33.22 18.486c9.639 5.348 20.574 6.291 31.665 2.731 4.405-1.394 8.603-3.421 12.541-5.866 4.768-2.332 9.017-5.675 12.334-9.753 7.255-7.048 13.008-15.231 16.532-22.699l18.916-41.04c2.269-4.944 9.619-1.464 7.461 3.345zm-71.207 13.407c-13.111 0-23.736 10.65-23.736 23.736 0 13.091 10.624 23.73 23.736 23.73 3.472 0 6.789-.767 9.795-2.135 3.161-2.031 6.167-4.431 8.914-7.033a23.468 23.468 0 0 0 5.027-14.563c0-13.085-10.676-23.735-23.736-23.735zm72.918-31.126-.156-.047c-8.188-2.747-17.154 1.13-20.782 9.012l-16.636 36.194c-4.301-15.516-18.501-26.959-35.344-26.959-28.927 0-46.62 32.169-30.732 56.618l-24.461-13.604c-7.353-4.089-16.068-2.014-21.196 5.058-4.405 6.473-3.576 15.148 2.073 20.637l29.955 29.296c10.002 9.302 15.029 17.999 15.392 26.586l-.881 28.55L95.7 442.96c-2.125 8.525 2.799 17.066 11.298 19.439 1.903.551 3.168.829 5.182.829 5.804 0 11.246-3.161 14.148-8.546l44.569-83.665 14.2 6.255-1.192 34.225c-.269 7.939 5.144 14.757 13.06 16.366a16.018 16.018 0 0 0 18.657-11.054l10.469-34.189c8.188-24.933-.259-35.868-8.707-40.657a18.024 18.024 0 0 0-.622-.311l-25.861-11.101 9.225-52.441 29.955-68.73c4.009-9.165-.722-19.739-10.158-22.878z" clip-rule="evenodd" fill="#0f3c78" opacity="1" data-original="#000000"></path></g></svg>