<svg xmlns="http://www.w3.org/2000/svg" version="1.1" xmlns:xlink="http://www.w3.org/1999/xlink" width="512" height="512" x="0" y="0" viewBox="0 0 511.999 511.999" style="enable-background:new 0 0 512 512" xml:space="preserve" class=""><g><path d="M492.607 45.282a11.5 11.5 0 0 0-9.329-2.591C465.228 45.644 369.433 60.375 256 60.375S46.772 45.644 28.721 42.691a11.534 11.534 0 0 0-9.33 2.591 11.515 11.515 0 0 0-4.065 8.789v91.619a7.512 7.512 0 0 0 15.023 0V58.169C60.662 62.968 149.534 75.398 256 75.398c106.46 0 195.331-12.429 225.65-17.229v87.481c0 4.149 3.362 7.511 7.511 7.511s7.511-3.363 7.511-7.511V54.071c0-3.391-1.482-6.594-4.065-8.789zM489.164 173.127a7.51 7.51 0 0 0-7.511 7.511v87.449c-30.312-4.799-119.184-17.229-225.65-17.229-106.46 0-195.331 12.429-225.65 17.229v-87.449a7.51 7.51 0 1 0-15.022 0v91.546a11.498 11.498 0 0 0 4.061 8.79 11.506 11.506 0 0 0 9.329 2.59c18.052-2.953 113.847-17.684 227.28-17.684s209.228 14.731 227.279 17.684a11.505 11.505 0 0 0 9.33-2.591 11.515 11.515 0 0 0 4.065-8.789v-91.546a7.51 7.51 0 0 0-7.511-7.511z" fill="#0f3c78" opacity="1" data-original="#000000" class=""></path><path d="M461.724 81.273a14.43 14.43 0 0 0-11.369-3.473C405.686 83.558 335.706 90.42 256 90.42c-79.713 0-149.689-6.863-194.355-12.621a14.424 14.424 0 0 0-11.369 3.473 14.446 14.446 0 0 0-4.904 10.845v142.019a14.427 14.427 0 0 0 16.273 14.318c44.669-5.758 114.649-12.621 194.355-12.621 79.713 0 149.689 6.863 194.355 12.621a14.436 14.436 0 0 0 11.369-3.473 14.446 14.446 0 0 0 4.904-10.845V92.118c0-4.152-1.788-8.105-4.904-10.845zM256 220.812c-80.105 0-150.47 6.862-195.605 12.658V92.785c45.131 5.796 115.493 12.658 195.605 12.658 80.105 0 150.47-6.862 195.605-12.658V233.47c-45.131-5.796-115.493-12.658-195.605-12.658zM502.618 428.325H491.5v-38.69c0-17.94-14.596-32.536-32.536-32.536h-12.869v-20.896c0-17.94-14.596-32.536-32.536-32.536H372.37c-10.052 0-19.052 4.584-25.025 11.769-5.973-7.185-14.973-11.769-25.025-11.769h-41.188c-10.052 0-19.052 4.584-25.025 11.769-5.973-7.185-14.973-11.769-25.025-11.769h-41.187c-10.052 0-19.053 4.584-25.026 11.769-5.973-7.185-14.973-11.769-25.025-11.769H98.655c-17.94 0-32.536 14.596-32.536 32.536v20.896H52.822c-17.94 0-32.536 14.596-32.536 32.536v38.69H9.382c-5.174 0-9.382 4.209-9.382 9.382v22.373c0 5.174 4.209 9.382 9.382 9.382h493.235c5.174 0 9.382-4.209 9.382-9.382v-22.373c.001-5.173-4.207-9.382-9.381-9.382zm-64.035-56.203 20.38-.001c9.657 0 17.514 7.857 17.514 17.514v38.69h-76.216v-38.69c0-.475.034-.941.071-1.406.029-.37.077-.734.129-1.097.03-.209.058-.419.096-.625.063-.347.14-.688.223-1.027.052-.212.104-.424.163-.633.094-.329.2-.653.312-.974.072-.206.145-.411.225-.614a18.112 18.112 0 0 1 1.173-2.418 17.319 17.319 0 0 1 1.934-2.693c.107-.123.218-.242.329-.362.262-.284.531-.563.811-.829.107-.102.218-.199.328-.298.296-.268.599-.53.913-.777.107-.085.219-.164.329-.246.326-.245.658-.484 1.001-.706.112-.073.229-.139.343-.209.349-.215.703-.424 1.067-.614.125-.066.256-.122.383-.185.362-.178.726-.351 1.1-.505.153-.062.311-.113.466-.171.358-.135.717-.268 1.086-.38.2-.06.407-.104.611-.157.333-.088.665-.18 1.005-.248.288-.057.583-.091.876-.134.267-.039.531-.09.802-.117a17.813 17.813 0 0 1 1.737-.088h20.809zm-83.727-35.919c0-9.657 7.857-17.514 17.514-17.514h41.188c9.657 0 17.514 7.857 17.514 17.514v20.896h-13.296c-.599 0-1.193.019-1.783.051-.158.009-.314.025-.471.036-.439.03-.878.065-1.312.113-.16.018-.318.041-.477.061-.438.055-.875.116-1.308.187-.134.022-.268.048-.402.072a32.47 32.47 0 0 0-1.395.281l-.274.063a32.02 32.02 0 0 0-1.639.429 32.617 32.617 0 0 0-15.966 10.476 32.613 32.613 0 0 0-15.967-10.476l-.085-.024a33.353 33.353 0 0 0-1.825-.468 32.21 32.21 0 0 0-1.396-.281c-.133-.024-.266-.049-.4-.072-.433-.072-.87-.133-1.308-.188-.159-.02-.317-.043-.477-.061a33.453 33.453 0 0 0-1.312-.113c-.157-.011-.313-.027-.471-.036a32.956 32.956 0 0 0-1.783-.051h-12.869v-20.895zm-7.511 35.919v-.001h20.38c.586 0 1.165.031 1.737.088.273.027.538.078.807.118.291.043.585.076.87.133.343.069.678.161 1.014.25.2.052.404.096.602.155.372.112.734.247 1.095.383.152.057.307.106.457.167.378.154.746.329 1.11.509.124.061.251.116.373.18.368.192.724.403 1.077.62.111.068.225.132.334.203.346.224.681.465 1.01.712.107.08.215.157.32.24.317.249.621.513.92.783.107.097.216.192.321.292.282.268.552.548.816.834.109.118.219.236.325.358.245.281.479.572.706.868a15.234 15.234 0 0 1 .921 1.322 17.63 17.63 0 0 1 .803 1.414 18.507 18.507 0 0 1 .676 1.503c.082.208.157.419.231.631.11.314.214.631.306.953.062.218.116.439.17.66.08.33.156.661.217.998.04.218.07.44.101.661.05.35.096.702.124 1.059.038.47.072.941.072 1.42v38.69h-76.216v-38.69c0-.475.034-.941.071-1.406.029-.37.077-.734.129-1.097.03-.209.058-.419.096-.625.063-.347.14-.688.223-1.027.052-.212.104-.424.163-.633.094-.329.2-.653.312-.974.072-.206.145-.411.225-.614a18.112 18.112 0 0 1 1.173-2.418 17.319 17.319 0 0 1 1.934-2.693c.107-.123.218-.242.329-.362.262-.284.531-.563.811-.829.107-.102.218-.199.328-.298.296-.268.599-.53.913-.777.107-.085.219-.164.329-.246.326-.245.658-.484 1.001-.706.112-.073.229-.139.343-.209.349-.215.703-.424 1.067-.614.125-.066.256-.122.383-.185.362-.178.726-.351 1.1-.505.153-.062.311-.113.466-.171.358-.135.717-.268 1.086-.38.2-.06.407-.104.611-.157.333-.088.665-.18 1.005-.248.288-.057.583-.091.876-.134.267-.039.531-.09.802-.117a17.813 17.813 0 0 1 1.737-.088h20.808zm-66.213-53.433h41.188c9.657 0 17.514 7.857 17.514 17.514v20.896h-13.296c-.599 0-1.193.019-1.783.051-.158.009-.314.025-.471.036-.44.03-.878.065-1.312.113-.16.018-.318.041-.477.061-.438.055-.875.116-1.307.187-.134.022-.268.048-.402.072a32.47 32.47 0 0 0-1.395.281l-.274.063a32.02 32.02 0 0 0-1.639.429 32.617 32.617 0 0 0-15.966 10.476 32.613 32.613 0 0 0-15.967-10.476l-.085-.024a33.353 33.353 0 0 0-1.825-.468 32.21 32.21 0 0 0-1.396-.281c-.133-.024-.266-.049-.4-.072-.433-.072-.87-.133-1.308-.188-.159-.02-.317-.043-.477-.061a33.453 33.453 0 0 0-1.312-.113c-.157-.011-.313-.027-.471-.036a32.956 32.956 0 0 0-1.783-.051h-12.869v-20.895h-.001c0-9.657 7.857-17.514 17.514-17.514zm-25.025 53.432h20.38c.586 0 1.165.031 1.737.088.273.027.538.078.807.118.291.043.585.076.87.133.343.069.678.161 1.014.25.2.052.404.096.602.155.372.112.734.247 1.095.383.152.057.307.106.457.167.378.154.746.329 1.11.509.124.061.251.116.373.18.368.192.724.403 1.077.62.111.068.225.132.334.203.346.224.681.465 1.01.712.107.08.215.157.32.24.317.249.621.513.92.783.107.097.216.192.321.292.282.268.552.548.816.834.109.118.219.236.325.358.245.281.479.572.706.868a15.234 15.234 0 0 1 .921 1.322 17.63 17.63 0 0 1 .803 1.414 18.507 18.507 0 0 1 .676 1.503c.082.208.157.419.231.631.11.314.214.631.306.953.062.218.116.439.17.66.08.33.156.661.217.998.04.218.07.44.101.661.05.35.096.702.124 1.059.038.47.072.941.072 1.42v38.69h-76.216v-38.69c0-.508.034-1.008.076-1.506l.007-.051c.685-7.818 6.617-14.155 14.1-15.631.149-.029.302-.044.452-.069.388-.066.776-.132 1.172-.171.562-.055 1.13-.086 1.706-.086h20.808zm-83.727-35.918c0-9.657 7.858-17.514 17.515-17.514h41.187c9.657 0 17.514 7.857 17.514 17.514v20.896H235.3c-.587 0-1.169.017-1.748.048-.312.016-.62.046-.93.071-.248.02-.498.036-.744.062-.445.046-.886.106-1.326.169-.086.013-.173.023-.259.036-7.955 1.208-14.959 5.248-19.908 11.133-5.966-7.094-14.913-11.519-24.921-11.519H172.38v-20.896zm-7.512 35.919v-.001h20.38c9.657 0 17.514 7.857 17.514 17.514v38.69h-76.216v-38.69c0-.508.034-1.008.076-1.506l.007-.05c.685-7.818 6.617-14.155 14.101-15.631.149-.029.303-.044.453-.069.388-.066.776-.131 1.171-.171.562-.055 1.13-.086 1.706-.086h20.808zm-83.727-35.919c0-9.657 7.857-17.514 17.514-17.514h41.188c9.657 0 17.514 7.857 17.514 17.514v20.896h-13.295c-.587 0-1.169.017-1.748.048-.312.016-.621.046-.931.071-.248.02-.497.036-.743.062a33.7 33.7 0 0 0-1.324.169c-.087.013-.175.023-.262.036-7.956 1.208-14.959 5.248-19.908 11.134-5.966-7.095-14.913-11.52-24.921-11.52H81.141v-20.896zm-45.833 53.432c0-9.657 7.857-17.514 17.514-17.514H94.01c9.657 0 17.514 7.857 17.514 17.514v38.69H35.308v-38.69zm461.669 64.805H15.023v-11.092h481.954v11.092z" fill="#0f3c78" opacity="1" data-original="#000000" class=""></path></g></svg>