<svg xmlns="http://www.w3.org/2000/svg" version="1.1" xmlns:xlink="http://www.w3.org/1999/xlink" width="512" height="512" x="0" y="0" viewBox="0 0 64 64" style="enable-background:new 0 0 512 512" xml:space="preserve" class=""><g><g data-name="Layer 19"><path d="M63 28a7.012 7.012 0 0 0-6.062-6.938 7 7 0 0 0-13.876 0 7 7 0 0 0-3.056 12.683Q40 33.871 40 34a7.008 7.008 0 0 0 7 7v10.684a6.939 6.939 0 0 0-6 0v-.075a5.724 5.724 0 0 1 2.555-4.773 1 1 0 0 0-.719-1.818l-4.774.795a11.746 11.746 0 0 1 1.174-4.045l.659-1.317a1 1 0 0 0-1.45-1.279l-1.007.672A12.166 12.166 0 0 0 32.5 46.6a12.166 12.166 0 0 0-4.938-6.76l-1.007-.672a1 1 0 0 0-1.45 1.279l.659 1.317a11.746 11.746 0 0 1 1.174 4.045l-4.774-.795a1 1 0 0 0-.719 1.818A5.724 5.724 0 0 1 24 51.605v.655a6.955 6.955 0 0 0-7-.576V41a7.008 7.008 0 0 0 7-7q0-.129-.006-.255a7 7 0 0 0-3.056-12.683 7 7 0 0 0-13.876 0 7 7 0 0 0-3.056 12.683Q4 33.871 4 34a7.008 7.008 0 0 0 7 7v13.284A7.846 7.846 0 0 0 9 54a8.009 8.009 0 0 0-8 8 1 1 0 0 0 1 1h60a1 1 0 0 0 1-1 8.009 8.009 0 0 0-8-8 7.846 7.846 0 0 0-2 .284V41a7.008 7.008 0 0 0 7-7q0-.129-.006-.255A7.016 7.016 0 0 0 63 28ZM36.515 43.287A13.716 13.716 0 0 0 36 47a1 1 0 0 0 1.164.986l3.024-.5a7.72 7.72 0 0 0-1.182 4.045 11 11 0 0 0-4.97-2.33 10.177 10.177 0 0 1 2.479-5.914Zm-8.679 4.7A1 1 0 0 0 29 47a13.716 13.716 0 0 0-.515-3.713 10.169 10.169 0 0 1 2.471 5.769 10.986 10.986 0 0 0-5.012 1.762 7.705 7.705 0 0 0-1.132-3.336ZM6 34a5.088 5.088 0 0 1 .047-.646 1 1 0 0 0-.5-1A5 5 0 0 1 8 23a1 1 0 0 0 1-1 5 5 0 0 1 10 0 1 1 0 0 0 1 1 5 5 0 0 1 2.452 9.354 1 1 0 0 0-.5 1A5.088 5.088 0 0 1 22 34a4.994 4.994 0 0 1-7.5 4.326 1 1 0 0 0-1 0A4.994 4.994 0 0 1 6 34Zm7 6.7a6.922 6.922 0 0 0 1-.375 6.922 6.922 0 0 0 1 .375v12.42a7 7 0 0 0-1.5 2.306 8.93 8.93 0 0 0-.5-.315ZM60.917 61H3.083a6 6 0 0 1 11.669-.715l1.916-.57a7.875 7.875 0 0 0-1.53-2.8A5.007 5.007 0 0 1 20 53a4.956 4.956 0 0 1 2.851.9 10.982 10.982 0 0 0-.935 1.7l1.832.8a9.005 9.005 0 0 1 16.5 0l1.832-.8a10.982 10.982 0 0 0-.935-1.7A4.948 4.948 0 0 1 44 53a5.007 5.007 0 0 1 4.862 3.919 7.875 7.875 0 0 0-1.53 2.8l1.916.57A6 6 0 0 1 60.917 61ZM51 55.106c-.17.1-.337.2-.5.315a7 7 0 0 0-1.5-2.306V40.7a6.922 6.922 0 0 0 1-.375 6.922 6.922 0 0 0 1 .375Zm7.452-22.752a1 1 0 0 0-.5 1A5.088 5.088 0 0 1 58 34a4.994 4.994 0 0 1-7.5 4.326 1 1 0 0 0-1 0A4.994 4.994 0 0 1 42 34a5.088 5.088 0 0 1 .047-.646 1 1 0 0 0-.5-1A5 5 0 0 1 44 23a1 1 0 0 0 1-1 5 5 0 0 1 10 0 1 1 0 0 0 1 1 5 5 0 0 1 2.452 9.354ZM53 7a2 2 0 0 1 2 2h2a2 2 0 0 1 4 0h2a3.983 3.983 0 0 0-7-2.618A3.983 3.983 0 0 0 49 9h2a2 2 0 0 1 2-2ZM5 7a2 2 0 0 1 2 2h2a2 2 0 0 1 4 0h2a3.983 3.983 0 0 0-7-2.618A3.983 3.983 0 0 0 1 9h2a2 2 0 0 1 2-2Z" fill="#0f3c78" opacity="1" data-original="#000000" class=""></path><path d="M32 17a8 8 0 1 0-8-8 8.009 8.009 0 0 0 8 8Zm0-14a6 6 0 1 1-6 6 6.006 6.006 0 0 1 6-6Z" fill="#0f3c78" opacity="1" data-original="#000000" class=""></path></g></g></svg>