<svg xmlns="http://www.w3.org/2000/svg" version="1.1" xmlns:xlink="http://www.w3.org/1999/xlink" width="512" height="512" x="0" y="0" viewBox="0 0 500 500" style="enable-background:new 0 0 512 512" xml:space="preserve" class=""><g><path fill-rule="evenodd" d="M382.329 45.979c11.481 0 20.82 9.345 20.82 20.826s-9.339 20.826-20.82 20.826c-11.487 0-20.826-9.345-20.826-20.826s9.339-20.826 20.826-20.826zm0 54.346c18.483 0 33.52-15.037 33.52-33.52s-15.037-33.525-33.52-33.525c-18.489 0-33.525 15.042-33.525 33.525s15.037 33.52 33.525 33.52zM121.823 45.979c11.481 0 20.826 9.345 20.826 20.826s-9.345 20.826-20.826 20.826-20.826-9.345-20.826-20.826 9.345-20.826 20.826-20.826zm0 54.346c18.483 0 33.519-15.037 33.519-33.52S140.305 33.28 121.823 33.28c-18.483 0-33.52 15.042-33.52 33.525.001 18.483 15.037 33.52 33.52 33.52zm277.094 211.714h29.884c8.69 0 15.76-7.07 15.76-15.766V278.29c0-8.696-7.07-15.766-15.76-15.766h-28.907l21.027-16.823a6.34 6.34 0 0 0 2.372-4.957v-17.035c6.06-4.727 9.781-11.941 10.189-19.568h14.003c7.633 0 13.842 6.215 13.842 13.842v136.502h-62.41zm-32.618 42.445a20.755 20.755 0 0 0-1.206-2.28l-23.916-39.527c-1.602-2.644 1.364-4.266 3.412-5.904a15.72 15.72 0 0 0 11.751 5.267h29.878v42.445h-19.919zm-9.959-55.144h72.461c1.66 0 3.067-1.401 3.067-3.067V278.29c0-1.66-1.407-3.067-3.067-3.067h-44.777l-29.43 23.543a3.022 3.022 0 0 0 1.746.574zm-.931 67.28c.672-2.705.253-5.491-1.183-7.846l-23.916-39.522c-4.026-6.657-2.487-15.336 3.595-20.194l76.694-61.364v-9.787l-31.383 5.571-69.618 58.452c-.04.034-.075.063-.115.092-7.771 6.22-9.667 16.909-4.515 25.421l31.509 52.077c4.762 7.861 16.744 6.062 18.932-2.9zM198.69 354.484l17.667-48.464c6.123-16.788-11.838-33.135-29.195-48.947-11.975-10.896-25.542-23.25-25.542-31.515V204.14h168.735c-.069.098-.149.178-.224.27-4.87 6.254-5.47 15.225-1.878 22.153l-38.856 30.062c-9.327 7.22-11.049 20.688-3.831 30.022l6.307 8.144c-3.911 9.218-3.354 19.999 2.229 29.223l18.443 30.469H198.69zm-18.856 14.669 24.6-67.481c3.199-8.788-12.217-22.825-25.823-35.208-15.266-13.899-29.689-27.029-29.689-40.906v-45.742c0-5.295 6.151-8.269 10.298-4.974l20.912 16.605h49.613c4.572 0 8.282-3.716 8.282-8.282a8.285 8.285 0 0 0-8.282-8.282H186.91a6.362 6.362 0 0 1-5.399-3.01l-27.891-45.041c-1.821-2.935-6.048-4.302-13.314-4.302h-33.623c-11.705 0-21.24 9.529-21.24 21.246v82.592c0 13.032 3.021 32.233 6.329 36.156l34.777-.017c4.593.109 10.652 2.502 14.83 5.06.425.259.816.569 1.16.919l29.849 29.872c5.267 5.278 6.99 11.441 4.842 17.346l-16.898 46.345a9.497 9.497 0 0 0 .327 7.289c1.591 3.415 3.904 4.412 6.938 5.514 4.948 1.797 10.433-.754 12.237-5.699zm-30.258-14.669 15.72-43.128c.471-1.286-.775-2.901-1.895-4.026l-5.135-5.141c-2.349 5.772-8.012 9.85-14.6 9.85h-29.878v42.445zm-110.902 0V217.982c0-7.628 6.215-13.842 13.848-13.842H72.75v22.228c0 7.742 1.39 25.498 5.112 36.156h-6.645c-8.702 0-15.772 7.07-15.772 15.766v17.983c0 8.696 7.07 15.766 15.772 15.766h29.872v42.445zm32.543-55.144c-1.671 0-3.079-1.401-3.079-3.067V278.29c0-1.66 1.407-3.067 3.079-3.067h55.041c2.751.396 5.278 1.286 7.857 2.786l12.613 12.63v5.635c0 1.665-1.407 3.067-3.061 3.067h-72.45zm149.488-182.692h41.113l-23.652 47.304a20.824 20.824 0 0 0-8.42-1.769h-31.82zm141.602 76.924-12.389 1.78v-17.173h12.389zm-60.819 88.589a32.238 32.238 0 0 0-1.987 1.74l-3.894-5.026c-2.922-3.78-2.219-9.283 1.562-12.211l40.125-31.05c6.587 3.405 11.309 2.316 18.012 1.355zm-32.87-98.996c0 4.566 3.722 8.282 8.282 8.282h60.319v-19.62a6.354 6.354 0 0 1 6.352-6.347h25.088a6.353 6.353 0 0 1 6.347 6.347v20.074l13.043-2.165v-27.679a6.35 6.35 0 0 1 12.699 0v28.465c0 5.784-4.319 10.7-10.269 11.688l-48.304 7.989a8.209 8.209 0 0 0-1.878 1.826 8.25 8.25 0 0 0-1.591 6.128c.655 4.52 4.853 7.662 9.379 7.024l27.339-3.923 39.234-6.961c4.382-2.912 6.783-8.167 6.031-13.4l-.408-69.968c-.017-4.072-2.378-8.397-6.708-8.397H366.69c-7.53 0-14.342 5.864-17.759 11.671l-22.067 37.546a6.33 6.33 0 0 1-5.468 3.136H276.9c-4.56.001-8.282 3.712-8.282 8.284zm205.402 34.817c0-14.635-11.901-26.535-26.535-26.535h-14.204l-.299-60.583c-.057-11.792-8.581-21.033-19.407-21.033H366.69c-11.039 0-22.302 7.042-28.706 17.937l-20.223 34.416H276.9c-15.135 0-25.186 15.553-19.276 29.263h-8.604a20.896 20.896 0 0 0-1.074-18.69l29.815-59.618c2.11-4.208-.975-9.184-5.68-9.184h-55.305a6.353 6.353 0 0 0-5.681 3.504l-24.358 48.729-22.32-36.041c-6.398-10.316-19.729-10.316-24.112-10.316h-33.623c-18.707 0-33.933 15.226-33.933 33.945v47.672H52.521c-14.634 0-26.541 11.901-26.541 26.535v214.259a6.35 6.35 0 0 0 12.7 0v-65.058h62.41v50.314l-49.981 37.81c-4.858 3.673-2.207 11.412 3.837 11.412a6.328 6.328 0 0 0 3.825-1.286l48.671-36.816 48.66 36.816a6.349 6.349 0 1 0 7.662-10.126l-49.975-37.81v-50.314h33.347c.77 8.605 6.333 16.022 14.549 19.023 3.297 1.204 5.515 1.924 9.172 1.924 9.266 0 17.686-5.8 20.907-14.629l2.303-6.318h126.158l5.399 8.908c10.578 17.486 37.214 13.538 42.118-6.438.201-.821.356-1.649.465-2.47h18.012v50.314l-49.975 37.81a6.351 6.351 0 0 0-1.235 8.891c2.125 2.797 6.105 3.348 8.897 1.235l48.66-36.816 48.671 36.816a6.349 6.349 0 1 0 7.662-10.126l-49.981-37.81v-50.314h62.41v65.058a6.353 6.353 0 0 0 6.347 6.347 6.346 6.346 0 0 0 6.347-6.347v-214.26z" clip-rule="evenodd" fill="#0f3c78" opacity="1" data-original="#000000"></path></g></svg>