<svg xmlns="http://www.w3.org/2000/svg" version="1.1" xmlns:xlink="http://www.w3.org/1999/xlink" width="512" height="512" x="0" y="0" viewBox="0 0 512.009 512.009" style="enable-background:new 0 0 512 512" xml:space="preserve" class=""><g><path d="M503.473 401.071a8.533 8.533 0 0 0 0-17.066h-8.533c0-4.713-3.82-8.533-8.533-8.533s-8.533 3.82-8.533 8.533H341.34a8.533 8.533 0 0 0-17.066 0h-8.533a8.533 8.533 0 0 0 0 17.066h8.533v25.6h-8.533c-4.713 0-8.533 3.82-8.533 8.533s3.82 8.533 8.533 8.533h8.533v8.533h-8.533a8.533 8.533 0 0 0 0 17.066h8.533v25.6H179.206v-70.6a84.369 84.369 0 0 0 41.354 10.867c48.46-.698 87.215-40.48 86.646-88.942.263-33.693-18.552-64.638-48.588-79.908a77.891 77.891 0 0 0 15.113-46.45c.297-36.863-25.562-68.771-61.688-76.117a66 66 0 0 0-4.185-62.31 66.001 66.001 0 0 0-54.253-30.931c-.253 0-.497.036-.749.039C148.313 21.217 122.866-.339 93.152.007c-29.714.346-54.651 22.49-58.509 51.955C13.035 56.104-1.882 75.998.197 97.902c2.079 21.904 20.473 38.635 42.476 38.636h49.741a65.94 65.94 0 0 0 2.734 7.208c-36.124 7.371-61.97 39.291-61.667 76.158a77.897 77.897 0 0 0 15.112 46.45C18.558 281.625-.257 312.569.006 346.262c-.57 48.461 38.186 88.244 86.646 88.942a84.358 84.358 0 0 0 41.354-10.867v70.6H8.54c-4.713 0-8.533 3.82-8.533 8.533s3.82 8.533 8.533 8.533h494.933a8.533 8.533 0 0 0 0-17.066h-8.533v-25.6h8.533a8.533 8.533 0 0 0 0-17.066h-8.533v-8.533h8.533a8.533 8.533 0 0 0 0-17.066h-8.533v-25.6h8.533zM89.277 116.521c0 .991.112 1.965.156 2.95h-46.76c-14.138 0-25.6-11.461-25.6-25.6 0-14.139 11.462-25.6 25.6-25.6a8.53 8.53 0 0 0 8.534-8.534c-.044-22.27 17.079-40.812 39.282-42.538 22.203-1.727 41.986 13.946 45.386 35.955-27.832 8.501-46.779 34.267-46.598 63.367zm72.863 378.417h-17.067v-83.145a88.036 88.036 0 0 0 8.533-9.163 87.925 87.925 0 0 0 8.533 9.162v83.146zm1.036-108.436 56.197-56.198a8.533 8.533 0 0 0-12.066-12.066l-45.167 45.166v-86.8l40.166-40.166a8.533 8.533 0 0 0-12.067-12.067l-28.1 28.1v-39.133a8.533 8.533 0 0 0-17.066 0v39.133l-28.1-28.1a8.534 8.534 0 0 0-12.067 12.067l40.166 40.167v86.8l-45.167-45.167a8.534 8.534 0 0 0-12.067 12.067l56.197 56.197a68.321 68.321 0 0 1-57.385 31.636c-39.038-.687-70.159-32.835-69.579-71.875-.362-30.873 19.152-58.485 48.375-68.45a8.53 8.53 0 0 0 3.309-14.184 60.805 60.805 0 0 1-18.208-43.725c-.558-32.561 25.193-59.507 57.746-60.425a8.815 8.815 0 0 0 8.554-4.634 8.513 8.513 0 0 0-.737-8.9 49.46 49.46 0 0 1-9.767-29.425c-.416-26.542 20.722-48.416 47.262-48.908 26.541.492 47.679 22.366 47.262 48.908a49.46 49.46 0 0 1-9.767 29.425 8.48 8.48 0 0 0-.604 8.892 8.718 8.718 0 0 0 7.746 4.675c32.789.59 58.918 27.601 58.421 60.392a60.81 60.81 0 0 1-18.208 43.725 8.527 8.527 0 0 0 3.309 14.184c32.774 11.46 52.753 44.622 47.565 78.952s-34.072 60.109-68.769 61.373a68.32 68.32 0 0 1-57.384-31.636zm314.697 108.436H341.34v-25.6h136.533v25.6zm0-42.667H341.34v-8.533h136.533v8.533zm0-25.6H341.34v-25.6h136.533v25.6zM366.94 213.338h102.4c22.002-.001 40.396-16.732 42.476-38.636 2.079-21.904-12.838-41.798-34.447-45.939-3.905-29.73-29.244-51.958-59.229-51.958s-55.324 22.228-59.229 51.958c-21.609 4.141-36.526 24.035-34.447 45.939s20.473 38.635 42.476 38.636zm0-68.267a8.53 8.53 0 0 0 8.534-8.534c0-23.564 19.103-42.667 42.667-42.667s42.667 19.102 42.667 42.667a8.53 8.53 0 0 0 8.534 8.534c14.138 0 25.6 11.462 25.6 25.6s-11.461 25.6-25.6 25.6h-102.4c-14.138 0-25.6-11.461-25.6-25.6s11.459-25.6 25.598-25.6z" fill="#0f3c78" opacity="1" data-original="#000000" class=""></path></g></svg>