<svg xmlns="http://www.w3.org/2000/svg" version="1.1" xmlns:xlink="http://www.w3.org/1999/xlink" width="512" height="512" x="0" y="0" viewBox="0 0 609.631 609.631" style="enable-background:new 0 0 512 512" xml:space="preserve" class=""><g><path d="m603.113 446.989-120.35-111.764a20.323 20.323 0 0 0-13.849-5.426H447.06v-62.171a20.136 20.136 0 0 0 6.777 1.209h1.382a20.181 20.181 0 0 0 14.062-7.112l13.452-15.718c7.273-8.578 6.428-21.379-1.91-28.926l-33.763-30.237v-70.411c0-11.223-9.098-20.321-20.321-20.321h-30.481c-11.223 0-20.321 9.098-20.321 20.321v6.757l-57.619-51.574c-7.69-6.875-19.317-6.875-27.006 0L128.808 217.02c-8.337 7.544-9.182 20.342-1.91 28.916l13.452 15.789a20.18 20.18 0 0 0 14.092 7.112c2.759.17 5.524-.221 8.128-1.148v62.11h-20.32a20.194 20.194 0 0 0-13.777 5.385L6.548 446.948a20.04 20.04 0 0 0-6.259 13.737 8.965 8.965 0 0 0-.284 1.199v60.962a19.872 19.872 0 0 0 20.321 20.321h568.979a19.872 19.872 0 0 0 20.321-20.321v-60.962a9.423 9.423 0 0 0-.264-1.311 20.05 20.05 0 0 0-6.249-13.584zm-267.817-46.067h-60.962v-81.283c0-5.611 4.549-10.16 10.16-10.16h40.641c5.611 0 10.16 4.549 10.16 10.16v81.283zm-10.16-111.764h-40.641c-16.834 0-30.481 13.647-30.481 30.481v81.283h-60.962c-5.611 0-10.16-4.549-10.16-10.16V251.473l121.924-109.122L426.74 251.473v139.288c0 5.611-4.549 10.16-10.16 10.16h-60.962v-81.283c-.001-16.833-13.648-30.48-30.482-30.48zm71.122-172.726h30.481v52.224l-30.481-27.281zM142.362 232.26 304.815 86.764 467.38 232.778l-13.442 15.738-142.346-127.37a10.16 10.16 0 0 0-13.554 0l-142.245 127.37zm-.112 117.86h20.321v40.641c0 16.834 13.647 30.481 30.481 30.481h223.527c16.834 0 30.481-13.647 30.481-30.481V350.12h21.855l120.39 111.764H20.326zM20.326 522.846v-40.641h568.979v40.641z" fill="#0f3c78" opacity="1" data-original="#000000"></path></g></svg>