<svg xmlns="http://www.w3.org/2000/svg" version="1.1" xmlns:xlink="http://www.w3.org/1999/xlink" width="512" height="512" x="0" y="0" viewBox="0 0 64 64" style="enable-background:new 0 0 512 512" xml:space="preserve" class=""><g><path d="M60 15H43.819a12 12 0 1 0-23.638 0H4a3 3 0 0 0-3 3v4a3 3 0 0 0 3 3v29a3 3 0 0 0 3 3h2.08a6.991 6.991 0 0 0 13.84 0H44v5a1 1 0 0 0 1 1h8a1 1 0 0 0 1-1v-5h3a3 3 0 0 0 3-3V25a3 3 0 0 0 3-3v-4a3 3 0 0 0-3-3zM32 3a10 10 0 1 1-10 10A10.011 10.011 0 0 1 32 3zM3 22v-4a1 1 0 0 1 1-1h16.7a12.052 12.052 0 0 0 4.681 6H4a1 1 0 0 1-1-1zm3 32v-3h5.11a6.98 6.98 0 0 0-2.03 4H7a1 1 0 0 1-1-1zm24-5H12V29h18zM16 61a5 5 0 1 1 5-5 5.006 5.006 0 0 1-5 5zm36 0h-6v-4h6zm5-6H22.92a6.98 6.98 0 0 0-2.03-4H58v3a1 1 0 0 1-1 1zm1-6H32V28a1 1 0 0 0-1-1H11a1 1 0 0 0-1 1v21H6V25h52zm3-27a1 1 0 0 1-1 1H38.619a12.052 12.052 0 0 0 4.681-6H60a1 1 0 0 1 1 1z" fill="#0f3c78" opacity="1" data-original="#000000"></path><path d="M15 39h12a1 1 0 0 0 1-1v-6a1 1 0 0 0-1-1H15a1 1 0 0 0-1 1v6a1 1 0 0 0 1 1zm1-6h10v4H16zM38 44h3v2a1 1 0 0 0 1 1h10a1 1 0 0 0 1-1V28a1 1 0 0 0-1-1H42a1 1 0 0 0-1 1v2h-3a1 1 0 0 0-1 1v4a1 1 0 0 0 1 1h3v2h-3a1 1 0 0 0-1 1v4a1 1 0 0 0 1 1zm5-15h8v16h-8zm-4 5v-2h2v2zm0 6h2v2h-2zM26 16h5v4a1 1 0 0 0 1.832.555l6-9A1 1 0 0 0 38 10h-5V6a1 1 0 0 0-1.832-.555l-6 9A1 1 0 0 0 26 16zm5-6.7V11a1 1 0 0 0 1 1h4.131L33 16.7V15a1 1 0 0 0-1-1h-4.131z" fill="#0f3c78" opacity="1" data-original="#000000"></path><path d="M45 32h4v2h-4zM45 40h4v2h-4zM16 53a3 3 0 1 0 3 3 3 3 0 0 0-3-3zm0 4a1 1 0 1 1 1-1 1 1 0 0 1-1 1z" fill="#0f3c78" opacity="1" data-original="#000000"></path></g></svg>