<svg xmlns="http://www.w3.org/2000/svg" version="1.1" xmlns:xlink="http://www.w3.org/1999/xlink" width="512" height="512" x="0" y="0" viewBox="0 0 60 60" style="enable-background:new 0 0 512 512" xml:space="preserve"><g><path d="M52 16.169V4a4 4 0 0 0-4-4H12a4 4 0 0 0-4 4v12.169a25.912 25.912 0 0 0 0 27.662V56a4 4 0 0 0 4 4h36a4 4 0 0 0 4-4V43.831a25.912 25.912 0 0 0 0-27.662ZM10 4a2 2 0 0 1 2-2h36a2 2 0 0 1 2 2v9.407a25.964 25.964 0 0 0-40 0Zm20 2A24 24 0 1 1 6 30 24.028 24.028 0 0 1 30 6Zm20 50a2 2 0 0 1-2 2H12a2 2 0 0 1-2-2v-9.407a25.964 25.964 0 0 0 40 0Z" fill="#0f3c78" opacity="1" data-original="#000000"></path><path d="M30 51a20.96 20.96 0 0 0 20.877-18.718 2.944 2.944 0 0 0-.74-2.277 3.029 3.029 0 0 0-2.25-1H12.113a3.029 3.029 0 0 0-2.25 1 2.945 2.945 0 0 0-.74 2.278A20.96 20.96 0 0 0 30 51ZM11.352 31.341a1.021 1.021 0 0 1 .761-.341h35.774a1.021 1.021 0 0 1 .761.341.928.928 0 0 1 .241.725 19 19 0 0 1-37.778 0 .929.929 0 0 1 .241-.725ZM16 24h28a2 2 0 0 0 2-2v-4a2 2 0 0 0-2-2H16a2 2 0 0 0-2 2v4a2 2 0 0 0 2 2Zm16-2h-4v-4h4Zm2-4h4v4h-4Zm-8 4h-4v-4h4Zm18 0h-4v-4h4Zm-28-4h4v4h-4Z" fill="#0f3c78" opacity="1" data-original="#000000"></path><path d="M27 41h4.132l-2.964 4.445a1 1 0 0 0 1.664 1.11l4-6A1 1 0 0 0 33 39h-4.132l2.964-4.445a1 1 0 0 0-1.664-1.11l-4 6A1 1 0 0 0 27 41Z" fill="#0f3c78" opacity="1" data-original="#000000"></path></g></svg>