<svg xmlns="http://www.w3.org/2000/svg" version="1.1" xmlns:xlink="http://www.w3.org/1999/xlink" width="512" height="512" x="0" y="0" viewBox="0 0 48 48" style="enable-background:new 0 0 512 512" xml:space="preserve"><g><path d="M45 39a1 1 0 0 0-1 1v1a1 1 0 0 0 2 0v-1a1 1 0 0 0-1-1zM15.036 33.5c-.66-.023-1.289-.225-1.728-.552-1.221-.911-3.1-1.191-4.61-.712a1 1 0 1 0 .604 1.906c.899-.283 2.104-.117 2.81.408.767.573 1.78.91 2.853.948h.036a1 1 0 0 0 .035-1.999zM31.299 32.235a5.192 5.192 0 0 0-1.24-.224 1 1 0 0 0-.118 1.996c.262.016.524.063.76.137a1.001 1.001 0 0 0 .597-1.909zM25.739 33.385c-.936.253-2.042.062-2.7-.428a4.106 4.106 0 0 0-.568-.359 1 1 0 1 0-.942 1.764c.102.054.204.114.303.189.82.612 1.895.949 3.028.949.477 0 .948-.062 1.401-.185a1 1 0 1 0-.523-1.931z" fill="#0f3c78" opacity="1" data-original="#000000"></path><path d="M44 34h-1.5v-1h.5a1 1 0 0 0 0-2h-3a1 1 0 0 0 0 2h.5v1H38v-7a1 1 0 0 0-2 0v2.192c-.998.486-2.393.405-3.26-.242-1.7-1.27-4.35-1.27-6.05 0-.99.74-2.67.74-3.66 0-1.7-1.27-4.36-1.27-6.06 0-.99.74-2.67.74-3.66 0-1.7-1.27-4.35-1.27-6.05 0-.867.648-2.262.728-3.26.242V27a1 1 0 0 0-2 0v14c0 2.757 2.243 5 5 5h26c2.757 0 5-2.243 5-5v-5h6v.969a1 1 0 0 0 2 0V36c0-1.103-.897-2-2-2zM33 44H7c-1.654 0-3-1.346-3-3v-9.695c.463.126.945.195 1.43.195 1.09 0 2.18-.32 3.02-.95 1-.74 2.67-.74 3.67 0 1.69 1.27 4.35 1.27 6.05 0 .99-.74 2.67-.74 3.66 0 1.7 1.27 4.36 1.27 6.05 0 1-.74 2.67-.74 3.67 0 1.219.919 2.944 1.158 4.45.747V41c0 1.654-1.346 3-3 3zM6.757 16.03a1.001 1.001 0 0 0-.728 1.213l.5 2a1 1 0 0 0 1.941-.486l-.5-2a1.001 1.001 0 0 0-1.213-.728zM15.591 16.03a1.001 1.001 0 0 0-.728 1.213l.5 2a1 1 0 0 0 1.941-.486l-.5-2a1.001 1.001 0 0 0-1.213-.728zM24.424 16.03a1.001 1.001 0 0 0-.728 1.213l.5 2a1 1 0 0 0 1.941-.486l-.5-2a1.002 1.002 0 0 0-1.213-.728zM33.257 16.03a1.001 1.001 0 0 0-.728 1.213l.5 2a1 1 0 0 0 1.941-.486l-.5-2a1.002 1.002 0 0 0-1.213-.728zM11.591 21.03a1.001 1.001 0 0 0-.728 1.213l.5 2a1 1 0 0 0 1.941-.486l-.5-2a1 1 0 0 0-1.213-.728zM20.424 21.03a1.001 1.001 0 0 0-.728 1.213l.5 2a1 1 0 0 0 1.941-.486l-.5-2a1 1 0 0 0-1.213-.728zM29.257 21.03a1.001 1.001 0 0 0-.728 1.213l.5 2a1 1 0 0 0 1.941-.486l-.5-2a1 1 0 0 0-1.213-.728zM5.132 14h29.735c.625 0 1.202-.284 1.585-.778a1.986 1.986 0 0 0 .357-1.723c-.738-2.859-3.511-4.792-6.464-4.462A6.99 6.99 0 0 0 23.999 3a6.893 6.893 0 0 0-3.295.824A6.968 6.968 0 0 0 15.999 2c-3.114 0-5.841 2.094-6.707 5.007a5.999 5.999 0 0 0-6.103 4.492 1.986 1.986 0 0 0 .357 1.723A1.99 1.99 0 0 0 5.131 14zM9 9c.291 0 .567.031.847.095a.997.997 0 0 0 1.213-.831C11.414 5.833 13.538 4 16 4c1.462 0 2.843.637 3.789 1.749.338.396.923.467 1.347.163a4.86 4.86 0 0 1 2.865-.911 5.001 5.001 0 0 1 4.768 3.478 1 1 0 0 0 1.21.658 3.991 3.991 0 0 1 4.891 2.864H5.126a3.998 3.998 0 0 1 3.874-3z" fill="#0f3c78" opacity="1" data-original="#000000"></path></g></svg>