<svg xmlns="http://www.w3.org/2000/svg" version="1.1" xmlns:xlink="http://www.w3.org/1999/xlink" width="512" height="512" x="0" y="0" viewBox="0 0 512.01 512.01" style="enable-background:new 0 0 512 512" xml:space="preserve" class=""><g><path d="M162.906.404c-5.667-1.601-11.559 1.694-13.163 7.36L11.077 498.431c-1.601 5.667 1.694 11.559 7.36 13.163.944.27 1.92.41 2.901.416a10.666 10.666 0 0 0 10.261-7.776L170.266 13.567c1.601-5.667-1.694-11.559-7.36-13.163zM500.933 498.442 362.266 7.775c-1.602-5.67-7.498-8.968-13.168-7.365-5.67 1.602-8.968 7.498-7.365 13.168L480.4 504.244a10.666 10.666 0 0 0 13.173 7.36c5.666-1.603 8.96-7.495 7.36-13.162zM256.005 405.343c-5.891 0-10.667 4.776-10.667 10.667v85.333c0 5.891 4.776 10.667 10.667 10.667s10.667-4.776 10.667-10.667V416.01c-.001-5.891-4.776-10.667-10.667-10.667zM256.005 234.676c-5.891 0-10.667 4.776-10.667 10.667v85.333c0 5.891 4.776 10.667 10.667 10.667s10.667-4.776 10.667-10.667v-85.333c-.001-5.891-4.776-10.667-10.667-10.667zM256.005 85.343c-5.891 0-10.667 4.776-10.667 10.667v64c0 5.891 4.776 10.667 10.667 10.667s10.667-4.776 10.667-10.667v-64c-.001-5.891-4.776-10.667-10.667-10.667zM256.005.01c-5.891 0-10.667 4.776-10.667 10.667V32.01c0 5.891 4.776 10.667 10.667 10.667s10.667-4.776 10.667-10.667V10.676C266.671 4.785 261.896.01 256.005.01z" fill="#0f3c78" opacity="1" data-original="#000000" class=""></path></g></svg>