<svg xmlns="http://www.w3.org/2000/svg" version="1.1" xmlns:xlink="http://www.w3.org/1999/xlink" width="512" height="512" x="0" y="0" viewBox="0 0 66 66" style="enable-background:new 0 0 512 512" xml:space="preserve" class=""><g><path d="M26.08 50.13c-7.69-.01-17.06-2.48-18.15-9.41-.01-.04-.01-.08-.01-.12V23.86c0-.41.34-.75.75-.75s.75.34.75.75v16.67c.93 5.58 9.02 8.08 16.66 8.09a.755.755 0 0 1 0 1.51zM43.76 35.07c-.41 0-.75-.34-.75-.75V23.86c0-.41.34-.75.75-.75s.75.34.75.75v10.46c0 .42-.34.75-.75.75z" fill="#0f3c78" opacity="1" data-original="#000000" class=""></path><path d="M26.21 33.47c-10.26 0-18.29-4.22-18.29-9.6 0-5.39 8.04-9.6 18.29-9.6s18.29 4.22 18.29 9.6c.01 5.38-8.03 9.6-18.29 9.6zm0-17.71c-9.1 0-16.79 3.71-16.79 8.1s7.69 8.1 16.79 8.1S43 28.25 43 23.86c.01-4.39-7.68-8.1-16.79-8.1z" fill="#0f3c78" opacity="1" data-original="#000000" class=""></path><path d="M26.21 30.54c-9.06 0-15.37-3.52-15.37-6.68s6.31-6.68 15.37-6.68 15.37 3.52 15.37 6.68-6.31 6.68-15.37 6.68zm0-11.86c-8.6 0-13.87 3.35-13.87 5.18s5.27 5.18 13.87 5.18 13.87-3.35 13.87-5.18-5.26-5.18-13.87-5.18z" fill="#0f3c78" opacity="1" data-original="#000000" class=""></path><path d="M30.97 27.14a.75.75 0 0 1-.13-1.49c1.22-.22 2.3-.5 3.31-.86.69-.26 1.41-.55 2.07-.94-.05-.03-.09-.05-.14-.08a.74.74 0 0 1-.28-1.02.74.74 0 0 1 1.02-.28c.49.28.87.54 1.2.82.17.14.26.35.26.57s-.1.43-.27.57c-1.01.84-2.2 1.35-3.34 1.77-1.1.39-2.26.69-3.56.92-.05.02-.1.02-.14.02zM33.38 22.64c-.07 0-.14-.01-.21-.03-.76-.22-1.54-.4-2.33-.54-.41-.07-.68-.46-.61-.87s.46-.69.87-.61c.85.15 1.69.34 2.49.58.4.12.63.53.51.93-.09.33-.39.54-.72.54zM20.81 49.73c-.05 0-.11-.01-.16-.02l-3.13-.67a.74.74 0 0 1-.59-.73V31.6c0-.23.11-.45.29-.6.18-.14.43-.19.65-.13 1.22.33 2.21.54 3.04.67.37.06.64.37.64.74v16.69c0 .23-.1.44-.28.58-.13.12-.29.18-.46.18zm-2.38-2.03 1.63.35V32.92c-.49-.09-1.03-.21-1.63-.35zM5.03 47.82a2.21 2.21 0 0 1-2.21-2.21V25.42c0-2.02.78-3.89 2.14-5.12a6.316 6.316 0 0 1 4.6-1.69c.46.01.96.06 1.51.14.41.06.69.44.63.85s-.44.69-.85.63c-.49-.07-.93-.11-1.34-.12a4.91 4.91 0 0 0-3.55 1.3c-1.05.95-1.65 2.41-1.65 4.01v20.19c0 .4.31.71.71.71s.71-.31.71-.71V25.12c0-1.67 1.16-3.11 2.88-3.56.06-.02.13-.03.19-.03h.15c.41 0 .75.34.75.75s-.34.75-.75.75h-.04c-1.02.31-1.67 1.12-1.67 2.09v20.49c0 1.22-.99 2.21-2.21 2.21zM37.47 65c-.16 0-.32-.05-.45-.15l-11.26-8.4a.739.739 0 0 1-.3-.6v-15.7c0-.28.16-.54.41-.67s.56-.1.78.07l11.26 8.4c.19.14.3.36.3.6v15.7c0 .28-.16.54-.41.67a.73.73 0 0 1-.33.08zm-10.51-9.53 9.76 7.29V48.93l-9.76-7.29z" fill="#0f3c78" opacity="1" data-original="#000000" class=""></path><path d="M34.55 59.17c-.16 0-.32-.05-.45-.15l-5.41-4.04a.739.739 0 0 1-.3-.6v-8.4c0-.28.16-.54.41-.67s.56-.1.78.07L35 49.42c.19.14.3.36.3.6v8.4c0 .28-.16.54-.41.67-.11.05-.23.08-.34.08zM29.89 54l3.91 2.92v-6.53l-3.91-2.92z" fill="#0f3c78" opacity="1" data-original="#000000" class=""></path><path d="M34.55 54.94a.76.76 0 0 1-.45-.15l-5.41-4.04a.75.75 0 0 1 .9-1.2L35 53.59a.75.75 0 0 1-.45 1.35z" fill="#0f3c78" opacity="1" data-original="#000000" class=""></path><path d="M31.84 57.15c-.41 0-.75-.34-.75-.75V48c0-.41.34-.75.75-.75s.75.34.75.75v8.4c0 .41-.33.75-.75.75zM37.47 52.92c-.16 0-.31-.05-.44-.14a.767.767 0 0 1-.31-.61v-3.62c0-.33.21-.61.52-.71l25.97-8.4c.23-.07.48-.03.67.11s.31.37.31.61v3.54c0 .32-.21.61-.52.71L37.7 52.89c-.07.02-.15.03-.23.03zm.75-3.82v2.04l24.47-7.99v-1.97z" fill="#0f3c78" opacity="1" data-original="#000000" class=""></path><path d="M37.47 65c-.16 0-.31-.05-.44-.14a.767.767 0 0 1-.31-.61V52.17c0-.32.21-.61.52-.71l25.97-8.48c.23-.08.48-.04.67.11.19.14.31.37.31.61v12.16c0 .33-.21.61-.52.71l-25.97 8.4c-.07.02-.15.03-.23.03zm.75-12.29v10.51l24.47-7.92V44.72z" fill="#0f3c78" opacity="1" data-original="#000000" class=""></path><path d="M44.97 62.57c-.16 0-.31-.05-.44-.14a.767.767 0 0 1-.31-.61V52.8c0-.33.21-.61.52-.71l10.97-3.54c.23-.07.48-.03.67.11s.31.37.31.61v9.01c0 .33-.21.61-.52.71L45.2 62.54c-.08.02-.15.03-.23.03zm.75-9.22v7.44l9.47-3.07v-7.43zM37.47 49.33c-.16 0-.32-.05-.45-.15l-11.26-8.43c-.22-.17-.34-.45-.29-.72s.24-.5.51-.59l25.97-8.4c.23-.07.48-.03.68.11l11.26 8.4c.22.17.34.45.29.72-.05.28-.24.5-.51.59L37.7 49.29c-.07.02-.15.04-.23.04zm-9.65-8.92 9.79 7.33 24.22-7.86-9.79-7.31z" fill="#0f3c78" opacity="1" data-original="#000000" class=""></path><path d="M38.01 46.08c-.16 0-.32-.05-.45-.15l-5.53-4.14c-.22-.17-.34-.45-.29-.72s.24-.5.51-.59l19.16-6.2c.23-.07.48-.03.68.11l5.52 4.12c.22.17.34.45.29.72-.05.28-.24.5-.51.59l-19.15 6.22c-.07.02-.15.04-.23.04zm-3.92-4.62 4.06 3.04 17.4-5.65-4.05-3.02zM50.46 60.8c-.41 0-.75-.34-.75-.75v-9.01c0-.41.34-.75.75-.75s.75.34.75.75v9.01c0 .41-.34.75-.75.75zM57.69 18.03H46.06c-2.07 0-3.76-1.68-3.76-3.76 0-.91.41-1.83 1.13-2.53.9-.88 1.76-1.28 2.76-1.24.71-2.51 3.04-4.33 5.7-4.33s4.99 1.81 5.7 4.32c.75-.02 1.7.21 2.76 1.24.72.7 1.13 1.62 1.13 2.53-.03 2.08-1.72 3.77-3.79 3.77zM46.07 12c-.43 0-.94.17-1.6.81-.43.42-.67.95-.67 1.46 0 1.25 1.02 2.26 2.26 2.26h11.63c1.25 0 2.26-1.01 2.26-2.26 0-.51-.24-1.04-.67-1.46-.95-.93-1.59-.87-2.12-.74-.2.05-.42.01-.59-.11s-.29-.3-.32-.51c-.32-2.15-2.2-3.77-4.37-3.77s-4.05 1.62-4.37 3.77a.75.75 0 0 1-.92.62c-.16-.04-.33-.07-.52-.07zM37.12 12.85H25.48c-2.07 0-3.76-1.68-3.77-3.76 0-.91.41-1.83 1.13-2.53.9-.88 1.77-1.26 2.76-1.24C26.31 2.81 28.64 1 31.3 1s4.99 1.81 5.7 4.32c.76-.02 1.7.21 2.76 1.24.72.7 1.13 1.63 1.13 2.54a3.775 3.775 0 0 1-3.77 3.75zM25.49 6.82c-.43 0-.94.17-1.6.81-.43.42-.67.95-.67 1.46 0 1.25 1.02 2.26 2.27 2.26h11.63c1.25 0 2.26-1.01 2.26-2.26 0-.51-.24-1.04-.67-1.46-.95-.93-1.59-.87-2.12-.74-.2.05-.42.01-.59-.11s-.29-.3-.32-.51c-.32-2.15-2.2-3.77-4.37-3.77s-4.05 1.62-4.37 3.77c-.03.21-.15.39-.32.51s-.39.16-.59.11a2.42 2.42 0 0 0-.54-.07zM14.53 11.55H8.66c-1.25 0-2.27-1.02-2.27-2.27 0-.56.25-1.12.68-1.55.43-.42.89-.66 1.37-.71.48-1.29 1.73-2.2 3.15-2.2s2.67.91 3.15 2.2c.49.05.94.29 1.38.72.43.42.68.99.68 1.55 0 1.24-1.02 2.26-2.27 2.26zM8.66 8.5c-.13 0-.3.06-.55.31-.14.14-.22.31-.22.47 0 .42.35.77.77.77h5.87c.42 0 .77-.35.77-.77 0-.15-.08-.33-.23-.47-.37-.36-.55-.32-.72-.28-.2.05-.42.01-.59-.11s-.29-.3-.32-.51a1.88 1.88 0 0 0-1.85-1.59c-.91 0-1.71.68-1.84 1.59-.03.21-.14.39-.32.51-.17.12-.39.16-.59.11a.523.523 0 0 0-.18-.03zM57.97 25.98a.75.75 0 0 1-.74-.62c-.35-2.07-2.64-3.27-2.66-3.28-.37-.19-.51-.64-.32-1.01s.64-.51 1.01-.32c.12.06 2.97 1.56 3.45 4.36.07.41-.2.8-.61.87-.05-.01-.09 0-.13 0z" fill="#0f3c78" opacity="1" data-original="#000000" class=""></path><path d="M57.97 25.98c-.04 0-.08 0-.13-.01a.75.75 0 0 1-.61-.87c.48-2.8 3.33-4.3 3.45-4.36.37-.19.82-.05 1.01.32s.05.82-.32 1.01c-.02.01-2.31 1.23-2.66 3.28a.75.75 0 0 1-.74.63zM49.22 29.2a.75.75 0 0 1-.74-.62c-.22-1.3-1.7-2.08-1.71-2.09-.37-.19-.51-.64-.32-1.01s.64-.51 1.01-.32c.09.04 2.15 1.13 2.5 3.17.07.41-.2.8-.61.87h-.13z" fill="#0f3c78" opacity="1" data-original="#000000" class=""></path><path d="M49.22 29.2c-.04 0-.08 0-.13-.01a.75.75 0 0 1-.61-.87c.35-2.04 2.41-3.13 2.5-3.17.37-.19.82-.05 1.01.32s.05.82-.32 1.01c-.03.01-1.49.8-1.71 2.09a.75.75 0 0 1-.74.63zM5.61 18.75a.75.75 0 0 1-.74-.62c-.35-2.05-2.64-3.27-2.66-3.28-.37-.19-.51-.64-.32-1.01s.64-.51 1.01-.32c.12.06 2.97 1.56 3.45 4.36.07.41-.2.8-.61.87h-.13z" fill="#0f3c78" opacity="1" data-original="#000000" class=""></path><path d="M5.61 18.75c-.04 0-.08 0-.13-.01a.75.75 0 0 1-.61-.87c.48-2.8 3.33-4.3 3.45-4.36.37-.19.82-.04 1.01.32.19.37.05.82-.32 1.01-.02.01-2.31 1.23-2.66 3.28a.75.75 0 0 1-.74.63z" fill="#0f3c78" opacity="1" data-original="#000000" class=""></path></g></svg>