<svg xmlns="http://www.w3.org/2000/svg" version="1.1" xmlns:xlink="http://www.w3.org/1999/xlink" width="512" height="512" x="0" y="0" viewBox="0 0 48 48" style="enable-background:new 0 0 512 512" xml:space="preserve" class=""><g><path d="M8.526 24.124a.75.75 0 0 0-.75.75v10.734a.75.75 0 0 0 .75.75h17.491a.75.75 0 0 0 .75-.75V24.874a.75.75 0 0 0-.75-.75Zm16.741 10.734H9.276v-9.234h15.991ZM4.793 19.943a5.282 5.282 0 0 0 5.032-2.487 5.392 5.392 0 0 0 9.47.205 5.565 5.565 0 0 0 .755 1.014 5.441 5.441 0 0 0 7.9 0 5.565 5.565 0 0 0 .755-1.014 5.4 5.4 0 0 0 9.47-.206 5.312 5.312 0 0 0 9.638-4.2L45.3 3.985V.75a.75.75 0 0 0-.75-.75H3.447A.75.75 0 0 0 2.7.75v3.242L.187 13.258a5.319 5.319 0 0 0 4.606 6.685Zm9.835-1.069a3.914 3.914 0 0 1-3.864-4.543l1.543-9.495H19.1l-.531 9.8-.029.531a3.917 3.917 0 0 1-3.912 3.707Zm12.233-1.23a3.941 3.941 0 0 1-6.8-2.924l.031-.577.5-9.307h6.8l.5 9.307.031.577a3.905 3.905 0 0 1-1.062 2.924Zm9.493-.148a3.916 3.916 0 0 1-6.892-2.326l-.029-.531-.531-9.8h6.791l1.543 9.495a3.908 3.908 0 0 1-.882 3.166Zm9.469-.679a3.82 3.82 0 0 1-6.916-1.555L37.212 4.836h6.766l2.387 8.814a3.813 3.813 0 0 1-.542 3.167ZM4.2 1.5h39.6v1.836H4.2ZM1.635 13.65l2.387-8.814h6.766l-1.045 6.428-.46 2.826-.19 1.171a3.82 3.82 0 1 1-7.458-1.611Z" fill="#0f3c78" opacity="1" data-original="#000000" class=""></path><path d="M47.25 43.13H45.3V21.609a.75.75 0 1 0-1.5 0V43.13h-2.515V24.874a.75.75 0 0 0-.75-.75h-9.721a.75.75 0 0 0-.75.75V43.13H4.2V21.617a.75.75 0 0 0-1.5 0V43.13H.75a.75.75 0 0 0-.75.75v3.37a.75.75 0 0 0 .75.75h46.5a.75.75 0 0 0 .75-.75v-3.37a.75.75 0 0 0-.75-.75ZM31.564 25.624h8.221V43.13h-8.221ZM46.5 46.5h-45v-1.87h45Z" fill="#0f3c78" opacity="1" data-original="#000000" class=""></path></g></svg>