<svg xmlns="http://www.w3.org/2000/svg" version="1.1" xmlns:xlink="http://www.w3.org/1999/xlink" width="512" height="512" x="0" y="0" viewBox="0 0 512 512" style="enable-background:new 0 0 512 512" xml:space="preserve"><g><path d="M503.467 494.933H486.4c-4.713 0-8.533 3.82-8.533 8.533S481.687 512 486.4 512h17.067c4.713 0 8.533-3.82 8.533-8.533s-3.82-8.534-8.533-8.534zM452.267 494.933H315.733V486.4c-.015-14.132-11.468-25.585-25.6-25.6V273.067a17.009 17.009 0 0 0-8.533-14.693V145.067a25.559 25.559 0 0 0-17.067-24.028V51.2c.022-18.842 15.291-34.112 34.133-34.133h51.2v42.667c.015 14.132 11.468 25.585 25.6 25.6h51.2c14.132-.015 25.585-11.468 25.6-25.6V25.6c-.015-14.132-11.468-25.585-25.6-25.6h-128c-28.264.031-51.169 22.936-51.2 51.2v69.839a25.558 25.558 0 0 0-17.067 24.028v113.307a17.009 17.009 0 0 0-8.533 14.693V460.8c-14.132.015-25.585 11.468-25.6 25.6v8.533H8.533c-4.713 0-8.533 3.82-8.533 8.533S3.82 512 8.533 512h443.733c4.713 0 8.533-3.82 8.533-8.533s-3.82-8.534-8.532-8.534zM366.933 17.067h59.733a8.544 8.544 0 0 1 8.533 8.533v8.533h-68.267V17.067zm0 34.133H435.2v8.533a8.544 8.544 0 0 1-8.533 8.533h-51.2a8.544 8.544 0 0 1-8.533-8.533V51.2zm-119.466 93.867c0-4.713 3.82-8.533 8.533-8.533s8.533 3.82 8.533 8.533V256h-17.067V145.067zm-8.534 128h34.133v25.6h-34.133v-25.6zm0 42.666h34.133V460.8h-34.133V315.733zm59.734 179.2h-85.333V486.4a8.544 8.544 0 0 1 8.533-8.533h68.267a8.544 8.544 0 0 1 8.533 8.533v8.533z" fill="#0f3c78" opacity="1" data-original="#000000"></path><path d="M349.866 93.867a8.529 8.529 0 0 0-2.5-6.033 8.529 8.529 0 0 0-12.066 0l-25.6 25.6a8.533 8.533 0 1 0 12.066 12.066l25.6-25.6a8.529 8.529 0 0 0 2.5-6.033zM480.367 125.5a8.533 8.533 0 0 0 12.066-12.066l-25.6-25.6A8.533 8.533 0 0 0 454.767 99.9l25.6 25.6zM346.05 152.7a8.537 8.537 0 0 0 11.45-3.817l17.067-34.133a8.535 8.535 0 1 0-15.267-7.634l-17.067 34.133a8.532 8.532 0 0 0 3.817 11.451zM392.533 110.933v34.133a8.533 8.533 0 0 0 17.066 0v-34.133a8.533 8.533 0 0 0-17.066 0zM437.899 102.837a8.536 8.536 0 0 0-10.333 11.913l17.067 34.133a8.534 8.534 0 0 0 15.267-7.633l-17.067-34.133a8.53 8.53 0 0 0-4.934-4.28z" fill="#0f3c78" opacity="1" data-original="#000000"></path></g></svg>