<svg xmlns="http://www.w3.org/2000/svg" version="1.1" xmlns:xlink="http://www.w3.org/1999/xlink" width="512" height="512" x="0" y="0" viewBox="0 0 512 512" style="enable-background:new 0 0 512 512" xml:space="preserve" class=""><g><path d="m506.6 248.8-149.088-43.484 49.355-90a7.5 7.5 0 0 0-10.183-10.183l-90 49.355L263.2 5.4a7.5 7.5 0 0 0-14.4 0l-43.484 149.088-90-49.355a7.5 7.5 0 0 0-10.183 10.183l49.355 90L5.4 248.8a7.5 7.5 0 0 0 0 14.4l149.088 43.484-49.355 90a7.5 7.5 0 0 0 10.183 10.183l90-49.355L248.8 506.6a7.5 7.5 0 0 0 14.4 0l43.484-149.088 90 49.355a7.496 7.496 0 0 0 8.91-1.273 7.502 7.502 0 0 0 1.273-8.91l-49.355-90L506.6 263.2a7.5 7.5 0 0 0 0-14.4zM381.35 130.65l-38.587 70.364-24.602-7.175-7.175-24.602 70.364-38.587zM248.5 60v107.824a7.5 7.5 0 0 0 15 0V60l40.169 137.724-19.769 19.769a47.326 47.326 0 0 0-20.4-8.477v-9.127a7.5 7.5 0 0 0-15 0v9.127a47.326 47.326 0 0 0-20.4 8.477l-19.769-19.769L248.5 60zm-117.85 70.65 70.365 38.587-7.176 24.602-24.602 7.175-38.587-70.364zm67.074 77.681 19.769 19.769a47.326 47.326 0 0 0-8.477 20.4H60l137.724-40.169zM130.65 381.35l38.587-70.365 24.602 7.176 7.176 24.602-70.365 38.587zm67.074-77.681L60 263.5h149.016a47.326 47.326 0 0 0 8.477 20.4l-19.769 19.769zM248.5 452l-40.169-137.724 19.769-19.769a47.326 47.326 0 0 0 20.4 8.477V452zm7.5-163.419c-17.965 0-32.581-14.616-32.581-32.581 0-17.965 14.616-32.581 32.581-32.581 17.965 0 32.581 14.616 32.581 32.581 0 17.965-14.616 32.581-32.581 32.581zM263.5 452V302.984a47.326 47.326 0 0 0 20.4-8.477l19.769 19.769L263.5 452zm117.85-70.65-70.365-38.587 7.176-24.602 24.602-7.176 38.587 70.365zM344.176 263.5H452l-137.724 40.169-19.769-19.769a47.326 47.326 0 0 0 8.477-20.4h9.127a7.5 7.5 0 0 0 0-15h-9.127a47.326 47.326 0 0 0-8.477-20.4l19.769-19.769L452 248.5H344.176a7.5 7.5 0 0 0 0 15z" fill="#0f3c78" opacity="1" data-original="#000000"></path><path d="M223.306 25.691a7.497 7.497 0 0 0-8.673-6.105C115.242 36.859 36.858 115.244 19.585 214.635a7.5 7.5 0 0 0 7.398 8.785 7.501 7.501 0 0 0 7.38-6.217c16.192-93.169 89.669-166.646 182.838-182.839a7.5 7.5 0 0 0 6.105-8.673zM217.208 477.637c-93.172-16.19-166.651-89.668-182.844-182.839-.709-4.081-4.591-6.818-8.673-6.105a7.5 7.5 0 0 0-6.105 8.673c17.274 99.394 95.66 177.778 195.054 195.049a7.501 7.501 0 0 0 2.568-14.778zM486.31 288.692a7.5 7.5 0 0 0-8.673 6.105c-16.193 93.171-89.672 166.649-182.844 182.839a7.5 7.5 0 1 0 2.568 14.778c99.394-17.271 177.78-95.656 195.054-195.049a7.5 7.5 0 0 0-6.105-8.673zM492.413 214.63c-17.275-99.389-95.658-177.771-195.047-195.044a7.497 7.497 0 0 0-8.673 6.105 7.499 7.499 0 0 0 6.105 8.673c93.167 16.192 166.644 89.667 182.837 182.834a7.503 7.503 0 0 0 8.673 6.105 7.5 7.5 0 0 0 6.105-8.673z" fill="#0f3c78" opacity="1" data-original="#000000"></path></g></svg>