<svg xmlns="http://www.w3.org/2000/svg" version="1.1" xmlns:xlink="http://www.w3.org/1999/xlink" width="512" height="512" x="0" y="0" viewBox="0 0 512 512" style="enable-background:new 0 0 512 512" xml:space="preserve"><g><path d="M422.287 254.9a7 7 0 0 0-5 2.095L368.366 306.8c-29.611 30.172-29.611 79.267 0 109.441a75.454 75.454 0 0 0 107.739.075l.028-.028.046-.047c29.611-30.174 29.611-79.268 0-109.442l-48.9-49.8a7 7 0 0 0-4.992-2.099zm43.919 151.512-.049.049a61.449 61.449 0 0 1-87.8-.028 64.444 64.444 0 0 1 0-89.823l43.927-44.717 43.9 44.715a64.449 64.449 0 0 1 .022 89.799zm-352-214.835h30.273a13.012 13.012 0 0 0 13.011-12.983v-7.2h54.91a60.93 60.93 0 0 0 104.043 0h22.115a54.024 54.024 0 0 1 46.145 26.19h-1.1a10.357 10.357 0 0 0-10.346 10.346v16.865a10.358 10.358 0 0 0 10.343 10.344h77.35a10.359 10.359 0 0 0 10.35-10.347v-16.865a10.358 10.358 0 0 0-10.346-10.346H452.1a117.008 117.008 0 0 0-113.547-89.23h-22.14A57.905 57.905 0 0 0 283.2 83.627V55.743h16.3a18.766 18.766 0 1 0 0-37.531h-70.159a18.766 18.766 0 0 0 0 37.531h16.3v27.873a57.926 57.926 0 0 0-33.215 24.735h-54.939v-7.2a13.012 13.012 0 0 0-13.011-12.982H114.2a13.011 13.011 0 0 0-13.01 12.982v77.438a13.011 13.011 0 0 0 13.01 12.983zm343.09 29.563h-70.04v-9.551h70.04zM224.58 36.978a4.825 4.825 0 0 1 4.761-4.763H299.5a4.762 4.762 0 1 1 0 9.524h-70.159a4.765 4.765 0 0 1-4.761-4.761zm35.062 18.765h9.552v25.379a69.131 69.131 0 0 0-4.793-.175h-.02c-1.593 0-3.173.062-4.739.171zM216.5 122.354a7 7 0 0 0 6.228-3.8c6.017-11.717 17.534-19.85 31.3-22.583l.078-.017a53.179 53.179 0 0 1 10.276-1h.016c18.266.005 34.248 9.046 41.709 23.6a7 7 0 0 0 6.23 3.807h26.219a102.991 102.991 0 0 1 99.071 75.227h-37.163a68.083 68.083 0 0 0-61.909-40.194h-26.219a7 7 0 0 0-6.229 3.806 46.907 46.907 0 0 1-83.377 0 7 7 0 0 0-6.229-3.806h-59.014v-35.04zm-101.3-20.182h28.288v75.4H115.2zm287.053 237.874c-11.431 11.637-11.431 31.3 0 42.938a7 7 0 1 1-9.99 9.812 45.119 45.119 0 0 1 0-62.562 7 7 0 0 1 9.99 9.812zM505 479.785H305.363V324.421l8.539 4.93a11.46 11.46 0 0 0 15.692-4.2l12.215-21.14a11.5 11.5 0 0 0-4.2-15.721l-152.53-88.072a14.569 14.569 0 0 0-13.148 0L19.4 288.292a11.5 11.5 0 0 0-4.2 15.713l12.2 21.128a11.352 11.352 0 0 0 6.93 5.364 11.543 11.543 0 0 0 3.033.408 11.414 11.414 0 0 0 5.732-1.55l8.546-4.933v155.363H7a7 7 0 1 0 0 14h498a7 7 0 1 0 0-14zM38.28 315.969l-9.708-16.806 149.834-86.515h.2l149.835 86.515-9.709 16.806-136.713-78.929a7 7 0 0 0-7 0L55.327 306.129l-.074.043zm27.368.37 112.87-65.151 112.842 65.149v163.448H171.178V365.3a7 7 0 0 0-7-7H93.54a7 7 0 0 0-7 7v114.485H65.648zm91.526 163.446h-56.633V372.3h56.633zm40.9-51.984h65.391a7 7 0 0 0 7-7V365.3a7 7 0 0 0-7-7h-65.388a7 7 0 0 0-7 7v55.5a7 7 0 0 0 7 7zm7-55.5h51.388v41.5h-51.383z" fill="#0f3c78" opacity="1" data-original="#000000"></path></g></svg>