<svg xmlns="http://www.w3.org/2000/svg" version="1.1" xmlns:xlink="http://www.w3.org/1999/xlink" width="512" height="512" x="0" y="0" viewBox="0 0 512 512" style="enable-background:new 0 0 512 512" xml:space="preserve" class=""><g><path d="m16.466 159.714 24.221 24.501C160.042 66.285 353.069 67.452 471.01 186.84l24.524-24.232C364.265 29.758 149.362 28.434 16.466 159.714z" fill="#0f3c78" opacity="1" data-original="#000000"></path><path d="M254.514 165.592c-62.252 0-120.869 24.075-165.194 67.873l24.232 24.501c37.818-37.358 87.842-57.91 140.962-57.91h1.245c53.591.337 103.851 21.517 141.511 59.638l24.524-24.232c-44.134-44.672-103.032-69.488-165.822-69.847-.482-.023-.976-.023-1.458-.023zM165.662 310.739l24.232 24.501c17.344-17.142 40.275-26.543 64.642-26.543h.572c24.58.135 47.623 9.85 64.888 27.329l24.524-24.232c-23.75-24.03-55.42-37.358-89.199-37.56-34.497.65-65.629 12.766-89.659 36.505zM248.478 351.866c-26.925 3.343-46.097 27.957-42.754 54.904 1.627 13.036 8.234 24.681 18.589 32.736 8.728 6.798 19.24 10.388 30.1 10.388 2.064 0 4.128-.112 6.204-.381 13.047-1.615 24.681-8.212 32.758-18.6 8.077-10.366 11.622-23.267 9.996-36.303-3.344-26.903-28.036-45.885-54.893-42.744zm17.703 57.888a14.707 14.707 0 0 1-9.827 5.564c-3.938.404-7.741-.583-10.86-2.984-3.108-2.423-5.082-5.923-5.576-9.827-.998-8.055 4.745-15.437 12.8-16.446a17.09 17.09 0 0 1 1.829-.112c7.337 0 13.698 5.475 14.629 12.924a14.67 14.67 0 0 1-2.995 10.881z" fill="#0f3c78" opacity="1" data-original="#000000"></path></g></svg>